<mxfile host="65bd71144e">
    <diagram id="kUrPDSCRp1jmMWpX8yrX" name="Pagina-1">
        <mxGraphModel dx="1963" dy="1187" grid="1" gridSize="10" guides="1" tooltips="1" connect="1" arrows="1" fold="1" page="1" pageScale="1" pageWidth="827" pageHeight="1169" math="0" shadow="0">
            <root>
                <mxCell id="0"/>
                <mxCell id="1" parent="0"/>
                <mxCell id="TS6xKIsJITg3z22UG14p-1" value="" style="shape=image;verticalLabelPosition=bottom;labelBackgroundColor=default;verticalAlign=top;aspect=fixed;imageAspect=0;image=data:image/png,iVBORw0KGgoAAAANSUhEUgAAB4AAAAOGCAYAAAANtI3IAAAAAXNSR0IArs4c6QAAIABJREFUeF7s3Qm0HdV97/n/qXPRADIoimQJkDAiYpAlDMIWYRJEGIyBp2cCBiyeCR1IEzedxo5D3KvtwCOe3mo/4tgkTSdexlkEBw8Mxq0wGYKMhIBYGIGREYNsoQldIVlIcDXfq9vrv6vqnKo6VefUfIb7PTHW1T1Vu3Z9dp3rLH73/9+V4eHhYeGFAAIIjECB3bv3iGVZ9p1XKiLDw6L/py+rot+v/3is6PvmMPtPfcd8bQ7x/xh1j4kirR3t+fGr53jPi/WDueVBw74xi1jiVvdaxDXdMb1r4btOpEtLsCKn23Tsdjq27aa5MAIIIIAAAggggAACCCCAAAIIINDFAuve2ipHHTGxi++g3KnjVa43V0OgQgDMQ4AAAiNVYPfufSa8tSw71PWGwCaQFf1+dAhsH68nJguAa2d4ziUATv4URgbA7lANeW/nBsDBuycQTv48cAYCCCCAAAIIIIAAAggggAACCCBQpgCBZjJtvJJ5cTQCWQUIgLMKcj4CCHStwK69+0QODJug1y0EFif01UrgViEwVcD1iuh2PAQEwO1Q55oIIIAAAggggAACCCCAAAIIIIAAAipAoJnsOcArmRdHI5BVgAA4qyDnI4BA1wrs2r3HhLzaiVn/tEx753qVqIbApkV0oMrX2w7aPTqqWrgZTn1Ye5Rgm2n9Xqya1ZYHFdsKul3VqskDYHc1WoK1/Zlul2nbb5wJIIAAAggggAACCCCAAAIIIIAAAl0iQKCZbKHwSubF0QhkFSAAzirI+Qgg0LUCu3btsQt+td2zXc5rh8AmB3ZCQv1rSKtnb8tmc2qgXbQ30I0CitoLOHhuy7gyxgFFBopFjh3n4Uq+F7CO2hItzqULO6bdpoXdGAMjgAACCCCAAAIIIIAAAggggAACPSJAoJlsIfFK5sXRCGQVIADOKsj5CCDQtQI7d+6SSsWyA1+NcE3Ya5k/a1W/zl+ahcBRVcBmVHN+9CuqCjh4bsu4MsYBreaSZSGLHLvVvNJVArcEa3XZQt9vp2ehN8bgCCCAAAIIIIAAAggggAACCCCAQI8IEGgmW0i8knlxNAJZBQiAswpyPgIIdK3Ae+/tlIplV/1W3E2AnXbQ5u+mCth8w/wZVeVr2ki7Ya9bOeyotArycqsC1us1zTSLbQOtl291r0U9KATARckyLgIIIIAAAggggAACCCCAAAIIIIBAlACBZrJnA69kXhyNQFYBAuCsgpyPAAJdK7Dj3QGpWlrxWxHL0hDXqQLWkmBP6+daB+iIENjsE+zkr6lbQXuCY2+Q6v26Zc1qjAOKDGmLHLvZQ0YA3LUfQSaOAAIIIIAAAggggAACCCCAAAIIdK0AgWaypcMrmRdHI5BVgAA4qyDnI4BA1wq8+96AyHBFrKollga+TpDrbfes33NDXWeb4Hp7aM+dawgc1Qq6VTAabAOtw7rnBM+NkfE2WY/erAImAO7ajyATRwABBBBAAAEEEEAAAQQQQAABBLpWgEAz2dLhlcyLoxHIKkAAnFWQ8xFAoGsFtu94zw5/zSbAw6Ihrgl83X17ne7Pdjto/Y/dEjqsytdbBVzrGu2RaRkC11Ngc1bqKmA9uY2toFvdZ5EPS2QQ3MKjyDmlHbudjmnnzHkIIIAAAggggAACCCCAAAIIIIDASBIg0Ey22ngl8+JoBLIKEABnFeR8BBDoWoF3tr9r9gA2baA1Bq7YFbJWtVq/p2Ex7aHNPsAxQuB6FbCfpVWgZ+e/9aQyeHyiVtBmrKhl6c0qYL3bXqoEbvW8dO2HjokjgAACCCCAAAIIIIAAAggggAACPSJAoJlsIfFK5sXRCGQVIADOKsj5CCDQtQIaAGu4ayp/K3YdsL70e3Y7aA19NTB1wkVPCGwf609ZNbTTf9xiXreQWI9sFeg1awMdPL9lG+jGqQXWqNgQuNW9FvXAEAAXJcu4CCCAAAIIIIAAAggggAACCCCAAAJBAQLNZM8EXsm8OBqBrAIEwFkFOR8BBLpWYJsGwBrOWpazD7AGvhriDku1WjXNnt2Wz7UwVwNep1I3LAT27gUcbAXdLBithbo9UAVMAJz9I9Euw+wzZwQEEEAAAQQQQAABBBBAAAEEEEBgZAgQaCZbZ7ySeXE0AlkFCICzCnI+Agh0rYBpAa1Vuxr0WiJ92vrZCYDN9y1tBe1Uyzr7AXtbQdf3Ava3bvZWAdfOT1EFHBYC5tkKWheuyKCxyLGbPXTJ9gKOVU/dEc94uzw74uaZBAIIIIAAAggggAACCCCAAAIIINBhAgSayRYEr2ReHI1AVgEC4KyCnI8AAl0rsO2d7WJZVTsE1b1/NQfWv5tg1K4MroWkbgBsf8PZrteuEbZf9SDRXwVcb7fcKsALtoEuNgC259xqTlkWt8ixm82LADjLqnEuAggggAACCCCAAAIIIIAAAggggEAcAQLNOEr1Y/BK5sXRCGQVIADOKsj5CCDQtQIaAJu9f/UfS3f81apfDYL1H/MNOwx2gmBfS2enFbQJG03bZn8VsEmQ9VVPde1qY+/GwAG5OG2g9ZT8qoDtCRYV1BY1bqsHrpf2Avbea7s8W3nzPgIIIIAAAggggAACCCCAAAIIIDASBQg0k606Xsm8OBqBrAIEwFkFOR8BBLpWQANgjXi1YtfsA6xZrv69IlLV9s8tA2AnQHX2Cg6tAk4QANuj6X8FwuSAcLcEwDrtdoSWLQPgGrQXtvNbQbfDsms/3EwcAQQQQAABBBBAAAEEEEAAAQQQKFiAQDMZMF7JvDgagawCBMBZBTkfAQS6VmDr77bVWkBrCOy2btba3WpV2z9rTfCw+b63ordW3OtU/9b3Aq4ni25baYMTCHRbVgEHQuMw4G4JgdsRWqYLgOtr16kPdDssO9WCeSGAAAIIIIAAAggggAACCCCAAALtFiDQTLYCeCXz4mgEsgoQAGcV5HwEEOhaga1bt9mVv6YCuCJVbftslwHb3zMB74FaAGz/vZ4Fu3sBm0DYE9q6bZX1+OC+voplAuWIV7ANdLPQL1EI3LTAtffaQCtv0yA41KOzq4AJgLv2Rw0TRwABBBBAAAEEEEAAAQQQQACBHhQg0Ey2qHgl8+JoBLIKEABnFeR8BBDoWoGtW99xwl0Rq6otoHWPXg1+TXxoQuGKE/ia/XtD9gIeblIF7FYU+8NhO5hsXQVsh5G5BcA6WJtC4Fb3UdQDRABclCzjIoAAAggggAACCCCAAAIIIIAAAggQaCZ7BvBK5sXRCGQVIADOKsj5CCDQtQJbtm4Tq1IVLfw1FcCm6lergU1kaX9tdgV2glg3uA2rAjYK3oTVqaqt9Yv2p68tq4A9baPNbNxxAtrdUAXcbP5FPjwEwEXqMjYCCCCAAAIIIIAAAggggAACCCAwsgUINJOtP17JvJIevf6pW+VOuU5uPWda0lM5vkcFCIB7dGG5LQQQaC2w5XfbpCKWVKtV0VJf3ffXDn1N4urfA1gD2UrFrhj2BsAm9tWwOLwNdH3vYH8A3KwKOKxtdJwAWKfdsolxkwMiMubWkDGOaEf7YgLgGAvDIQgggAACCCCAAAIIIIAAAggggAACqQQINJOxFeb17svyo2++Ih/8/JVy4qHJ5lTI0RuWyK3f3SSXRcxn4OUfyW33Hy7X3Xq25BnVEgAXsppdPSgBcFcvH5NHAIEsAiYANoFvRaw+bQGtGa/dCtqyKnLAvKPbAuvev3ZFr+anwRA4vA20Hcc2awOtR4QFo0kC4OAYWQJgd+/iLKbNzi07BG4aALsT7aK9gMv2K+o5YFwEEEAAAQQQQAABBBBAAAEEEECgFwQKCzR7ASfkHgrz6rQAWNbLklvvlE2X3SRXnjguIDEgL997m7xyQth72RY+awD885//XPSfZq8/+qM/Ev2HV3cIEAB3xzoxSwQQKEDg7S1bxar2mRBWq4Arzoa/VWcf4GGnGrjWAtqpAjbVu27Vr85Lg2GtCjZzDFb6OtXE9VTXHOWGeZEBsBmqPlbcvYAbZxCAa7EPsHdueZOXHWASAOe9goyHAAIIIIAAAggggAACCCCAAAIIIOAKFBZo9ihxYV4dFwCLmDD27cvkpstPFF8EXOBcswbA+tg1C4EJf7vvg0kA3H1rxowRQCAngbe3/E4sbfuse/+KhsC6GbBd8WvpRsCWBrvD5ms33DU1waYiWCuB7e/qq94GOlkArOdGVwHHC4DDxoiR80YoOnsX52TsHabsANi9dq+0gm6XXwGPAkMigAACCCCAAAIIIIAAAggggAACXS9QWKDZ9TLhN1CYV9NQ1a64fef0W+XsqfV5mTbMr37QH9Ca1s1P1g+aVQ9w7bbNq2rvzQyt7vXcd8ScGq9rVwvXruq5po7mhrrXyZ1y52KR+nUD582/TswxgT2Ag/M+98/8DmErFRYCE/5254eSALg7141ZI4BADgJvb/2dCV8tU/1bEa38FTsDlqql+wLb9bwmDDYtoO2w1i4EtttD18JFt020+a4/uHXyYl9Fr07fG+gFwz27YLgdAbC5cGgonZW8XQEmAXDWleN8BBBAAAEEEEAAAQQQQAABBBBAAIGgQGGBZo9SF+aVQwBsB6Xi2bd3QF5+ao1MP0creNfLkqdEzj7H2bHXXO9+ObxpmBrW6jn4PTvEFc84wcph8/fFIv7gtrHFdC3onX+d3OrMsyFsjjVv++HzhsCEv937gSQA7t61Y+YIIJBRYLNWAFu6368llaol1nDF/Kk7/ZqqX8uSYWcfX8106y2eK3ZA6q0CNsGwqQNuaANt7wM87OTC4aFu1gBYKULHiDJqUSJcZFhb5Nhht0sAnPGDwukIIIAAAggggAACCCCAAAIIIIAAAg0ChQWaPWpdmFfmALgxiG2+BPH28Q0PYN+RM249WzRKNu9vO6MW2JprBu4lrJV0aPWyp1rYDoD1np6R3/v8lXLiofW7yaNNdI8+nj15WwTAPbms3BQCCMQR2Lz1d3a7ZzcA1vjWtIMetr9nKn8PaK9ne89fM6gp/7X/Zn9pB69N9wHW991cOLqq1xuM1rcMto+PG5o2jBEF0TQAtu8z7jXjWHuPKWrcqHkQACddIY5HAAEEEEAAAQQQQAABBBBAAAEEEGglUFig2erCgfcHt62TlWt+J7tkjEyefpz8wYRqwhHKObwwr6wBsDm/HsyGawRaLou3HXOEX2BewcDXre5tPHtmrRI5LLDV7z0z4Sa58kTf7sK1dtEmAHaqfetNqz1X8VQJl7PyXKVdAgTA7ZLnuggg0HYBEwCb0FfbQFsm9JVhDYTtwNXSNtCeANjXBlpDWRMC20GpaQ2t3zFBb3AfYHffYP1+sQGwosYOgfXgyCB4hATA7lPoc2iZjrfl2S07OG/LTXJRBBBAAAEEEEAAAQQQQAABBBBAoEsECgs0E93/Nvn182vknUHnpL7D5PiPzJBJicYo5+DCvAoOgN32yvU2zPEqgEW8x0nDXsRRQa53NbIFwK1C7XLWnau0T4AAuH32XBkBBNos0L9lq9n3V6t+rapdCWwHwHaQa6qBNcw11cAVkQOefYDdoNVpDe0GwKZyNmQfYDsZdsPh6KpeX7VqvQzYnBo3AMwnALarm4t4xb2PvK4dyyM08+2sILhst7z8GQcBBBBAAAEEEEAAAQQQQAABBBDoRYHCAs1EWBvkxec2y0DtnIPlyNNmyvREY5RzcGFeMQLgV07wV8z6Wys3awEdZy/fJn4blsitz/6e3HSByEOBKuOoVs7e0aIC4Dvfvkxuulz3J3Zf9jzvf7+7B3DSttblPANcpVwBAuByvbkaAgh0kMCmLVukT6t8xZJqX8W0g9av/QGwHYQOO22ffW2gnX2A7apfPVUD5DgBsCLEDYGjK4abUcYKPd0BRkAVsN5q01bQ9SXxsHZWABy23oTCHfQDhakggAACCCCAAAIIIIAAAggggMCIEigs0IyluF+2rPmNrP3dTtnjVv+65/WNlvf9/hEyc/oEGRVrrHIOKsyraQDs7LV7/+FynbP3rmgo+90nRWbVQ1S7yldqrZdN9e5Ta2T6OSfKO0/dKneKG6y6462SmZc1tmFulLT34pX5IpsmXOxv2+y0aRbfOOtlyVMiZ5t9fMXf1tkdPOQ8t0pZPO2d7RbT59bv2+w7vETWfOBs377A5aw+V2mHAAFwO9S5JgIIdISAGwBXtBF0VaSqAa5pCi2mIliTX9MiOm4A7JTMBiuA9Wa1mti8au2hCYDLfghahuINeS8BcNlrxPUQQAABBBBAAAEEEEAAAQQQQACBbhEoLNBsBTCwWVa+vkG272tx4Kj3yfTjjpMj/VvFthq9sPcL84ra77YWhjrVsb92bm3+dXLThGfktlc/6KuirYWozmH1gNe//+/My66TD756pwSriqPg7CC2vq+v77iGufuPC6sANucHztO5nrHtNl9QrYc17DPM/r+FPd+dODABcCeuCnNCAIFSBDQA1qrfaqWvHgBrS2jt+lzVjYDtODgsADZhorcC2My4YvJdu5I4ah9gPc59L3qfXbultH8/4aTVni0DT1e5ac5ZzF7ASe8ljweipQcBcB7MjIEAAggggAACCCCAAAIIIIAAAgiMCIHCAs1meoNb5dcvrZV39sckPugwOfakGTK5L+bxBR7WFq8C74ehEeh0AQLgTl8h5ocAAoUJbNqyVayKVv72mbC3z4S+TgWwVuyGBMCmxbPJfu2AVv+sb5VrB8Dm/cCsvYFxxwXAOteS20B3RwDcFKaw5zLJwO1wTDI/jkUAAQQQQAABBBBAAAEEEEAAAQR6VaD8QHNINr7ysqx5dygRad+hU+UjH5ws7c6Ay/dKxMTBCPScAAFwzy0pN4QAAnEFNr29xez3qwGwBmkm89UA2HxtB8CmHXTF/toEvu4/ngDYDoXtimATAJvc0F85Gx4A22Fx5MtUGKfbA9gds2XVq3tgG6qA9dJlB5hN9wEONejsNtBl+8X9bHEcAggggAACCCCAAAIIIIAAAggg0OsCpQeau9bJC7/aIrsSw46Rwz80S/7g4MQn5npC6V65zp7BEOg+AQLg7lszZowAAjkJRAbAlu79a2n/53oALMMybKp93Ypfu9TXBHBO1a9Oa9gkxea/feFmdADc2C7avT03cHb/nibsIwD2PywEwDl9eBgGAQQQQAABBBBAAAEEEEAAAQQQGOECZQeau367Ul54e28q9THvnyUfOWZMqnPzOqlsr7zmzTgIdKsAAXC3rhzzRgCBzAL9b2+RiqUhriVVq2qqgU1LZ/1zuCKVqh3m6nsa7cYOgE0M7ATBTolvuwJgRWoaenoV21AFnCbUzrzwNkr0MD4HKoBz8WYQBBBAAAEEEEAAAQQQQAABBBBAoMcEyg40169cIWsHDqRStMYdIWfMPjzVuXmdVLZXXvNmHAS6VYAAuFtXjnkjgEBmgU2b3xarWjUBaXgAbIkMH0gUANttoJ0A2A2C3RDWDR1D2zo3Bo3mO55W0mnDUqqAGx+VXqkETvtMZP7wMAACCCCAAAIIIIAAAggggAACCCAwwgXKDjTXvPxL2bgzJfohk+WsE6emPDmf08r2ymfWjIJA9woQAHfv2jFzBBDIKKAtoN39fqvVqljOpr9WVb/SSmA7ANY9gE2n5xgtoIMBsN0e2mkVXQuATbJrZl8P8KICYPcY/57CSW+dKmC/GAFw0ieI4xFAAAEEEEAAAQQQQAABBBBAAAEEvALlBprbZdUvfyO/259yDQ4aLzM//Acy9KNHZNvjy2TgxVdlX/9WM9ioKRNl3MknyITzz5T3X3lhygu0Pq1cr9bz4QgEel2AALjXV5j7QwCBSAGzB7Bp+WyJNwCuVi2NZusBsGUHwsMV812zv6/Z7VcD3cAewA0BsH2oWBomNw2AnQM9s7UrgO1v2Jdq0ra4xTrHrgJunIZvRlnmEDXFIsZs9dgTALcS4n0EEEAAAQQQQAABBBBAAAEEEEAAgWYC5Qaa2+TXz6+RdwZTrslTL8tB9/67DG7c3HSA0UdOlqP++rpCguByvVI6cRoCPSRAANxDi8mtIIBAMoGoANjeC9gyoe2wVgB7AmAT5pogtlkArEGxvpz01gmANXSsh7r1it+oKuDOC4Cbb52bTL9+NAFwWrlsvxSQ/qqciQACCCCAAAIIIIAAAggggAACCCBQbqCZPgCufPd+kYeWJlqww6+9TI752ucSndPq4HK9Ws2G9xHofQEC4N5fY+4QAQQiBDQArmqYa9lhr9b5avir6a1lVU3rZ5EDphLY1P1qG2gT5tpfeCuAvYGwHuMLgO16YjtQ1rl4k11fG+jam2bGeQbAOl6ntoEmAE7/EW2HXfrZciYCCCCAAAIIIIAAAggggAACCCDQOwLlBprpAuA04a+7QnmHwOV69c5zxp0gkFaAADitHOchgEDXC7y1+W0TAFvVPtGsV3cB1l7LpluzCX11799hu32zEwCbVNbOgk2gav5q2kDXA2ETAJsiYf++viZQdlpG16qDGwLgWvQbyInt8bMEfp3cBtobUJfxYNECugxlroEAAggggAACCCCAAAIIIIAAAgj0rkC5gWaKAPjJX0jlH+7JtADHfuuLubWDLtcr021zMgI9IUAA3BPLyE0ggEAaATcArlhVEwD3WVWT7noDYK0ANi2gK/qPk+k6ewGbENcNZd3QV0PhWgBcD3P1q6QBsDm7liFnD4B1vDyqgDNsRdx0mbKE22nW35wTdjP+3N4ZOvSbqS+b14ltMctr8oyDAAIIIIAAAggggAACCCCAAAIIdLFAuYFm8gC4cv3fimx5J5Ow7gn8kefvyzSGe3K5XrlMmUEQ6GoBAuCuXj4mjwACWQRMAGz2+40RAGsTZ8sT7poa4OQBsF1A7JzrTL4xxKuHjUUFwHrplpFmxAEEwFmeunzPJQDO15PREEAAAQQQQAABBBBAAAEEEEAAgbgC5QaaW+XXz6+VdwZjzi6H6l/3SnlVAZfrFdOJwxDoYQEC4B5eXG4NAQSaC2zs32wCYMuyW0C7FcCm7XO1KjKs4bDdAlpDW1MBrBW/Tog7nDQA1j2ANVR1K4Sd6YWHeHb6GgyA9XtZQr/guU1D4Mg37TeyzCNsZfIeL87zH78VdMu4PM7lcj+mHWa53wQDIoAAAggggAACCCCAAAIIIIAAAl0oUF6guVPWrnxD1g8MxVaqfONfRJ59Kfz4T/2fcsrN/0XGThCRwW2y4398RlbesSly7N+/+Bw54btfjX3tqAPL88o8VQZAoCcECIB7Yhm5CQQQSCPwVv9mE+5anhbQJt4tMgDWiWoA7JlwmQGwXjb2XsAEwJ5VIgBO8xnjHAQQQAABBBBAAAEEEEAAAQQQQKBXBcoJNJOHv+bf/zVr/3zzLXLCWz+QV+8ckCPv+54cPfnnsmze/x25THm1gS7Hq1efNu4LgeQCBMDJzTgDAQR6RCBuAKyBqbcC2HL+rhXAJkw1pcHOdrLOHsD6jWCrZw2bTYwYKwC2D6xvAexcy7HPUvkZOwB25hq13L3QCjp+BbBXoXPC4CzPQY98jLkNBBBAAAEEEEAAAQQQQAABBBBAoC0CpQSa61bJ02/tSnx/lcs+L3LgQMvzJv/bT2XGEc/IsvnRAXClWpUzNvy85VitDijFq9UkeB+BESRAADyCFptbRQABv0AwAK5WLLG0F3SgAtgEwG7oq3mviH2cm/qmCIC1t7Mb3kWHeMUHwCqSrg20E3gX8FCVGWo2DcNbVEAXcOuJhyzTKvHkOAEBBBBAAAEEEEAAAQQQQAABBBDoYYFSAs3Na+TFt/ckVtz58c+0DIB/7+b/V467/mjZ+T+ubdoCmgA4MT8nINARAgTAHbEMTAIBBNoh8Fb/22YPYN0A2KpWJH4A7OwDbIp/7Qpg3avXVMQ6YbCpDjZRcT1FrFUAm9R12MmP7XA56lWLgD2BsXtslvAvdhVwi3Q4yxyi7rmIMeNcK/RW43+zHY9w7vswt+UmuCgCCCCAAAIIIIAAAggggAACCCDQhQKlBMAtXPbtfE92DQYO6hsjq89ZKHs3bo44+3A58q5/kqPO2Svv/PfPyqt3Re//qwPQAroLH06mjIBGFcPDmkLwQgABBEaegBsAVyqWVFIEwJrgaqibOgDWH8L6fwTAvoePADj+Z7FMq/iz4kgEEEAAAQQQQAABBBBAAAEEEECg9wU6IQDe8tqL8to7Qz7svt+bLuP/5zfldw89FboIY/72ezLnU+/Juo9/Vjauab1Ov3/xOXLCd7/a+sAWR3SCV+abYAAEukiAALiLFoupIoBAvgJhAbAJZC0Rq1oVGdZw1m7V7G8Bbdf2egNgU+ibtAI4VgBsX8fbMtpVyBr+5VEFXMQ+wFnvK8lT0tKACuAknByLAAIIIIAAAggggAACCCCAAAIIjBiBjgg0BzbIi6s2y4CbAfcdItNOOEHGPvSIvPG5r4euxZH3PSJHnzmu/t67L8ibx39WNkas3LHf+qK8/8oLM69rR3hlvgsGQKB7BAiAu2etmCkCCOQsUGsBLRWx+izTAtoOgCtiVa1YAbDbAtpEwikCYL0lez/h8JedP4YHwPpO1rDUPT/tPsA6t6xzCLvzIsZs9vjo9eJnvZ3fOKNsv5w/mgyHAAIIIIAAAggggAACCCCAAAIIdLxAxwSag3tk8+a3ZUAOlsMnT5SD+2y65z/yySZtoOPx5tX+Wa/WMV7xbp2jEOh6AQLgrl9CbgABBNIKbNy0Wfo06DUBcFWqWukbCIB1i2CT7TrvDZuct14BnEcA3KwNdEcEwAocmXkSAKd9/oo8jwC4SF3GRgABBBBAAAEEEEAAAQQQQAABBDo/0Hz7R9FVwHHXL6/qXwLguOIch0B+AgTA+VkyEgIIdJlA3gGwaYeslaRasKuVsaYkuJ6c6n7Btb95tl93w+UwPu/xYe2WswZ9LVsgu5MaAQFw01v13T8VwF32UWe6CCCAAAIIIIC1Tk1FAAAgAElEQVQAAggggAACCCCAQO4C3VDR+tsvfUs2fe/+VPd++LWXyTFf+1yqc8NO6gav3G6WgRDoAAEC4A5YBKaAAALtEUgTAGumq9mtZdJYp/pVv9bvabmwEwDbwW/8AFgPDwtz/YGx/bfgcXmFwGnbQHf7PsDu09e0HTYBcHs+pFwVAQQQQAABBBBAAAEEEEAAAQQQ6FCBbgk004TAeYe/uoTd4tWhjxvTQiCxAAFwYjJOQACBXhEoKgA2W/YmDYBNXKyBsf/VWDHc2HK5lABYp1ViFXDWe0rzjBIAp1HjHAQQQAABBBBAAAEEEEAAAQQQQGBkCnRToKntoNf9zztb7gmse/4e9dfXyfuvvDD3Re0mr9xvngERaIMAAXAb0LkkAgh0hkAtAK5UxKo6ewDrXr/m75bIsEayw1Kx7O+ZgLZJBbDbAto+y24BbQfB9iuqBbS+Z8LHkCrgOAFw7fyUrJ3aBjrrfSXlIABOKsbxCCCAAAIIIIAAAggggAACCCCAwMgV6MZAU4PgbY8vk4EXX5V9/VvN4o2aMlHGnXyCTDj/zEKCX/cJ6Uavkft0c+e9IEAA3AuryD0ggEAqATcANuFuLQC2tItzewLgkCrg8D2DG283a8Vs0/DTe7kSq4D1slnvK8mDQQCcRItjEUAAAQQQQAABBBBAAAEEEEAAgZEtQKCZbP3xSubF0QhkFSAAzirI+Qgg0LUCRQXAbvdnu6VzvQa4ZQWwSgaqgOMGwFnD0k6tAu7MANj7yDfdObltn40y3dp2k1wYAQQQQAABBBBAAAEEEEAAAQQQaKMAgWYyfLySeXE0AlkFCICzCnI+Agh0rUCmANiye0GboM30ftbwVttFa+toU8rrtHUeOQGwEuQdPOY9XrOHNX4FsHcUAuCu/QHAxBFAAAEEEEAAAQQQQAABBBBAAIEMAgSayfDwSubF0QhkFSAAzirI+Qgg0LUCZQXAJhuOswewI2lXDtuv8Apgu7I4+MoSlmavALZnm2UOYQ9S3uM1e1gJgLv2o8zEEUAAAQQQQAABBBBAAAEEEEAAgdIFCDSTkeOVzIujEcgqQACcVZDzEUCgawWKDIC17ldbPmtVsB2Nivl7WKCr7/uCTk8b6CQBcMM4CVcmewjc3QFwjcut6Pb6Ndn7OCFzKYeXGZyXckNcBAEEEEAAAQQQQAABBBBAAAEEEOgwAQLNZAuCVzIvjkYgqwABcFZBzkcAga4VKDoA1hDOreUdGQFwvRt2Xg9FW4JMAuC8lo9xEEAAAQQQQAABBBBAAAEEEEAAgZ4VINBMtrR4JfPiaASyChAAZxXkfAQQ6FqBqABYt/etVLV6VwNc3de3Yip0TZxrb/0rlrMHsN682fdXX549gLUC2BsAu8fFqgA2Y9lVwdEVwM5BIfppQ9PsFcD5B8Du7aW9p1QPJwFwKjZOQgABBBBAAAEEEEAAAQQQQAABBEaSAIFmstXGK5kXRyOQVYAAOKsg5yOAQNcKlBEAm1DYCRTdoNiEuk5r6MiAsw0BsM4lVggc2Q7Z3Fju+wAH51X0Axe6FzAtoItmZ3wEEEAAAQQQQAABBBBAAAEEEECgqwQINJMtF17JvDgagawCBMBZBTkfAQS6ViAYAGsdr2VVTdWv1VfNpQLYGwC7ewDHCoA1jDUzcV6ewNhfDRueTKatmI0VANfmFLb0PRoAe2/VR940DW/bZyPt+rdtwlwYAQQQQAABBBBAAAEEEEAAAQQQ6DIBAs1kC4ZXMi+ORiCrAAFwVkHORwCBrhXwBsBiWVLVNs8VSyz9s6rxq+W0gLZEi3jTtIB2K301kHMDYAUbblUBbA4yJbm2b0kBsF4qtAI2bJUjss+wDspZH5IyA82W908AnHU5OR8BBBBAAAEEEEAAAQQQQAABBBDoegECzWRLiFcyL45GIKsAAXBWQc5HAIGuFWgMgDXordQCYN0D2ITBZg/gNgTARjZdAGzOTJnExq4CJgB2UvrO+wikXfvOuxNmhAACCCCAAAIIIIAAAggggAACCHSmAIFmsnXBK5kXRyOQVYAAOKsg5yOAQNcKNA+ALVOBq/GrBsBavWui2IpdjGtZzhfmfW0ebVfpmq+H9T9OK2SncjdVBbBT+GvCvIQVwGaqBMCpnk0qgFOxcRICCCCAAAIIIIAAAggggAACCCAwogQINJMtN17JvDgagawCBMBZBTkfAQS6VkAD4Kqp7tWWz1WpVrwVwP4A2K0MThsAK1K1WvXt6estoI0KazX3bR4Am+Q5dA3SBsA6WMsQNPqytflkuX7whvIcq9UD2/LeaQHdipD3EUAAAQQQQAABBBBAAAEEEEAAgZ4XINBMtsR4JfPiaASyChAAZxXkfAQQ6FqB1gGw7vqrVb1OSOxUA6epAFYkrSL27ukbKwA2RcfNKoCjk9gsoWnLENRd9dDs2f5mluuHPVR5jxf14LZsgU0A3LWfeSaOAAIIIIAAAggggAACCCCAAAII5CVAoJlMEq9kXhyNQFYBAuCsgpyPAAJdK7DhrX7pq2rVr+VUAGvQa4l2d9b/qoi2ffYGwGYjYPNK2gLaPscfAOv33CwxsgLYOci5rLl247ERm/FmCGEJgO11bpJvO899tH07PxhlheXtvEeujQACCCCAAAIIIIAAAggggAACCLRTgEAzmT5eybw4GoGsAgTAWQU5HwEEulbADoCrnhbQSQJgbRGt4Z+z769JC6P3ANa3NQDWM7wtnfMJgM3FQ9chSxAYKwRukn+m3II48nnKci9pHlK9XusA2Dty54TBZVul8eUcBBBAAAEEEEAAAQQQQAABBBBAoJsFCDSTrR5eybw4GoGsApW1G7d0zr+xzno3nI8AAggkELBkMFUA7LaAtqtySwiATRvoesYbHu4RACdY+liHEgDHYuIgBBBAAAEEEEAAAQQQQAABBBBAYEQKEGgmW3a8knlxNAJZBagAzirI+Qgg0LUCz/5ypVS1TFX/sSzT8Nn8X2VYhk23Z7vKV/cAtnfiHTZJbC0ANpnrsDnXvBoqgO3vuS+rYlcAB1+1quCI92pjO/2nywuAndtqtcKRv0Zk7qzV2YneL7OylQA40dJwMAIIIIAAAggggAACCCCAAAIIIIAAAggggEBhAvUtKmv/1r2iuYW+NNcw7UfN3/XfbRMAF7YQDIwAAp0usGbtRqlWnR+QVtXs/Wv2/a1oqKs/IDXY1QDY+YHp/Cj1VwCLExC3DoB1f+Fay2cPTj4BsA6YbxWwN2xt2iqiSQCcd2Cb93jNnlEC4E7/BDM/BBBAAAEEEEAAAQQQQAABBBBAAAEEEEBgBAj46qycTMP5nvmb+Y83BCYAHgFPBbeIAAJRAm+u2yhVrd7VH44RAbCp+vUGwJ4KYFPxq79J425261YLD2sU61S/eiuAnT2AdT7en9exA2C9jhYhR26uSwCc59NOAJynJmMhgAACCCCAAAIIIIAAAggggAACCCCAAAIItBRo0VTTrfl1QwZvAOwNgqkAbinNAQgg0KsCb65/S/pM2W9FKtoC2rRH0D+HZdipANYA2K0Adn6NptYC2h8Aa+rrtIN2AmAT1EYEwO65NduIULcW6Trj2L/F0+x/ARpD4CxVs+656SqA7e7aeb+y3E+SuURWQDdteZ3kCsUdW5ZRcXfAyAgggAACCCCAAAIIIIAAAggggAACCCCAAAKuQP1ftddKf2vtn50i4FoLaJN5DA970gkcEUAAgREksFYD4Kq2ea5IpRoSAGs7aKeq12wV7PwUdVtA18JdUwUc1gK6MwJgXdK0gWCsNtBN0uFuDoC9br5bJAAeQT8luFUEEEAAAQQQQAABBBBAAAEEEEAAAQQQQKBTBOrhr/n312Zabgto+2v338kTAHfKmjEPBBAoXWDdhk2mBbQJd6tVjXtNUKpFwaYC2ATAB8wev3Y1r/2zNBgAa/UwAXD48hEAl/5Y2/+TXwR8e26FqyKAAAIIIIAAAggggAACCCCAAAIIIIAAAgh4N5b058C+4NcNgQmAeWQQQGDECmgAbFcA2wFw1VTyagysrZztANi0ajYBcHQFsB0AazKsYbGeY+8B3KoFtDeoi9pvtqEFtGlT3aqvcn5toGNVAOuNtKiKzTOQzHOsVg9/yxbY8UqDW10m9/fLNMp98gyIAAIIIIAAAggggAACCCCAAAIIIIAAAgggECLgyQbswl/Pq179a9IMWkDzBCGAwEgViAyA9aemE7TaewDbFcBRLaDrAbB9bJEBsK6VpZsSN33lFwDrZWKFwATAzVLw0j9iBMClk3NBBBBAAAEEEEAAAQQQQAABBBBAAAEEEECgRAFv62fPZU2WIQTAJa4El0IAgQ4TcANgE+5qC2jzg1H3Aq5XAHdnAKzQ+YXABMAtC5ydJ7vJZsglP/sEwCWDczkEEEAAAQQQQAABBBBAAAEEEEAAAQQQQKAtAuFBMBXAbVkMLooAAp0gsH5jv28PYLcFtBbxui2ga+2ggxXApuWzHfiZts/OhutJK4DNeab1tN2sIRghBltA147vmjbQjlGOe9KWGW7SAroTPqnMAQEEEEAAAQQQQAABBBBAAAEEEEAAAQQQGIECIbtBttogkj2AR+Bzwi0jgIBfQANg3QM4jwrgegBs7xscdw/g3g+AbfMc819fS+qin2kC4KKFGR8BBBBAAAEEEEAAAQQQQAABBBBAAAEEEEAgvQAVwOntOBMBBHpSIBgAR1UAx9kD2IScbjVwwgBYz7WcKmL92lsF3AkVwObeIiqUGx6MiC7IeQbA3vkU/WC2vG/f/dICuuj1YHwEEEAAAQQQQAABBBBAAAEEEEAAAQQQQACB1gK0gG5txBEIINCjAnkHwFr5q+2gdSfhYTlgh6ZOm2gl1JA3LNB133OZ4wTAeqy9lXuzV8n7AOtUIjPQ4dwrd8tsBR1ZwtyhAXDUU1GqWY/+3OC2EEAAAQQQQAABBBBAAAEEEEAAAQQQQACBThcgAO70FWJ+CCBQmMCGtzabFtAa7mlwm7UCmACYALiwhzWngQmAc4JkGAQQQAABBBBAAAEEEEAAAQQQQAABBBBAoNMENOtw5kQA3GmLw3wQQKA0ATcAdvcADgbAIlrNa1eumn/0R6dT1GtZ9epeDY/Ny1cBrOfZ33NfzSqA3WuYYTwCUS2g9ZAyK4DN9eK0gaYCuLTnN82FCIDTqHEOAggggAACCCCAAAIIIIAAAggggAACCCDQIQJOwtuqPygBcIesF9NAAIHyBVoFwBU3ALaSBcAmwdWsOGUArBJujkoAHP1clBpmRm1iTAvo8j+4XBEBBBBAAAEEEEAAAQQQQAABBBBAAAEEEECgqQABMA8IAgiMWAEC4GRLTwVwiBcBcLKHiKMRQAABBBBAAAEEEEAAAQQQQAABBBBAAAEEChcgAC6cmAsggECnCsQKgCvJW0DXK4DdNtF2StiqBbQeEwxZm1UAm+NrHf2jlBt7MqetnM0WADsV0Tk+DGnvI9UUYlUAe0eO7IWd6vJ5nVSqWV6TZhwEEEAAAQQQQAABBBBAAAEEEEAAAQQQQACBRAIEwIm4OBgBBHpJIDIA1i19zb6/6fYA1gB4WIZN4GvvAZw8AFbn+pn+vYS9IV6ZAbDOyXvtJtv9hj4mURlq2meqzDAz8r6b5rydFwKXaZZ2XTkPAQQQQAABBBBAAAEEEEAAAQQQQAABBBBAIJsAAXA2P85GAIEuFiAATr54BMD1/ZmNHgFw8oeIMxBAAAEEEEAAAQQQQAABBBBAAAEEEEAAAQQKFSAALpSXwRFAoJMFGgJgy676tSqBCmD9vvN/2nFZi3otPchU94pUtNJXX8PD9tdOBbCGpTqU82aiFtBmOG++6FzLXC9QStu8Cji/FtDBayetAHbT0ryqUPMaJ84zSgVwHCWOQQABBBBAAAEEEEAAAQQQQAABBBBAAAEEEOgEAQLgTlgF5oAAAm0RCAbAmulaVlUqYge5tRbQJQbA3pA1nwBYR8wvBM5SAUwA3JbH3HfRMkPz9t8tM0AAAQQQQAABBBBAAAEEEEAAAQQQQAABBEamAAHwyFx37hoBBESEADj5Y0AATAvo5E8NZyCAAAIIIIAAAggggAACCCCAAAIIIIAAAgiUKUAAXKY210IAgY4S8AbAYllS9baANlW/djvoivm+3QRaX0laQJu20E7LZm0bXavF9bR01jG9wWowZDXnpG4BbU5ucE9bCdpJAbB7U2nvJcnDSAvoJFociwACCCCAAAIIIIAAAggggAACCCCAAAIIINBOgY4KgHfu2iuDQ0OhHvov38cdPNq8N7BrrwwHwhP3pL5qVQ5xjmsnLNdGAIHOF4gTANvtoCtm/95aACwiloa6MfYAThMAq5wbONbaQDcJgM3xnt2GG+XzC4C9c9OvI/cBbvJmYAvjzA8KAXB8wjKs4s+GIxFAAAEEEEAAAQQQQAABBBBAAAEEEEAAAQSKEOioAPjXr66XXbv3ht5ntWrJH0yfYt77zZp+GRo6EHrcwWNHy6wTphVhFTnmnj375Jbb7pJT5xwvn7z47EKufd9DS+TBR5fJ7V/5C5kw/n2xrhE2r7/753tl85bt8uWbrpExY0bFGoeDEOhVAQLgdCsbqwpYh45IhwmA07nncRYBcB6KjIEAAggggAACCCCAAAIIIIAAAggggAACCHS2QEcFwGvWbpbde/aFimkAPPWIiaZCuIgAWAPW2+/8ie/aN173x7ECXQLgzn7ImR0CUQIaAJu2z/pPtSpVbfNcsds+639pC2i3AliDM6tiaamt3QI6VQWwJcNuKtqkBbTO11sBbLLUTBXAZoQGhrRhIAFwxBPVQNy0ProtH8y0a96WyXJRBBBAAAEEEEAAAQQQQAABBBBAAAEEEEAAgVQCHRUAx7mDHe/tyj0A1qrYFStX+6prV7/5lrzx2w1y4bmntpxWNwXALW+GAxAYQQKZA2ANVYd1j2DLVtP9fvVr821n71+3TbQGyFZnBcA65TSBIAFwxIeEAHgE/fTgVhFAAAEEEEAAAQQQQAABBBBAAAEEEEAAgc4V6KgAuP/t7bJ33/5QraplyaSJh8qevftzDYA16L317+6SW//qGplx9BGpVooAOBUbJyHQdgETAFe16jdeBbDWBGu1sKkA1jJh/YIAOHodIwtgnXA8pycgTYid9NKxQm8C4KSsHI8AAggggAACCCCAAAIIIIAAAgikENgn/a+/Iutlisw5bor0pRiBU3pbYHDLa7Jio8i0WcfLlIN69V7TfA7SnNOrfr1/Xx0VALdjD2ANgP/y1jvk5s99Wk49+YSmK+4eu+Pdnea4o458v6kaPnjM6NoewPp9t5X0YYceIn9/6w2+YNkNi5974RUzxmmnfLBhP96wY2afcLT87Knna1XK2rL6Fyte850bDKKj9gDW6/7Vn19urq/Vz/qa94cnyk1f/ufa/d92y583eATbZP9ff7FQ/u0n/yGXfPzMWK2ye//jxB12m8CGTU4L6A4MgNVSQ0c3U2zVAtocr/2pI1/haWya8DRWGKrzIADuuI9EmvXuuJtgQggggAACCCCAAAIIIIAAAgggMLIFXn9Cvv5QvwxKVWZevFAuPy45x4oHvi+L1oqMP/k8uXH+lOQDcEYHC7wm9/7jclm1X6TvuLnyxYuP7+C5Zphams9BmnMyTJFT2yvQUQFwO/YAdkPSVavXNoS13qX5xYuvmoDUG4w+9exLcuLMY2oBsIa67r7B7rg6xpdvukbGjBkl27a/Jzfe/I8yZ/YMXwC7ecv2pse413YD5wnj3yd5BsA/fewZ+cQFZ/jmFGyJrde7696f1Yy8IXXcvZLb+6hzdQQaBQiA29MCWpPhPIPIPMeK+pzECr2pAObHDAIIIIAAAggggAACCCCAAAIIdIXAPtn++gvyyC82yprf7ZbBA/ak+0aPlYlHHy9XXDRbxnfyfexcKT+4+0V5QybJgqsvkDmHJJ9sogB470Z5dulLsuLVUXL6X5wncxJcbnD7a7L0qddlxfodMuA0P+0bO06mHX+8nH/WzATVqUOyffVyWbRsjazfPmSvWV9VJh41Uy696OTGcd5dLY88+oKs2LTPPvagcXLsWafJ5SeHVEzrsf++XJbvnibXX3eW1OPwAXlj2TJ5fMUW2apzt6oyZvwkOf2802TekeNaKKyUu//+RVkTPKqvKmMOPUxmzvygzJtztIwvpDp3QFb89GFZ9KbIsedeJAtPbDXXBAsacmj/4vvlOy/ubninb9xhcsLcufJfw8yzXdI+O83nIM05ecyVMdoi0FEBcByBIvYA9oaZ3pDVnY8b3EZVuoaFvXpusL20hqgPPrrMt9ewO7aGqFqBHBbs6ljBfYrzDIDD9j/2VkUH5+i6uBXR11z+MSqA4zy8HNNxAuvf6pe+qpWoBbRdZKv7+TotoE2lbus9gPWsarXqFMVq62h/WhgWYnorgPV494yowLN5BbDOoLEkN0t46ptf2Or2UAWw7/YqEZXWvRYAvyJSuUfk3z4rctWkjvv4FjehLSKXfVvkspF238WJNoz87A9FztCfSJ8q8aKdeimet05dGeaFAAIIIIAAAggggEDvCuxfJ4vvXSZLNw9F3OMkWfCXFyQKObsRK1EAvPlpuf2eN2W7Bs6xbfbJmmWPyb0vD8mM006Rj806SsY5YefgznXy8rMvyeOrReZefIHMnzaqNWFtDiJ9Y0dJnwzJnt3OGo6fIdf/6Wn14HbnSrn7rhdlzV4NfkfJmL76seM/cp7cOM+JePdulOX/sVwWvzEgezQkPvRoTwC8W1b+9EF54LdDJvgdP/kwGfPuDunfqdesyrEfv0QWzhzbZN71ALhv9Cjp0399OrhP9nh3ALXGyZwF58mCY4oNaFvjZjuiFgBrQD66ag+2f5/sGbS/HH/yfLlx/pHZLsLZCKQQ6KgAuB0VwF4zN+hct/FtX0Vsq32C3QB48qTxtSpaHdfbXvpDJxxj2kQHj/G2af4vHz0t9BgdKxge5xkA6/huS2j9Ohh4awXyV771/YYK6VbBeIrnkVMQKFWg7ADYsixNi+0gNkYAbDDcsDFGAGwOT9gGOmsArNdskvNGrGd0BXD/z0Wm/kpkw43i+W1DZ5hXRPqeaHwvyz2keuDaEAB/7WaRm72TnSVyIEV4lsiqhwNgE0CuFHnmqyKnBx+CkRTIOff6QMCg6NB/xATAEb6+524kPW+pfuByEgIIIIAAAggggAACCOQqcGCjPHLXYlm+Xas5R8mUD50kl54xQyaa0GpI9mxbLYsffUumXTVfZud64c4brNgAeEg2LH5QvvfmZLn602fJ9N2rZfETK+XZ9QO1yt3pp18gCye/It95cLNM/+QlcuHhTnAYRbX5Obn7uTFyvqfad3D9ErnjvnWy3dcKe0hWLvqxPLB6SMZ84GS54dLZovHqwEsPy+1PbpNBa4Kc/5mL5PTfPiZffnSLfTUNZ4MB8LvL5Y47X5OtMkrmXHqZLPiAzm+frPzp/XYofPhM+cKnPixjIpfWDYDHytyrLpMLJzsHHtgtW9etlEcefU3WaNGsNVZO/9Rlcr77fuc9Ki1nVAuAP3Cy3HKp+8kZkDcefkx+8NpuEdd8dMuhOACBXAU6KgBuxx7AYZpucPtHp59kglENQHVfX93vV9svB19he+3qMWEBsLv3b3AMrQB2A+BT5xzfUFHb7gA47P4JgHP9LDJYGwTSBsCa3WoFsFsHGrcCuBMDYGVPFAp61sk9LzIA1mMj3ozKUAmAAx+ELSKfvF1kzkKRL32w/t7XfijypaID4DZ8Jku5pBO4ySSRU873u5rrtyGQ618scvivRDZ9NuQXH4pECblXM5f/KLbyu4gAuG2GzdYnxNfc+2bPWrfheSvykWJsBBBAAAEEEEAAAQQQ6GyBrc88KHf854AJ3eZeukAubFl5Gr/tsDdQvfYDq+XHT6yXDVotqkHzrBPlinNnynhrtzz7w/vl8U1he7PWg0t7X96tTgvhsTL3U6fJmKXLZOnGfWJXsHre84aLYrcsfuSFLbJdqy/7xsqxZ58tM37zmDwS2O+3Pt/58idTfiM/XrpO+nfWz1l4kt0OzT0uuLLTz/u0XH1ixHqvXSLffGi3zL9GK6nr1bjjJk2Qw983SmRot+yePFeuPXOKyOtPyDd+Pkou/7OzZbrTZDD+U9Qvj9z5hCx/V6Q2nwMr5e5/eFHWHAgEr/KmLPqnp2XFbj12oVwtT8jXnxeZc+pJcsLby+RubWHsrQDe+pzcfvdq2S4T5MLPXiRznbnteX6RfGPpDpGJx8uNV89t0io8IgB2b85Tpdw3Y658cYFnn953A4F5SPvqgd8+Jz9Z6m2HPUqmnHKaXH/mUb518+/xHP/58Ia6X5y7V37wxOuyZrv9PE/90ClyxfwZJljXV3gALCK1qu3AWuzvl+WPL5elv9khA+Y5HSVTZ58il54zQ8Zb22Tx3Q/L0q0iY2adJV/42NGex2GdLPrOElmxU2TqOZfJtaf8pv4ZqX0OhmTrS0vkgV/0S/+AUyF+0DiZOf9suXzWBBF9Hk1r7uDzsU/6X1wm/99y73ljZeqsk5x5udPwnP+p82Tar5fIz369QwYOiPSNnyLnL5gvcye2+GWG+A84R2YU6KgAuP/t7bJ3n7cHQP3uqpYlkyYeKnv27pffrOmXoSFnY4IAwMFjR8usE6ZlZBFf6Lv6zY25BcBh4a472aggWd8nAM68pAyAQINAbgGwVvZq0Dk8LBXna23YbAJST6VvPQC2j/Wmo5EhbMEVwIpCAJzww1FiBbCGWkdsTlftG3ZXadc6oVBHH26CQg3gJkeErm0I5NoWXkbc6z3fFrn/QyL3zy9mKUdyAOz+gsFNbvV5G563YlaVURFAAAEEEEAAAQQQQKDzBerh0bhZZ8nnfcFS2OyHZMPSRfK95wfMm24b38G9zp6yoyfJAg04nf133aB03MRxMqssyR4AACAASURBVLh1QAa1TfGBIdmz1w6hxhw3V75w8fGy54WH5RtPbRMZe5Rc/ZmzZbp76QOvyb13LJdV+8fJvGsukfkT6kHT1COHZMPGfebIhnDYE3yteujHcu/r9vXs+WrrY5Exo3Ue7rl2+2N3vmPGjxV5d5+IVkHX2vaOkjmfvEIWTBNZ859PyHPrd8ia9btlUEbJlGMmiJaITT3lPJkXGkPslmd/fL+smqEB3ZA8+8MH5fFNVZl+3gK5OnQvWu/xzVoqh61RPdQ99uOfloUzRWTtEvnGA+tkz0FT5PK/OE/0W+4rquq5FmD6WkAPyIoHFsmitUMyftZp8ifnzZDxA6tl0f3PyYrtze7HvVqLAFhEti57UO74xYCId66bnpM7frxath4QMYH5wUOySfdPPuBppayh+UP9skecY94n8t7mbdI/sV6B23ivQ5Lk+aibjJXxA7tlQJ8nTwvriX94kdxwhgaqTQLgTU/LN3/4pgzIOJl33SUy/1DPvr27NTCdINMniGxZt838woJbsd3nhuyHHCVXX+/5jLiBcq2iuNG4/kse2rZ7kkwau8+ML7P1lyr02Q9bF2fP5N/anzG3xfjgXmev6fFHy7XXnCVTzS8BuOePkvHjh2T7gMiYg0Rqx46eIpd/5jyZmfiXGTr/J2g3zrCjAuA4gEXsARx2XW/Vr75/483/KO4+vcHj41QAN9vf1zue7vW7ect2+fJN18iYMfXe/8E9gMOqkoMVuWHz0nH05bZ8Dv5d3wuO461k1vtwX+wBHOeJ5ZhOFiAAtlcnbSjYKRXAP/yHinza6Vij9/OVhSJf9FTLPvsjkbNE5GkROWulfc9//FGR+/5I5Ae3S+1c93veZ1Yrko/8j/p3zNizytsD2ATAT4os+0pIq2LvRJ1K4Vor30CLaA30HviQyGUvV+S/bRH56jyRv1na2ALZF0Q6LaB97Wqd79UuPclftfq1vxH5G/fNwHtu8FWbY/D9kn5YqMUap/JX5zs9uNevJ5CTe8R4mdfskD1rW3iIvv94Y2WvXleusquPdT61a+h1ynSJCB99Aa37HFwlcsY9gfm1un+HzvdczBZ5Rvx7AHvXxH0MokJx31hiVyr71ilgGPQtur217zEO8w1+rpqE8N7n4qvO8+L7+eRUa7vf+7erRO6/h/2rS/pRwmUQQAABBBBAAAEEEOg+AV9L3ytkwQda3MK25+SOu1bLVqnK9HMvkqtPOsw+Yf86WfSvS2TFu/VQV79dq5T1VRcPyfYXH5M7Fm+TQTcEG+cGvdpa2DOP156Qrz/cL4O1ytL6HrJy0Dg5/RMXyfm1iuWQEGv9EvnmfetkQOfrCVvrbZLDA2BTDX2F04L5wJuy6LtPmwpLX/Vloj2AV8kPvr1ajv7MAjl9r9NG+cjZ8oUrTo5ul/zSw/LlN6fLLZ/wxrWtHjGnzbRW7npDt5cfky8/sSWwn6891pqf/Vju/vU+EV+rYk+A6QuAtS30Fnn2vifk8Y3e/aKrcuy5F8lC93mInGbrAFhqAelYOf3qy+T8ifXq16lnLpBrT3WeuU1Py+0/fFO2O8Hn+x79vjzwW5Exx58mX7hohjODfbJm/TaZPs0f8NcqgBM+H7UAWEbJzIsvksuPM420Zfl9i+SR9UO+CujQCmCv3eEz5fOf+rCMk3oIPe740+TGi2ZIn85eq6H/5UVZs9/5xYP3/1K+d8cq2RCo0nWvU6+YDhr3y+P/8oQ8u11kypmXyPWnOjXKB3bIms1DMv3wiApg97MX7Azw7oty97+ulDX7ReqBt+dzOel4ueGquTJRw153jXztyFs9w7xftEBHBcDt2ANYQ8wnlv5SPnP1gpp1WGtjrcC9696f+fbBferZl+TEmcfIwWNGm717g9W9weDUHXfO7Bm1AFZD2v/nrp/Kn175cdNeOixU1WtrC+ajjnx/rQ112Bw1zP3pY8+YoPqTF58teQXAChMMoL37JbvXK/phZXwE8hbIGgCbit9KpVb1G6cCWOt+65XB9f7IcSqA9f5r5zfBKGsf4E4IgL9+i8gts0QGr3RcnSBUnIBXmUwAvNITDL8iUv2BDVgLi53vff9GkYV2hx8x4e+vRDa6+xG77ZivqvjaMdeWoqHdddPm2LEfZw2wPr1VROd2lTM338nOvC71vG/OmVyvHHbH+LfPVmpjeENIdzzf9wJBVVhr4Ht+KHLup+y2xcHxgq1ug+97z42NkfXAwD2FVqJ69m31hoUmePSEwGEeDXsLxwiAzbPWQS2gdT6+CmA35A0E4LHu33kuXvhovZrYPc8bqMcKgN3W3YGxnpxtfy7CDIPrq8e4x2d9lGKdHxLuNnzuIo7xPmvuL0/ozzW3Ktt19P6ChhuOlxpyx4LgIAQQQAABBBBAAAEEEOgIgah2tBGTq4VaYXu9uiGjp3LTDYAb2vl6Ww+fu1CuPklqe9SOO/Fs+fx52rK33v7Zbm2rlbD1oGniqRfJDWfa1Zb2K6Tycen9csfzu0P2ph2S5ff9QB5ZHx4AB+cbGpImCYC1dfJPBuXS//UsmbrK3mfX34Y4BFzH/3eRK647y/w7ltavfbJm8cNy94vaznuUHci61cVNAuCoVsXhFcCeCnBt4z1tgozdtU3WbNknYo2T069YIOc33bc4RgAcfCblabn9njdle0P1cr3VtVY6n/zbH9iV3uOPkssvO1NmHtrYcjhYAbw14fMR+fyHPPu1Y62qjDH7aWtFrFMpP+EoWfjJs+VYrZSvtef2VAQ7i12br2lxfpipIn98ozd43SaL73pYlm6rysyLrpDLj9frBI097aOPnCl/8scflikHBZ+m4DlDsuKBH8iitWEtpz2/HNDwixmBX+CQ+hp5q6NbP8scUaRARwXA7dgD2A1cd7yrDf7rr9tu+XPxVrvqO1p1e9OX/7l20GmnfNBU6uorTgCsx3mDU3egYIAanNMnLjhDPjB1sjz46DLfPsTB+Xzlr/8Xeeg/flELovMMgHWubsCsX2sY/bc3XSP//ba75JKPn9mwZ3GRDy1jI5CXAAGwLdlxFcBPNlnhiSIbnEA2uF+wex/B4NatAB66sj6uqfydLBL8nra91cpgfX39ZpHpnkBYv6djnSkVORC2/25BAbBe160E1q+DQbCGXH83WeQ+b7veV0SsH9Qrh91AeHhhvXq5IfwMViYG/h4WGLuiblvlYa+LN9gSkcu+3f7KxJb3rDfkzPuUYMVlTI+GEL1FBbC7vp2yB3BoiH1P457AUc+D9/tRwXZwHeIEwK3aRoddq+hW1i3/t8jzywS1YyMq4y9zKtGjzILfD/WnnXTLJeEABBBAAAEEEEAAAQRGtIA3bPvUZXLh4c01otoFm7NCAtHo40MCWLcas1Zx+prc+4/LZdXQJFnwf1wgc3ytZoN7leoEGsPFWgvqk+bL58890ndzYXNr2Q7ZWyWbNgB2wsJcA2CtLH1gsTy+XoPYsTJnwQWy4Bh3N1oRaRIAb3jyfvneS7tFjvmwr9o4NAB22ywfNEEu/NOLZK7T6nvgpYfl9ie3yWDLVr8xAuDXn5CvP9Qvg3KYnH/DAjn9dad6ucmjafY6fv8v5Tv3r5L+vfaBfROmyLxz58q8aU7FsKci3bVP+nxE7uvr+sokWfCXusezJyQNzHvcMR+Waz8xs75Pcu05ir5Bd761Vulu8OpW8Ptapzca73l9sdzxyEbTMlusqow7/EiZP/80mTPJ7TbbWDXcsI+0d3oNz1PUutYD4JbP+4j+QVzuzXdUALxz114ZHPK2E6hj6L/YH3fwaPONgV17Zdizr6aXrK9alUOc48qlHHlXc8PsqNbYI0+EO+42gfYHwCpmp4ZRIay/Yrh3KoCj7jsY6vqeqVdE+p6oB8DP/cgOPu91AtuaoVMR+1dO2+SoANgb9up1NBSufc8Z4ychD/Xw7PIDYHcabhB86bn1wNet7g37/Lmto90W0Pef62lf7YRF7l6kGrDdNtmz76s38AwcG7yWGxqGzcGtRqwdE9ZKuaQfHmEtn+NUZJrphQTatX1cPfP3OXZJBXCtLbfeRzCgDGsF3uR58N5/wzPlOKUJgMNCYu9jExqcelpU+1qZl/S8+Z4Zt3rfmVOtSjcQ2kaZ+fYOjvInAC5rZbkOAggggAACCCCAAAJdKqCtiX8pbxwQaayobbyl/ALgelVivTLQ3Y/YCXd32EGgzJgrX1xwvDOZZgFidAAcFj6VGgCLpwX0e8/J7Xevlu15tYDe+Zrce89yWaXbMo+bIpdeOV9mB6tfnarjhj2WQ0LR+r9vul++o62kPS2g3UrovuPmyhcvdtdEz3D3Ha7KzIsXyuXHRX0cWgfAa574sdz98r76dWvVtWNl+rTD7PbIgVdt7+X9/bLi6Zdk6cotZv9cfY0/eb7cON8O/4Nr3ux5DnsvVQDs/NLA4PZV8pN7f2nWacwxJ8sNn5gtJqKvBcD1vaSD9zduximyYNYET7WwHY7P/OWDcvt/Dki9al7PjDB+d50sffolWf6GvXey+NqiEwB36Q/wVNPuqAA41R1wUtsEtAL5K9/6vq8tdtsmw4URSCFAAGyjtaMCuFsCYDdE9j1elfL2AA59rEOqe909baM+BqEBsNPqN3I/3IQBsC88bvJ5rO3JWnIQXGs9HDY3b+gZFaL1cADsVp9GPW+VewL7RXdLAOzckHftSw2Cm+zvq79sYto5EwCn+F9vTkEAAQQQQAABBBBAAIF0AvU2y6JVnX9ygcwNaZ3rjl2rFm3WAtpTjRhZYXnA3fPXHxhuXfag3PGLARNGz9/+mNz7ugQCxWQB8KqHnLbAgf1tRdzWueEtoIOBcWjwl6QCWHab9r2rZmgr6921tr3efYn96+c9XltfR7wObJRH7losy7eLjDlyplz7yQ/be68GX7W9noNthqOD27AK4JU/tffZbQyAnWrt/SLajnlh5LbFLQJg3TP2x2/Kdv2FhD+8SG44Y4LI2iXyjQfWyR7LWwne6mnfJ/3/+Zh875kd9Uri0Y0BcNLnI0sAbGa885fyve+ukg0HRKbOu0Su/cg4kb3he/uG32G9NfPUcy6Sma8/LI9vClbDtzA+sENWPfqE3Pvabqn/QkBjC2i3Rbpv3+vav1Nxfjmg9nOACuBWT2QnvU8A3Emr0cFz+ae7F8l58z4sM44+wswybK/iDp4+U0MgVCDXAFivcGC4th/wsNj7A+u+wO7Lsiyn3lekHiEmqwA2Y0UFkJ67jN4HOHxf2sJC4MhtcMPvO0kFcNYW0E0rgJ0W0LJQ5IsfDDw+7Q6AA3v+asXgmfr4hbWldqbuBsDaJtq71rXWzR8SqQRbFcdseayXSLyHbVhVacE/pyLbAbeoyHSnFasFb3Av5CbVs94W04n98rKKUzEasVZxWkAH94F2p21+CWCyiNsyPGxtguemaQEdZGrWxjwvUt84KQLgWC2gW7QpZw/gQlaTQRFAAAEEEEAAAQQQ6A2Bbcvljrtfk62mPew4mX3eKfKx446ScWaf0H0ysPE3svipfpl+1XyZ7bZp1urBcy+Sq09y2uvuXyePfH+JCSK91YhuAOwPl4dkw+IH5XtaXXrQFLn0hvNkthtaukHlxAkydcc22TDqKLn6+rNlek06WQBca30sY2XOJxfIgmna8nZItr/0hHznyS2yx1SInic3zrd32U3XAnqczLvmEpnv3Y447MlYu0S++dBumX/NBTLn3XrQOW7SBDn8faNEhnbLptEz5PMXzxTRVss/HyWX/9nZMj0s0HXGdwNzrdK99k/PkqmRx9Yrrscdf5rceNEMU0lba918SNDZ08LYUwFca0Hs+2WBIdn+4mNyx+JtMmhNkPM/c5GcbjdtDXlFrN+B3bLhV8vkgaf6Tfg75sjZcu0VJ8tEM4JbGS4y/qSz5YZzj6pXAb+7Wha9tF8WzJsp/evXycRpnve2PSd33LVatko99G5Y31rr5njPR+YAWES2PvOg3PGfuk/zOJl3tT43dtive/uO+cDJcv0ls2W8u477+2XpUxvl2PM+XN8H+rUn5OsP98vgBybJ9LVbZM2EGXLDNac5VurVuAfwhvVVmepphS3uGLV9lUPaRr/wsHzjqW2mpfjcSxfIheazIyLvrpS7v/+irNkr0rg3dzCMpgV0J/6PBAFwJ65KB87pvoeWyO13+puhhu2T3IFTZ0oIRArkEQDr4BXLqoW9lYplilsJgB32AgNgvcLXbxG5ZZbI4JVOsOmEo6d4gttULaCd/X7PWinytNNKWq+nofPi2RW5ymnn6ru9AvYA1jDoydlSu57OwQS+m0Xe+qzY/w+hUxH8lYUiX3LD6i0iX1sp8iVnX+CoAFhPN6HYbBH5kOd8Z1xv5adbRekNl+75oci5nxKZ4gRS8lFPC2kd+4ciX9JgOjAfnXNDVWmRP6taBJ2+ANKzb2utWjTk/sI8wgJP9X3B4+JWQH/Vu8dw2R6udYYAONb9N3HTZ84NgN2xat5u6+aQymzvM+b7fIQY1p5P5347IgCO8QsHOs+/8VbIhwS+DXs1O59l/TgTABf5w4SxEUAAAQQQQAABBBDofoHB9U/Ldx540w6BQ1/u3qae8Fb3WR09SvoskcG9+2RQzx1/tFx7TT2IdAO3vtFVGdwvMnHyYdL37g7p36lbPlalsQLWCcM26W+1+8Nke1oJA2Dpl8f/5Ql5drt9dt/YUdJ3YEj27B8l48ftlu3vZgiAa1XMOnBVxhwkMv2chXJ5ZPWrY/fmZLn602fJ9N2r5ZFHX5AVmxy7g8bK1FPPlD85fLV858HNMv2Tl8iFh1ebPly1gN2qypjRIccedZJ84SKnVbOnulYOGiVj+oZkz+4hEWuUHPuxBbJwpr/SOHQPYE/FsdlL9vcPk3G73PX0t1sOn7i7fvVnRwb3yZ799aPHTJsp117qr2QeePkxueMJO7CXg8bKlCMOk7G7tsn63+2TwWknyy2XzrbD+41jZepRh8lY2Sdb1m0zbaA1VL3hUrvdcmPAn+z5yCMANtXndz8sS7eKyMTj5Yar58pE79r0VWXipEnyezIgazYPyOC4o+X6686qB8De506HOPUiueFM728fRLRzHjpMpk8eK336iwbr7TbQ9fbYYZ+rAVnxwCJZtNbentV8dmRIBvcOmc+61zX6c0kA3In/60AA3ImrwpwQQKAUAQLgOnNhFcDuJSLC0eB1k1QAu0ObENj8xa6r/v6NIgvd/TbdIFd/5/PK+v369vt1vh32PRMer/Q8jrO10jZYv+28X1AAfMSTgY/DrJBqXycE9h7p7v+r32sWAIcFSWackEAt2Eb5Um/g6wlO3XkE9zn17jVbZiveqEpUd56+ANINRa8Suf8eEXfOvnt1TmxoKx3W1tqzD62epiZrvi0i3gDYWaP/tiVkD94ifxpmCIB1WrHuP/BcqONNm0XO0B3QPVXrtdbgOvBskU2TRQ7/lcgm9xcd9PvBZyywX3FtDOf7T2qlsZo6L1/oXqSrO3bIZ0Lf8j37EWtgQmDPHMNC3eDe2898VuS2b4s0beldxn1zDQQQQAABBBBAAAEEEOh8gf39svypF2T56ztk61479NGQb8z4CXLiR06S82dNcSovh2T76mflgcXrZcOAc9xB42T6nNmy4PQZ9epFX+B2mlwor8uiX20zwVPfIYfJifPOlgUznQpir06tKjOssjZpACwi+9fJ0kXLZen63Sa46hs/SeadN1/GLf+xLFqbIQDWCtrXFsu/Pr5RtmqAaY2SOQuukAXHNFvqfbJm2WNy70tDMuOMU+Rjs9xKa5HBnevk5WdfksdXi8y9+AKZ71ZcNhmuFgBHHRNofT245UW59+FV8sY2J9SbMEnmnTtf5oVcKzQA1utoC+Fnn5PFK7bY963h4IRJcvqZp8n8GSHr6ZtbPQD2frtv9FiZeORkmXvqh2XO4eEtrwd++5z8ZOkaWePMXUP3iUdOl/nnzZWZh1ZlzbJF8pOXBmTAeXb7Ro+TaSf5n8nQCu8Ez0c+AbDu+/uc3P7D1f5W11tXygOPviKvaqhtqvE1YJ8i8y44U+ZOcqpvDZqnbbvYewH7K64bK4BXLFoij68dqAXtfeMOkxPmzpX/erL7mY76XO2T/heXyAPPbKn9TNDP7gmnes/VOdECuvN/wNdnSADcTavFXBFAIFcBAmDP/xjEaCsdhu8GuJGFvu5JMQPgLAucNsROek3vdYquAE46tzjHl+UUZy4cgwACOQrECfRzvBxDIYAAAggggAACCCCAAAJegaiWys2UBp5fJN9cusNUR9549VwZXwhpvTJx6rzL5NqPNNlnt4DrD25/TZY+9bqs0EpMN0QdO06mHX+8nH/WTJli2m/zap9Ae5+P9t03Vx4JAgTAI2GVuUcEEAgVKCQAtizTtiZ+C2idmrNfcMgs3YCxXnOadQ9g+3rBV9pQMH0AbM8gZe4cup5p7yHpxyN+AOwduWVEnnQaqY8vyyn1BDkRAQRSCbRtL+lUs+UkBBBAAAEEEEAAAQQQ6DWBxAHwzpVy913B/UWzqKySB+7bJWd84sOeUHWfrHlykdz90m6RlnvWZrk253a+AM9H568RM8xbgAA4b1HGQwCBrhEgAK4vVdpQkADY87g3zXgJgLvmBwMTRaALBLT985qPevYHd1qNl97mugusmCICCCCAAAIIIIAAAgiUIxA3AO5ftkj+9eXdtb2E/fuLZpmr05rWu0fu/n2yZ1DHrMqUM+fL9adOyXIBzu1qAZ6Prl4+Jp9KgAA4FRsnIYBALwgUFgAPiwwPO1W9w/Xgz7Kseu2t+76BTFYBrKFryzhxWKtrfXXDniXLvwLYvosmr4g3qQAu/5OUNuwvf6ZcEQEEogQa9l8WEcJfnhcEEEAAAQQQQAABBBBop0DcAHjr0vvljud3i/SNkikzT5Qrzp3p20s4/T0MyBvLnpPFr2yRfne/Ymdv1bnnnCLzprXaszb9lTmzGwR4PrphlZhjvgIEwPl6MhoCCHSRQE8HwNpeWeIHwLpsaYLByHbIweeAALhjPhlp1rljJs9EEEAAAQQQQAABBBBAAAEEEEAAAQQQQAABBFoKEAC3JOIABBDoVYE8A2AToOo/ugdw4grg6L1wa7mpp2I4VgVwSQGwNzimArjZJ6VlzXZpHzMC4NKouRACCCCAAAIIIIAAAggggAACCCCAAAIIINAWAQLgtrBzUQQQ6AQBAmD/KqQNBmPtA0wFcCc88mYOade5Y26AiSCAAAIIIIAAAggggAACCCCAAAIIIIAAAgg0FSAA5gFBAIERK1BoAKz7+mpNcJM9gL1hXNReuMVUAOuVS94HOLIANnr/46QPZlnBZmTb6zQl0ElvMofjy3LKYaoMgQACCCCAAAIIIIAAAggggAACCCCAAAIIIJBCgAA4BRqnIIBAbwgQAPvXMW0wGGsfYALgjvnQpF3njrkBJoIAAggggAACCCCAAAIIIIAAAggggAACCCDQVIAAmAcEAQRGrEA3B8C6aK12lTUVyJGv3qsAdm+16ICTCuAR+yODG0cAAQQQQAABBBBAAAEEEEAAAQQQQAABBLpCgAC4K5aJSSKAQBECBMB+1bTBaadUABMAx/uUpF3neKNzFAIIIIAAAggggAACCCCAAAIIIIAAAggggEC7BQiA270CXB8BBNomkHcArPv9VizL7P077O4BrHW6TrGtZVn1ql1nb2A3jLP/bKzK9e4BrFB6nHtOqwpgc3xkFXDJFcA6mdAJ57cHsPsgFR1wpgu846xWOR+Fon3KuQuuggACCCCAAAIIIIAAAggggAACCCCAAAIIIBAlQADMs4EAAiNWgADYv/Rpg8FYgSgBcMd8ztKuc8fcABNBAAEEEEAAAQQQQAABBBBAAAEEEEAAAQQQaCpAAMwDggACI1agEwJgxa9X9VIBnMfDWHTAGSvwblhKKoDzWFvGQAABBBBAAAEEEEAAAQQQQAABBBBAAAEEEGgtQADc2ogjEECgRwUKD4C1rbO2em7SArp9AbBeOZ820LEC0fDLmSfLdL/O8UUA3ByzaJ8cl5KhEEAAAQQQQAABBBBAAAEEEEAAAQQQQAABBFIIEACnQOMUBBDoDQECYALgNE9yrMCbCuA0tJyDAAIIIIAAAggggAACCCCAAAIIIIAAAgggkIMAAXAOiAyBAALdKdB5AbA6+pPD2t+0ktjXLto2b9VYuCKtymv9I6StDnXPazqfiDe7rQLY97Q3m7zvflutVHmfobRrXN4MuRICCCCAAAIIIIAAAggggAACCCCAAAIIIIBAFgEC4Cx6nIsAAl0tQADcGCGnDQcJgEM+CgTAXf3zgckjgAACCCCAAAIIIIAAAggggAACCCCAAALdKkAA3K0rx7wRQCCzQGkBsJOzWpZVr9h1Knr1LQ1P68FreyuA3fkkxSUAJgBO+sxwPAIIIIAAAggggAACCCCAAAIIIIAAAggggEAxAgTAxbgyKgIIdIFAqwDYEss0Wa5YdkBr2ilXRDS7tSznCw1wLT1OD9VjLbsvsx6q7YHdoNecEx4A66n6njOITy7YAtp/bOsW0Hp88zbQJe4DTAvojvhUpK3y7ojJMwkEEEAAAQQQQAABBBBAAAEEEEAAAQQQQACBlgIEwC2JOAABBHpVgABYV5YAONPzzR7Amfg4GQEEEEAAAQQQQAABBBBAAAEEEEAAAQQQQCB/AQLg/E0ZEQEEukTAGwBb1aoW7Ypl6Z/DYlUtqVABHHslvVWlEYW+TcqV7TPyqkzNa5xYN08AHIuJgxBAAAEEEEAAAQQQQAABBBBAAAEEEEAAAQTKEyAALs+aKyGAQIcJEADrgrS/AtidQ17BbV7jxHpcCYBjMXEQAggggAACCCCAAAIIIIAAAggggAACCCCAQHkCBMDlWXMlBBDoMAECYALgzI8kAXBmQgZAAAEEEEAAAQQQQAABBBBAAAEEEEAAAQQQyFeAADhf3JY2SgAAIABJREFUT0ZDAIEuEggGwJbOvWKJVZFaC2htB13Rb1Qqov+n/xke1lbRzhfmFHOmecN8Paz/GRbLfF2vsLUqVr3e1vN9c1kdvxYm1s+pfeU53n9sk87KzlqYeUe+whs2p6midc+hBbSD7YOIVCn9E5NmbUufJBdEAAEEEEAAAQQQQAABBBBAAAEEEEAAAQQQSC1AAJyajhMRQKDbBQiAdQUJgDM9x1QAZ+LjZAQQQAABBBBAAAEEEEAAAQQQQAABBBBAAIH8BQiA8zdlRAQQ6BIBAmAC4MyPKgFwZkIGQAABBBBAAAEEEEAAAQQQQAABBBBAAAEEEMhXgAA4X09GQwCBLhLwBsDaurlq2jBb2u3ZtH2uiN0OurdbQIeHwGnaBLdsAe0+Gw1Fx/Y30lwz7HHLa5xYjzIBcCwmDkIAAQQQQAABBBBAAAEEEEAAAQQQQAABBBAoT4AAuDxrroQAAh0mQADsLkhjG+g0ISoBcOABZw/gDvvEMx0EEEAAAQQQQAABBBBAAAEEEEAAAQQQQGBkCBAAj4x15i4RQCBEoOgAWAPRiue6VsWq77g77A9dzbG1atL6e7WvPMf7j43axdd/w/6ZBDEIgFN/QKgATk3HiQgggAACCCCAAAIIIIAAAggggAACCCCAAALFCBAAF+PKqAgg0AUCUQGwtn3W3s/aAroiw6YFtGVZ2qTY/EdTXNMW2glltX20eQ3rsZZ5f1jPSxgA6xB2CNydAbA7/8Y4OfAwRBzQLEtN8jilqV5OMr7vWALg1HSciAACCCCAAAIIIIAAAggggAACCCCAAAIIIFCMAAFwMa6MigACXSBAAOwuUj4VwDqahq8EwI4rLaC74KcAU0QAAQQQQAABBBBAAAEEEEAAAQQQQAABBHpPgAC499aUO0IAgZgCb6xZJ31VrfKtmMpdy7Rh1j+TVgA7jZ6DFcBm5PpLxw5r6ewGp/U/qQCOuYShh1EB3FyvVJ8sC8m5CCCAAAIIIIAAAggggAACCCCAAAIIIIAAAqkECIBTsXESAgj0goAGwFVt9VzRFs/VpgGwve+uJdrxVzs/+1tAxwyALcvtGl1rH+06uqFccB/gqD2A9TxvkNeq6raMPYBjz6ngFtBB00KfVVpAF8rL4AgggAACCCCAAAIIIIAAAggggAACCCCAAALJBQiAk5txBgII9IgAAbC7kPm2gI4e1XmHALitnyAqgNvKz8URQAABBBBAAAEEEEAAAQQQQAABBBBAAIHCBQiACyfmAggg0KkCBMAEwJmfTSqAMxMyAAIIIIAAAggggAACCCCAAAIIIIAAAggggEC+AgTA+XoyGgIIdJFA4gDY7BVcMW2cLfOnXcpq2kHrK2QPYPM9JyTUfYadUzq+BbS5r2bhZsQ6x2pL3UMVwE3v13efrZp0l/fBSbOu5c2OKyGAAAIIIIAAAggggAACCCCAAAIIIIAAAghkFSAAzirI+Qgg0LUCBMDu0oWHk2mCQgJgz8eBALhrfzYwcQQQQAABBBBAAAEEEEAAAQQQQAABBBBAoJsFCIC7efWYOwIIZBIgACYAzvQABaqkG2J0AuCsvJyPAAIIIIAAAggggAACCCCAAAIIIIAAAgggkEKAADgFGqcggEBvCBAAEwBnfZJpAZ1VkPMRQAABBBBAAAEEEEAAAQQQQAABBBBAAAEE8hYgAM5blPEQQKBrBNoSAKuOVobWNgO2ubxBov21XT5aKyL1HF/bU9izR2+cHWYr4uxVHLpCjSPQArr1o0wA3NqIIxBAAAEEEEAAAQQQQAABBBBAAAEEEEAAAQTKFSAALtebqyGAQAcJEAB7F4MAOM2jSQCcRo1zEEAAAQQQQAABBBBAAAEEEEAAAQQQQAABBIoUIAAuUpexEUCgowUIgAmAsz6gBMBZBTkfAQQQQAABBBBAAAEEEEAAAQQQQAABBBBAIG8BAuC8RRkPAQS6RuCN366VatUy7ZctqypWpSKViiWWdkq2tGGyJRUZlop+re9pC2XTRVmPr5g2zlo3q++b17Aea5m+zfqOOd5p3WzOtyy7pXOsFtD2gc1aQJuZOG2gu6oFtGvQ8KTYd5Gm9XTYQ5fXOM0eaALgrvm4M1EEEEAAAQQQQAABBBBAAAEEEEAAAQQQQGDECBAAj5il5kYRQCAoQADsFSmxBbReNjSxJgAu41NaRjBexn1wDQQQQAABBBBAAAEEEEAAAQQQQAABBBBAAIFwgY4KgHfu2iuDQ0O+mY46qM/8fd/+wVjf76tW5ZCDR3fMeq9+8y35y1vvkJs/92k59eQTYs0rzTmxBs7poF+8+Kp85Vvfl7+/9QaZcfQROY3KMAiUL0AA7DUnAE7zBFIBnEaNcxBAAAEEEEAAAQQQQAABBBBAAAEEEEAAAQSKFOioAPjXr66XXbv3+u53/GGHmL9v37Ez1vcPHjtaZp0wLZHZ3/3zvbJ5y3b58k3XyJgxoxKd2+rgNGFunHP27Nknt9x2l5w653j55MVnt5pGru8TAOfKyWBtFCAA9uITAKd5FAmA06hxDgIIIIAAAggggAACCCCAAAIIIIAAAggggECRAgTAIlJkAFzU4rUzAC7qnhgXgbIF3ADY7P1b9h7A9kbBtZc3SKx/HX8PYB2o1T7AZk/iyFc+AbAOH2tfYlpAl/24hz5rbZsEF0YAAQQQQAABBBBAAAEEEEAAAQQQQAABBBAoTIAAmAC4sIeLgRHodAECYO8KEQCneV6pAE6jxjkIIIAAAggggAACCCCAAAIIIIAAAggggAACRQoQAMcMgLVKWF/z/vBEuenL/2y+PurI98vtX/kLWf3mxtr3Djv0EN/euNrO+da/u0tu/atrfPvlahtldxwd67Zb/ry2R3DUOe6DEDxXv/+JC86Q//2aT4S2hQ6O560eXrths/z0sWcaztcxb7/zJ+aSwXvS6+t7eu8Txr+vyOeTsREoVIAA2MtLAJzmYSMATqPGOQgggAACCCCAAAIIIIAAAggggAACCCCAAAJFChAAJwiA3aD0r/78ctm2/T258eZ/NGtz3DFT5Qv/25Vm/+BgO+mwMPe+h5bIXff+rBYUB/f8bRUA6zXDWkBHtYWOCoDfG9gpH513Sm0PYff85154RW687o/N993v6TXdPZIJgIv8SDJ2mQIEwATAWZ83AuCsgpyPAAIIIIAAAggggAACCCCAAAIIIIAAAgggkLcAAXCCAHjFytW+qtdgkKuLEwxbg393g+NLPn5mLXjV83SsX6x4zYSsG/q3hlYNexc/jwDYG+rq12Fhr35fA9+vfOv7tcCaADjvjyHjtUuAANgrTwVwmueQADiNGucggAACCCCAAAIIIIAAAggggAACCCCAAAIIFCnQUQFwkTfabOxg1W7YsW4LaK3+dV9hQWirADgYpoaNpSFxWNto77zyCIAnTxov3vtpVkH8l7feITd/7tOmTTUBcLueVK6bt4AGwH1VSzTEq1hVsfTPiiVWRUT/qyKWVGRYKvq1vicV0f8MD4tY5n0RjU31axOfDuuxlvnmsJ7nHiziXMOyj3OOrf/Fft/7sv+uo3iOd770Hts0gAyA2TOOejUGwHpkcF5x1sA9J3xE937CRrLPSHPNsNHyGqfZPRMAx3kiOAYBBBBAAAEEEEAAAQQQQAABBBBAAAEEEECgTIGOCoB//ep62bV7r+/+xx92iPn79h07Y33/4LGjZdYJ0xIZlh0Ae/f+9U7U3VO4rAD41DnH+6qQCYATPTYc3AMCBMDeRSQATvNIEwCnUeMcBBBAAAEEEEAAAQQQQAABBBBAAAEEEEAAgSIFCIATtIDWhcijAvj2O3/iayUdXOCy9gAmAC7yo8XY3SBAAEwAnPU5JQDOKsj5CCCAAAIIIIAAAggggAACCCCAAAIIIIAAAnkLEACXHAC7ewDfeN0fm3bKYa+0AbCOFdWq2ruHb1SlLxXAeX+8GK/TBQiACYCzPqMEwFkFOR8BBBBAAAEEEEAAAQQQQAABBBBAAAEEEEAgbwEC4JIDYF3A+x5aInfd+zP5+1tvkBlHH2HWVPfVXbfxbdOSOU4AHDfsdQPnHe/trF3v/2fvfmAkPesDzz9VPZ4Zz9gzE+OxN/7HP0OMlz1hVvI5RAHtsgfskoNkhUkuQZrNcjpfWOQD2Svt6WJnsE86adccnEVQuCyKvEtQAugI8YaDbPaScArhfFrISYQ4gHH8V9hjyMzgGc+Mp7tOT3W/PdXV9XZX//rXdvU7n1rL9nS9z6/e+tTTXolv3noF4OxfI/O2q0BGAK7vvd4jeL17ANfj+nNzG7wH8MhdgOuNh5cebfcArk+ved/deq4bvA9w5D66U92XuPVEB+4BvMW/UJHPdItPyXgCBAgQIECAAAECBAgQIECAAAECBAgQSBQQgF+EAFw/vxqB61dBN4/m/r+XHLh46gBcQ/EHD3+8HDt+orzzrW9Y/nrqehXwF7781eHoOrdebVxf6/Bth4bBWQBO/A0yalsLdCEA1w9gquC69EnNfgCu7ydnW70QoXP6K4DH39N6qT7HYNKUF8Jl687eZAIECBAgQIAAAQIECBAgQIAAAQIECBBYT0AAXk/I8wQIdFZAAF4/SkZi4VRBeo3+KQBv7a9c5DPd2jMynQABAgQIECBAgAABAgQIECBAgAABAgQyBWYqAJ84ebqcnZ9f8f52XrBj+Oczz5+d6uc75ubK3j27Mo3MIkCgowIC8PgHu7rKRmKhALzkuuZFvq4A7uh/VrwtAgQIECBAgAABAgQIECBAgAABAgQIvOgCMxWAX3QNJ0CAwHklIAALwJvd8L4CerOC1hMgQIAAAQIECBAgQIAAAQIECBAgQIBAtoAAnC1qHgEC20ZAABaAN7tZBeDNClpPgAABAgQIECBAgAABAgQIECBAgAABAtkCAnC2qHkECGwbgfYA3CulX0qv9EuvDEqv3y/1vrS9MvxbGQxK6fcX/6UGwF6/HlUW/9zvl/qHQV3XHLwkMnyuucFtHTJcs/iP8a9abv5c5ywed+4rg9uOHRnX+hkMz6n14SugN7p5BeCNijmeAAECBAgQIECAAAECBAgQIECAAAECBLZaQADeamHzCRCYWQEBePyjEYA3ulkF4I2KOZ4AAQIECBAgQIAAAQIECBAgQIAAAQIEtlpAAN5qYfMJEJhZAQFYAN7s5hSANytoPQECBAgQIECAAAECBAgQIECAAAECBAhkCwjA2aLmESCwbQQEYAF4s5tVAN6soPUECBAgQIAAAQIECBAgQIAAAQIECBAgkC0gAGeLmkeAwLYREIAF4M1uVgF4s4LWEyBAgAABAgQIECBAgAABAgQIECBAgEC2gACcLWoeAQLbRmC6AFxKr98rvV4pvTL8WxkMSun3F/+lBsD6fH0M6p/7/VIG9a/B4vH14KXH8Lk6aPHgpX8u/mM0JC4f3+sN56w4fsKx42tX38n33EcyPKfWh3sAb3TzCsAbFXM8AQIECBAgQIAAAQIECBAgQIAAAQIECGy1gAC81cLmEyAwswKrA3B/GGL7NdLWVlv6w1z64gbgyleL8khIbiLykqwAPHmLTYrq2ZtRAM4WNY8AAQIECBAgQIAAAQIECBAgQIAAAQIENisgAG9W0HoCBLatgAA8/tG5Anijm1kA3qiY4wkQIECAAAECBAgQIECAAAECBAgQIEBgqwUE4K0WNp8AgZkVEIAF4M1uTgF4s4LWEyBAgAABAgQIECBAgAABAgQIECBAgEC2gACcLWoeAQLbRkAAFoA3u1kF4M0KWk+AAAECBAgQIECAAAECBAgQIECAAAEC2QICcLaoeQQIbBsBAVgA3uxmFYA3K2g9AQIECBAgQIAAAQIECBAgQIAAAQIECGQLCMDZouYRILBtBARgAXizm1UA3qyg9QQIECBAgAABAgQIECBAgAABAgQIECCQLSAAZ4uaR4DAthFYOwD3yuL/K6XX75Ua+uq/178NBqX0+4v/Mvx5/fdS/zgovX6/lEH9a7C4uh689KjP1T8No2Hz86WnR0Pi8vG93vD4xYEjc+r6kcf42nNHrv4olt5Fy2e0euWk81rvA14zijaL1zjJsbe33su1Ph85942+mAC8UTHHEyBAgAABAgQIECBAgAABAgQIECBAgMBWCwjAWy1sPgECMysgAI9/NALwRjerALxRMccTIECAAAECBAgQIECAAAECBAgQIECAwFYLCMBbLWw+AQIzKyAAC8Cb3ZwC8GYFrSdAgAABAgQIECBAgAABAgQIECBAgACBbAEBOFvUPAIEto2AACwAb3azCsCbFbSeAAECBAgQIECAAAECBAgQIECAAAECBLIFBOBsUfMIENg2AgKwALzZzSoAb1bQegIECBAgQIAAAQIECBAgQIAAAQIECBDIFhCAs0XNI0Bg2wgIwALwZjerALxZQesJECBAgAABAgQIECBAgAABAgQIECBAIFtAAM4WNY8AgW0jIAALwJvdrALwZgWtJ0CAAAECBAgQIECAAAECBAgQIECAAIFsAQE4W9Q8AgS2jYAALABvdrMKwJsVtJ4AAQIECBAgQIAAAQIECBAgQIAAAQIEsgUE4GxR8wgQ2DYCGQG4vtlev196vVIGg8Hw38ug/jUovTL84bJHfa7+aRgNR35efzgaEpsF9WeLq+vAkTl1/dhjfP25o1d/HMPzan2sXjnp3Kb5kM+d/4Zebvh+o6856ZUyZ635vid8LsvHr2Jd6xOaRndrjnnBrLbm9E0lQIAAAQIECBAgQIAAAQIECBAgQIAAgdohBrVYeBAgQOA8FBCAJ33oAnD4V0EADtNZSIAAAQIECBAgQIAAAQIECBAgQIAAAQJ5AgJwnqVJBAhsMwEBWABO3bICcCqnYQQIECBAgAABAgQIECBAgAABAgQIECAQExCAY25WESDQAQEBWABO3cYCcCqnYQQIECBAgAABAgQIECBAgAABAgQIECAQExCAY25WESDQAQEBWABO3cYCcCqnYQQIECBAgAABAgQIECBAgAABAgQIECAQExCAY25WESDQAQEBWABO3cYCcCqnYQQIECBAgAABAgQIECBAgAABAgQIECAQExCAY25WESDQAQEBWABO3cYCcCqnYQQIECBAgAABAgQIECBAgAABAgQIECAQExCAY25WESDQAQEBWABO3cYCcCqnYQQIECBAgAABAgQIECBAgAABAgQIECAQExCAY25WESDQAQEBWABO3cYCcCqnYQQIECBAgAABAgQIECBAgAABAgQIECAQExCAY25WESDQAYH1A3C/9Mqg9Pq90uv1Sq++514pg0Ep/f7Sv9Qf9fultr/BoB7bL2VQ/xqU4Yp68NKjPlf/VGeN/rz+cPizSY/m54OFc3MmHDu+/tyrrh669E5aPsHVK1vPbZ09UNetdR7D5RMPGLR7BPZd9Pw3/FIC8IbJLCBAgAABAgQIECBAgAABAgQIECBAgACBfAEBON/URAIEtomAADzpgxKAw9tXAA7TWUiAAAECBAgQIECAAAECBAgQIECAAAECeQICcJ6lSQQIbDMBAVgATt2yAnAqp2EECBAgQIAAAQIECBAgQIAAAQIECBAgEBMQgGNuVhEg0AEBAVgATt3GAnAqp2EECBAgQIAAAQIECBAgQIAAAQIECBAgEBMQgGNuVhEg0AEBAVgATt3GAnAqp2EECBAgQIAAAQIECBAgQIAAAQIECBAgEBMQgGNuVhEg0AEBAVgATt3GAnAqp2EECBAgQIAAAQIECBAgQIAAAQIECBAgEBMQgGNuVhEg0AEBAVgATt3GAnAqp2EECBAgQIAAAQIECBAgQIAAAQIECBAgEBMQgGNuVhEg0AEBAVgATt3GAnAqp2EECBAgQIAAAQIECBAgQIAAAQIECBAgEBMQgGNuVhEg0AEBAVgATt3GAnAqp2EECBAgQIAAAQIECBAgQIAAAQIECBAgEBMQgGNuVhEg0AEBAVgATt3GAnAqp2EECBAgQIAAAQIECBAgQIAAAQIECBAgEBMQgGNuVhEg0AEBAVgATt3GAnAqp2EECBAgQIAAAQIECBAgQIAAAQIECBAgEBMQgGNuVhEg0AEBAVgATt3GAnAqp2EECBAgQIAAAQIECBAgQIAAAQIECBAgEBMQgGNuVhEg0AGBcwG4X3r9udLv9Uqv1y/9Xin1b73SL70yKL367/W50iv1r8FgUPr1oMFgqNDr98uw/Q3qsf3hjwd13eLBy1LD55b+VA9ffgzKcP7ER/Pz4Zyl15tw7Pj6c6+6eurwvFofq1e2nts6e2B0Xev5THxi0O4R2HfR89/wSwnAGyazgAABAgQIECBAgAABAgQIECBAgAABAgTyBQTgfFMTCRDYJgICcNsHtbLKRgOqADziuyp0r5XoX7xfoOhn/eKdsVcmQIAAAQIECBAgQIAAAQIECBAgQIAAgXEBAdieIEDgvBUQgAXg1M3vCuBUTsMIECBAgAABAgQIECBAgAABAgQIECBAICYwcwF4YWGhPHvy9PArVjf6qFcuXbRnV+n3+xtd6ngCBM5DAQFYAE7d9gJwKqdhBAgQIECAAAECBAgQIECAAAECBAgQIBATmKkA/LdHny2PPHakPH92PvZuSikX7JgrL736YPmxAxeFZ1hIgMD5ISAAC8CpO10ATuU0jAABAgQIECBAgAABAgQIECBAgAABAgRiAjMVgP/q24+XZ0+cir2TkVUH9u8tr3rFj296jgEECHRbQAAWgFN3uACcymkYAQIECBAgQIAAAQIECBAgQIAAAQIECMQEZioA/+WDj5WTz52OvRMBeNNuBhA43wQEYAE4dc8LwKmchhEgQIAAAQIECBAgQIAAAQIECBAgQIBATEAALqV8+BOfHerddsvNqxQf+IsHy72f/Hy59+73l0sOXDx8fq3jYx+DVQQIvBgCAnCb+sp7sNf7q0ceo+ta7+o+8YlBib7mpPPMnLWmgwAc2SbWECBAgAABAgQIECBAgAABAgQIECBAgECywEwF4Icfeao8d+rMpt/ivov3lKuueMnUcwTgqakcSKBTAgJw28cpAIc2ugAcYrOIAAECBAgQIECAAAECBAgQIECAAAECBHIFZioA57616acJwNNbOZJAlwQEYAE4dT8LwKmchhEgQIAAAQIECBAgQIAAAQIECBAgQIBATGCmAvD3nz5aTp95fvmd1K/tvOTAReWCC+bKkWeOl/mFheXnLtgxVy67dH85dfr58sOjz5bB4NwVa3sv3FUufcm+qUWmDcA/PPqj8sHDHy/Hjp9Ynn3T668vd91+qOzevbOcOnWm3HnPfeVrX//W8PnR5+qfm9f56f/y75Xb7/rE8ox77ryl3Pi664Z/rl85Pfpcc9A1V1626muov/Dlrw6fHn9u6jfuQALnuYAA3LYBXAEc+tUQgENsFhEgQIAAAQIECBAgQIAAAQIECBAgQIBArsBMBeC/fPCxcvK508vvsAbgq698yTCuPvTw98v8/LkAvHPnjvLqV15Rjv/oZHnsiR+sCMAH9u8tr3rFj08tNW0AXusewDUO33rHx8oNr712+V7Cde5TR44uB+L65xpt3/nWN6w45hvf/O6KuDt64t/9myeH0fmOD7xnGImbyFyPacLz5/7gK+X3vvRnrTOmhnAggfNMQABu+8AF4NCvggAcYrOIAAECBAgQIECAAAECBAgQIECAAAECBHIFBOCRK3Nvu+XmVbr1itx7P/n5VVff1gNHj58UYZsofOt7f24Yb2sAHo+944F39ASa2Hv5wQPLr1XP5+6Pfqp85PD7yrUvu2J4eHPcjTf8RHnX29+Yu0NMI9BhAQG47cMVgEPbXgAOsVlEgAABAgQIECBAgAABAgQIECBAgAABArkCAnBCAJ4UaieF2UlXGjeR+Gff9lOr4u2kqDx+VXGzHda6ijl3y5hGoDsCArAAnLqbBeBUTsMIECBAgAABAgQIECBAgAABAgQIECBAICYgACcG4Obev+MfRb0CuF6Zu5EA3FwZfOjmt6wIw83XSE/6uEe/Wjq2HawicH4JCMACcOqOF4BTOQ0jQIAAAQIECBAgQIAAAQIECBAgQIAAgZiAAJwYgNf7CuZpA/Ck+/w2H68rfWMb3SoCkwQEYAE49TdDAE7lNIwAAQIECBAgQIAAAQIECBAgQIAAAQIEYgICcCll0n1+1wqukyJs/brmB77x1+Wu2w+V3bt3Tvw0pg3AddZ9n/3DFff5bQauda6xLWAVgfNXQAAWgFN3vwCcymkYAQIECBAgQIAAAQIECBAgQIAAAQIECMQEBOBSStsVt20hdlLsbe7le8Nrry233XLz8NOoc3/9vi+UX/75t5VLDlw81VdAt331c/Pxtp3rb/z7+8s/+um/X6592RWxnWAVgfNQQAAWgFO3vQCcymkYAQIECBAgQIAAAQIECBAgQIAAAQIECMQEBOAltyasjt7H95orLyv33v3+YbwdfTSx99Enni43vf765at+R3/eHN/c/7f+eb0rgH/mzTeVO++5r0y6l/D+fXuXrwiedK7u/xv7BbDq/BZYDMBzpdfrlV5/rvTrP3v90u+VUv/WK/3SK4PSq/9enyu9Uv8aDAalXw8aVL/6fH8IuXhsvwwG9aeDxePrH5Yew+eafx+jHx476dFExeGcxdX1XCYfeu7n51519ZGtr7V86OrVba+51g4aXdN6Pi1PrNVSN7prI+e+0ddY+mDal616n2t9QqFXT1n0glmlnK0hBAgQIECAAAECBAgQIECAAAECBAgQIDCxFwxqyZiRx199+/Hy7IlTy2dT/4foq698yfArlR96+Ptlfn5h+bmdO3eUV7/yinL8RyfLY0/8YBhkmseB/XvLq17x4zPyrpwGAQKzKiAAt30yAnBoz7oCOMRmEQECBAgQIECAAAECBAgQIECAAAECBAjkCszUFcB/e/TZ8shjR8rzZ+eH7zISgC/YMVdeevVIx5LlAAAgAElEQVTB8mMHLsqVMo0Agc4JCMACcOqmFoBTOQ0jQIAAAQIECBAgQIAAAQIECBAgQIAAgZjATAXg+hYWFhbKsydPD6/orV9TeuGFO8tcv7f8s+ZtzvX6Ze/eXeXs/EJ57rkzi1+32uuVi/bsKv2lr2ONkVhFgMD5IiAAC8Cpe10ATuU0jAABAgQIECBAgAABAgQIECBAgAABAgRiAjMXgGNvwyoCBAhsXEAAFoA3vmvWWCEAp3IaRoAAAQIECBAgQIAAAQIECBAgQIAAAQIxAQE45mYVAQIdEBCABeDUbSwAp3IaRoAAAQIECBAgQIAAAQIECBAgQIAAAQIxAQE45mYVAQIdEBCABeDUbSwAp3IaRoAAAQIECBAgQIAAAQIECBAgQIAAAQIxAQE45mYVAQIdEBCABeDUbSwAp3IaRoAAAQIECBAgQIAAAQIECBAgQIAAAQIxAQE45mYVAQIdEBCABeDUbSwAp3IaRoAAAQIECBAgQIAAAQIECBAgQIAAAQIxAQE45mYVAQIdEBCABeDUbSwAp3IaRoAAAQIECBAgQIAAAQIECBAgQIAAAQIxAQE45mYVAQIdEBCABeDUbSwAp3IaRoAAAQIECBAgQIAAAQIECBAgQIAAAQIxAQE45mYVAQIdEBCABeDUbSwAp3IaRoAAAQIECBAgQIAAAQIECBAgQIAAAQIxAQE45mYVAQIdEBCABeDUbSwAp3IaRoAAAQIECBAgQIAAAQIECBAgQIAAAQIxAQE45mYVAQIdEBCABeDUbSwAp3IaRoAAAQIECBAgQIAAAQIECBAgQIAAAQIxAQE45mYVAQIdEBCABeDUbSwAp3IaRoAAAQIECBAgQIAAAQIECBAgQIAAAQIxAQE45mYVAQIdEBCABeDUbSwAp3IaRoAAAQIECBAgQIAAAQIECBAgQIAAAQIxAQE45mYVAQIdEBCABeDUbSwAp3IaRoAAAQIECBAgQIAAAQIECBAgQIAAAQIxAQE45mYVAQIdEBCABeDUbSwAp3IaRoAAAQIECBAgQIAAAQIECBAgQIAAAQIxAQE45mYVAQIdEBCABeDUbSwAp3IaRoAAAQIECBAgQIAAAQIECBAgQIAAAQIxAQE45mYVAQIdEBCABeDUbSwAp3IaRoAAAQIECBAgQIAAAQIECBAgQIAAAQIxAQE45mYVAQIdEBCABeDUbSwAp3IaRoAAAQIECBAgQIAAAQIECBAgQIAAAQIxAQE45mYVAQIdEBCABeDUbSwAp3IaRoAAAQIECBAgQIAAAQIECBAgQIAAAQIxAQE45mYVAQIdEBCABeDUbSwAp3IaRoAAAQIECBAgQIAAAQIECBAgQIAAAQIxAQE45mYVAQIdEBCABeDUbSwAp3IaRoAAAQIECBAgQIAAAQIECBAgQIAAAQIxAQE45mYVAQIdEBCABeDUbSwAp3IaRoAAAQIECBAgQIAAAQIECBAgQIAAAQIxAQE45mYVAQIdEBCABeDUbSwAp3IaRoAAAQIECBAgQIAAAQIECBAgQIAAAQIxAQE45mYVAQIdEBCABeDUbSwAp3IaRoAAAQIECBAgQIAAAQIECBAgQIAAAQIxgV75nwaDZumbXjYof/TP5mOTrCJAgMA2E3j40SfKjrm50uv1Sq8/V/r1n71+6fdKqX/rlX7plUHp1X+vz5VeqX8NBoPSrwcN/+tZn+8P3/nisf1S/6s6qP++ePCyyvC5pT/Vlxh9DI+d9Gii4nDO4up6LpMPPffzc6+6+sjW11o+dPXqttdc6yMfXdN6Pi1PrNVSN7rNIue+0ddY+mDal616n2t9QqFXT1n0glmlnK0hBAgQIECAAAECBAgQIECAAAECBAgQIDCxFwjANgYBAuergADc9skLwKHfCVcAh9gsIkCAAAECBAgQIECAAAECBAgQIECAAIFcAVcA53qaRoDANhIQgAXg1O0qAKdyGkaAAAECBAgQIECAAAECBAgQIECAAAECMQEBOOZmFQECHRAQgAXg1G0sAKdyGkaAAAECBAgQIECAAAECBAgQIECAAAECMQEBOOZmFQECHRAQgAXg1G0sAKdyGkaAAAECBAgQIECAAAECBAgQIECAAAECMQEBOOZmFQECHRAQgAXg1G0sAKdyGkaAAAECBAgQIECAAAECBAgQIECAAAECMQEBOOZmFQECHRAQgAXg1G0sAKdyGkaAAAECBAgQIECAAAECBAgQIECAAAECMQEBOOZmFQECHRCIB+BS+v1eKYNBKWVQev3+UKO39O/DH5f6t+aYRax63PCp4dOD0hsJhr167ITHcEo9bum1hnNaQuP4z5dfa8LcttdbOrlVK9pec61tMLqm9VxanlirpW5060XOfaOvsfgBT/4MFz/v8YlrfTqhV09Z9IJZpZytIQQIECBAgAABAgQIECBAgAABAgQIECAwSUAAti8IEDhvBQTgto9+dZyMhEEBeMRXAD5v/zvjjRMgQIAAAQIECBAgQIAAAQIECBAgQOCFFhCAX2hxr0eAwMwICMACcOpmdAVwKqdhBAgQIECAAAECBAgQIECAAAECBAgQIBATEIBjblYRINABAQFYAE7dxgJwKqdhBAgQIECAAAECBAgQIECAAAECBAgQIBATEIBjblYRINABAQFYAE7dxgJwKqdhBAgQIECAAAECBAgQIECAAAECBAgQIBATEIBjblYRINABAQFYAE7dxgJwKqdhBAgQIECAAAECBAgQIECAAAECBAgQIBATEIBjblYRINABAQFYAE7dxgJwKqdhBAgQIECAAAECBAgQIECAAAECBAgQIBATEIBjblYRINABAQFYAE7dxgJwKqdhBAgQIECAAAECBAgQIECAAAECBAgQIBATEIBjblYRINABAQFYAE7dxgJwKqdhBAgQIECAAAECBAgQIECAAAECBAgQIBATEIBjblYRINABAQFYAE7dxgJwKqdhBAgQIECAAAECBAgQIECAAAECBAgQIBATEIBjblYRINABAQFYAE7dxgJwKqdhBAgQIECAAAECBAgQIECAAAECBAgQIBATEIBjblYRINABAQFYAE7dxgJwKqdhBAgQIECAAAECBAgQIECAAAECBAgQIBATEIBjblYRINABAQFYAE7dxgJwKqdhBAgQIECAAAECBAgQIECAAAECBAgQIBATEIBjblYRINABAQFYAE7dxgJwKqdhBAgQIECAAAECBAgQIECAAAECBAgQIBATEIBjblYRINABAQFYAE7dxgJwKqdhBAgQIECAAAECBAgQIECAAAECBAgQIBATmLkAPL9QypGTpdR/bvQx1y/l4J5S6j89CBAgsJ6AANwmNFj1RG+tuNkyZnTN6olLi1qeCLxc68cdOff19s7E5wXgEJtFBAgQIECAAAECBAgQIECAAAECBAgQIJArMFMB+OG/7ZV3fLpfHjzSC7/L6w4Oyu//4kJ5+Y+15obwbAsJEOiWgADc9nkKwKGdLgCH2CwiQIAAAQIECBAgQIAAAQIECBAgQIAAgVyBmQrAv3J/v/zb/7z5y3d/7R8slF99U+AS4lzbdacdP13Kf/3bc+WqfaX89rvm1z1+qw74pc/NlcePl3L/L82Xfbu26lXWn9t4fPXRXnnDNYMX/XzWP2NHbHcBAbjtExSAQ3tbAA6xWUSAAAECBAgQIECAAAECBAgQIECAAAECuQIzFYBriPzMN+NX/zY0mwnA9Ry+/N1e+eJ75suNV23tVcTbKQD/z3/aLx/645Vxfv/ukupUX+M/PtQTfnN/x01bQ0AAFoBTf0EE4FROwwgQIECAAAECBAgQIECAAAECBAgQIEAgJiAAj7g9cbyUt39qrhw/3Ss/efXgRb0qN/Zxbt2qGmd/6+v98pX3ni1X7lt8nfqzj/55PyUCNzH8v3rlYFtcvb110ia/kAICcJu2K4BD+1AADrFZRIAAAQIECBAgQIAAAQIECBAgQIAAAQK5AjMVgH/j/+2XBx7f/BXAP/uahfKO6zZ+9e7/8a1e+d++1i///IZBuetPVsbOXPbtN21SAM68glkA3n57ogtnLAALwKn7WABO5TSMAAECBAgQIECAAAECBAgQIECAAAECBGICMxWAY28hb1X9+ufXHByUW29aGN6b93+4aaH80+tXh+Txr0P+X9+2MLwS9pdfv/Lew+sdNx496xXIb/zkjvJv3jq/4nVrmP6XX55bvvq2RvJf+Oxc+d/fMV/u/tN+qffMrY9J982ta3/+M3PLSB98w0L5fx7vrbjvcH3f9bHWfYgnBeC6ZnRtc173vHV+eL6PHivld9+9+F5G7+87fq513T/51Fw5durcZ/nu1567Anv0q8Gv2V9WXIUcfc36So3r77x7vvzCZxbPtz5GX3vcrznD8fNY6xzzdqhJ2QICcJuoK4BDe00ADrFZRIAAAQIECBAgQIAAAQIECBAgQIAAAQK5AjMVgGvIfGQpwtW3eUG/lH/w8kG58IJS/uihXjnx/Lk3f3BPKW962WJY/OOHe+X5hXPP/b3LSnnt5Ru7ArgJib9z8+K9f9vuRzv+tcejYXP03sPTHLeZAFyDaX009ypuIuoHfvJchG7iZRNh6/FNqBwPrPW5jQbg8fNvDC/eNSi/+Y6F5XsoN2H7ppGv1a7n8fjxsny/30lXADc/q+d2/y/Nl327Fr92evSrqDfzmo3PaMydZDb6K9c41/g+GrbXOsfcX1nTMgUE4DZNATi0zwTgEJtFBAgQIECAAAECBAgQIECAAAECBAgQIJArMFMBePQqyvo29+9eDJxX7hsMr4xtrtCszzVXuz54ZPXVo6Mhdlqu8eA7HoTrnLYrdMfj67THbTYAj8been6jUbX+uV7FPH5P3bYYW4/faACur/e1x3orrkyuYXr8vCZdPTxuNCkA1xj73/3+3Ip7DE+KztHXnBR71/pa60nPTXOO0+5Bx73wAgJwm7kAHNqNAnCIzSICBAgQIECAAAECBAgQIECAAAECBAgQyBUQgEtZ/nri0Vg6bZAcDcPNV0BPioKTjttMAK5fAd1crdxsidHQ+sTxxTDeXKnaHDMpYk77FdAf+uP+it03/pXT41fH1oPbgur4e5/kPX6VcPPi4187Pf4+p33N8a/WHp0/enXyJN8r9y3+dJpzzP2VNS1TQABu0xSAQ/tMAA6xWUSAAAECBAgQIECAAAECBAgQIECAAAECuQIC8NK9YEfvkztKPP71wKP34m2Oa65mHQ3A0xy31QF4UiTeTAAe/erlSdtw0lXT4/f+HV/XXK3dFoA/883F+xuPP5qvsN7Ma24kAE/6iu16TuNXrY+e5+jXbOf+2pqWJSAAt0kKwKE9JgCH2CwiQIAAAQIECBAgQIAAAQIECBAgQIAAgVwBAXiNqzjHr2htC4YC8OKmXCvGjn8V9fg2bgvA9bi1vpp6M685bQCedC/i5vynuXo691fWtEwBAbhNUwAO7TMBOMRmEQECBAgQIECAAAECBAgQIECAAAECBAjkCpz3AXg83o7yjl8tO+krjuvx41eHTnvcNF+DXOeP30N3UvQcP67+ud43ubkquXlfmfcAHt+Ka53Xf3yoV+7/pfmyb9fkDdz2lduTrqQenbCZ15w2AFf/j/55f8W9iJtzaJuR+2tq2lYJCMBtsgJwaM8JwCE2iwgQIECAAAECBAgQIECAAAECBAgQIEAgV+C8D8Bt9+ttmMfja73i82uP9cpX3nu21PvANkH10WOlNF9nXNdOc9yk6Dkp9tZ73O7fVZZfc5oAXM9tPFyOfh3z6NcTT3MV6/h5TdqGbec1KTrXc/mV++fKv37L/NBxkkXblbf//f398s9vGJQbrxpMvOq4nts0rzlNAH7wyOK9lD/wkwvlV9+0sOptT3OOub+ypmUKCMBtmgJwaJ8JwCE2iwgQIECAAAECBAgQIECAAAECBAgQIEAgV+C8DsBrfbVvwzzpCuHR+77WewT/zrvnyy98Zm7V1bbrHbdW9Pzqo4v3vn3DNYNh7LzrT/obDsB1fQ23H/rj/nDW/t2l/M7N8+XuP+2Xq/ad+2rlrQ7A9bVHQ3ljOxrMJ1nU4ybdQ3g0XrdF52lec70A/Ol3zZdf/NxcaT6L0V+9avnF98wPI/R655j7K2tapoAA3KYpAIf2mQAcYrOIAAECBAgQIECAAAECBAgQIECAAAECBHIFzusAnEXZxM1/89b58k+vXx1OmteZ9ris85o0py20buVrmk1gVgUE4LZPRgAO7VkBOMRmEQECBAgQIECAAAECBAgQIECAAAECBAjkCsxUAP6V+/vl3/7nxatV66O5yvLKfYPh/Wzr1yw3j3plbL2nbPMVvcdOnXtu9MrSXK7J09b7Gulm1bTHbeU5t92feCtf02wCsyogALd9MgJwaM8KwCE2iwgQIECAAAECBAgQIECAAAECBAgQIEAgV2CmAvDDf9sr7/h0fxh16yMSgK87OCi//4sL5eU/1n4l7mYIR+8/W+c0QXX8HrHTHreZc1lvbf365+sPDpavSp50X9z1ZnieQJcFBOC2T1cADu17ATjEZhEBAgQIECBAgAABAgQIECBAgAABAgQI5ArMVACub21+oZQjJxf/2e+V8pI9pcz1zv2sefs750q5dE8pzy+U8oOTpSwMSpnrl3KwHn/uIuJcrbF76jbDf/fdq7/6efTeu2sdl36CIwPrFcc//5m5FS/xQl8dvZXvz2wCmxUQgNsEBeDQ3hKAQ2wWESBAgAABAgQIECBAgAABAgQIECBAgECuwMwF4Ny3ZxoBAgTaBQRgATj190MATuU0jAABAgQIECBAgAABAgQIECBAgAABAgRiAgJwzM0qAgQ6ICAAC8Cp21gATuU0jAABAgQIECBAgAABAgQIECBAgAABAgRiAgJwzM0qAgQ6ICAAC8Cp21gATuU0jAABAgQIECBAgAABAgQIECBAgAABAgRiAgJwzM0qAgQ6ICAAC8Cp21gATuU0jAABAgQIECBAgAABAgQIECBAgAABAgRiAgJwzM0qAgQ6ICAAC8Cp21gATuU0jAABAgQIECBAgAABAgQIECBAgAABAgRiAgJwzM0qAgQ6ICAAC8Cp21gATuU0jAABAgQIECBAgAABAgQIECBAgAABAgRiAgJwzM0qAgQ6ICAAC8Cp21gATuU0jAABAgQIECBAgAABAgQIECBAgAABAgRiAgJwzM0qAgQ6ICAAC8Cp21gATuU0jAABAgQIECBAgAABAgQIECBAgAABAgRiAgJwzM0qAgQ6ICAAC8Cp21gATuU0jAABAgQIECBAgAABAgQIECBAgAABAgRiAgJwzM0qAgQ6ICAAC8Cp21gATuU0jAABAgQIECBAgAABAgQIECBAgAABAgRiAgJwzM0qAgQ6ICAAC8Cp21gATuU0jAABAgQIECBAgAABAgQIECBAgAABAgRiAgJwzM0qAgQ6ICAAC8Cp21gATuU0jAABAgQIECBAgAABAgQIECBAgAABAgRiAgJwzM0qAgQ6ICAAC8Cp21gATuU0jAABAgQIECBAgAABAgQIECBAgAABAgRiAgJwzM0qAgQ6ICAAC8Cp21gATuU0jAABAgQIECBAgAABAgQIECBAgAABAgRiAgJwzM0qAgQ6ICAAC8Cp21gATuU0jAABAgQIECBAgAABAgQIECBAgAABAgRiAgJwzM0qAgQ6ICAAC8Cp21gATuU0jAABAgQIECBAgAABAgQIECBAgAABAgRiAgJwzM0qAgQ6ICAAC8Cp21gATuU0jAABAgQIECBAgAABAgQIECBAgAABAgRiAgJwzM0qAgQ6ICAAC8Cp21gATuU0jAABAgQIECBAgAABAgQIECBAgAABAgRiAgJwzM0qAgQ6ICAAC8Cp21gATuU0jAABAgQIECBAgAABAgQIECBAgAABAgRiAgJwzM0qAgQ6ICAAC8Cp21gATuU0jAABAgQIECBAgAABAgQIECBAgAABAgRiAgJwzM0qAgQ6ICAAC8Cp21gATuU0jAABAgQIECBAgAABAgQIECBAgAABAgRiAgJwzM0qAgQ6ICAAC8Cp21gATuU0jAABAgQIECBAgAABAgQIECBAgAABAgRiAr3BYDCILbWKAAEC21vgO997pOyYmyu9Xq/0+nOlX//Z65d+r5T6t17pl14ZlF799/pc6ZX6V/2vZr8eNPzPZ32+P4RYPLa/+ONS/9Ycs+g0fK4hGwyGM5vHcPaEx3BKPW7ptYZzWkLj+M/X+o972+stnsLqlW2vudYOGF3Tei4tT6zVUje66yLnvtHXWPyAJ3+Gk0ln8//rfcGsQsAWESBAgAABAgQIECBAgAABAgQIECBAgMA0AgLwNEqOIUCgkwICcNvHKgCHNrwAHGKziAABAgQIECBAgAABAgQIECBAgAABAgRyBQTgXE/TCBDYRgICsACcul0F4FROwwgQIECAAAECBAgQIECAAAECBAgQIEAgJiAAx9ysIkCgAwICsACcuo0F4FROwwgQIECAAAECBAgQIECAAAECBAgQIEAgJiAAx9ysIkCgAwICsACcuo0F4FROwwgQIECAAAECBAgQIECAAAECBAgQIEAgJiAAx9ysIkCgAwICsACcuo0F4FROwwgQIECAAAECBAgQIECAAAECBAgQIEAgJiAAx9ysIkCgAwICsACcuo0F4FROwwgQIECAAAECBAgQIECAAAECBAgQIEAgJiAAx9ysIkCgAwICsACcuo0F4FROwwgQIECAAAECBAgQIECAAAECBAgQIEAgJiAAx9ysIkCgAwICsACcuo0F4FROwwgQIECAAAECBAgQIECAAAECBAgQIEAgJiAAx9ysIkCgAwICsACcuo0F4FROwwgQIECAAAECBAgQIECAAAECBAgQIEAgJiAAx9ysIkCgAwICsACcuo0F4FROwwgQIECAAAECBAgQIECAAAECBAgQIEAgJiAAx9ysIkCgAwICsACcuo0F4FROwwgQIECAAAECBAgQIECAAAECBAgQIEAgJiAAx9ysIkCgAwICsACcuo0F4FROwwgQIECAAAECBAgQIECAAAECBAgQIEAgJiAAx9ysIkCgAwICsACcuo0F4FROwwgQIECAAAECBAgQIECAAAECBAgQIEAgJiAAx9ysIkCgAwICsACcuo0F4FROwwgQIECAAAECBAgQIECAAAECBAgQIEAgJiAAx9ysIkCgAwICsACcuo0F4FROwwgQIECAAAECBAgQIECAAAECBAgQIEAgJiAAx9ysIkCgAwICsACcuo0F4FROwwgQIECAAAECBAgQIECAAAECBAgQIEAgJiAAx9ysIkCgAwICsACcuo0F4FROwwgQIECAAAECBAgQIECAAAECBAgQIEAgJiAAx9ysIkCgAwICsACcuo0F4FROwwgQIECAAAECBAgQIECAAAECBAgQIEAgJiAAx9ysIkCgAwICsACcuo0F4FROwwgQIECAAAECBAgQIECAAAECBAgQIEAgJiAAx9ysIkCgAwICsACcuo0F4FROwwgQIECAAAECBAgQIECAAAECBAgQIEAgJiAAx9ysIkCgAwICsACcuo0F4FROwwgQIECAAAECBAgQIECAAAECBAgQIEAgJiAAx9ysIkCgAwICsACcuo0F4FROwwgQIECAAAECBAgQIECAAAECBAgQIEAgJrBtAvBgMCgnTpwevsu9e3eV3lr/Q3vMwioCBM4zAQFYAE7d8gJwKqdhBAgQIECAAAECBAgQIECAAAECBAgQIBAT2BYB+Mnv/7A89fSxcnZ+fvgud8zNlcsv21+u+DuXxN61VQQIECilCMACcOovggCcymkYAQIECBAgQIAAAQIECBAgQIAAAQIECMQEZj4AP33kWHnsyWfKwsJgxTvs93vl6isuLZcd3B975zOw6tSpM+XOe+4rlx88UG675eYX7Yw+/InPlqeOHC133X6o7N6980U7Dy9M4IUWEIDbxFf+97YeFfnWhdE1qycuvXbLE5lf8hA599BeFIBDbBYRIECAAAECBAgQIECAAAECBAgQIECAQK7AzAfgv/r24+XZE6cmvuuL9u4ur3n1VakiNYb+yZ//f+Ujh99Xrn3ZFamzx4d1MQBXv/rYqqD9wF88WO795OfLvXe/v1xy4OIt/XwM776AANz2GQvAod0vAIfYLCJAgAABAgQIECBAgAABAgQIECBAgACBXIGZDsDPnTpTvv3Qk+XMmbMT3/XOnTvKq195Rbkw6arVHx79UfnVf/1b5fiPTpQbXnvtlkXM3I9wtqYJwLP1eTibtQUEYAE49XdEAE7lNIwAAQIECBAgQIAAAQIECBAgQIAAAQIEYgIzHYDPnp0vD37niVJD8KRHDb/XverKsmPHXOzdj62qV5d+7j/83+Xtb76x/Oanv+gq04CqABxAs+RFExCA2+hdARzalAJwiM0iAgQIECBAgAABAgQIECBAgAABAgQIEMgVmOkAXN/qo48/U55+5mgZjPWI+r+zX3bpgXLNVZemidR4+dKrLi8/8+abhvfmfdfP/HS58XXXrZr/uT/4yvBriJvH//j+/6b89uf/U/nZt/1Uedfb37j88/WOa74C+sYbfmK4rl6BfOsdHyu3vvfnVrzu+Ncef/dvniyHP3xf+Vf/4hfKv/vcH5Wvff1bw9e86fXXr7qPb117+12fWD6n//YX/0n55oN/s+K+w+tF2/HzbIY153H4tkPDH33w8MfLseMnll9r9HyaGW3n2rzHD91+qPzaPfeVR594ejjnnW99w/BK7PH19bn9+/au+Kru+j6+8OWvDtddc+VlAn7ab0Z3BwnAbZ+tABza9QJwiM0iAgQIECBAgAABAgQIECBAgAABAgQIEMgVmPkA/PzZ+fLwI0+VY8dPrnjn+/ftKS9/6eXlgqSrf0djZr33b423D3zjr1cF1frz+z77h8vhcTRM1nDbBOBpjttMAK6xtT6aexXX83hFbIAAACAASURBVK8/O3TzW5bPoYm/99x5y3JQbiJpE1brjIwA3NwvedKsJmyPfq12Pe6pI0eXfZtzHQ23k85/0j2AG8f6Xu66/VDZvXvn8PP7vS/9mQic+9+Lzk0TgAXg1E0tAKdyGkaAAAECBAgQIECAAAECBAgQIECAAAECMYGZD8DN2zp67MRiBO6Vsv/iPeXA/r2xd9yyajz4jgfhuqztCt3x+DrtcZsNwKOxt57faFStf65XMTdXFzdvuy3G1ufrlbaTHtNcAbxWAJ4UY8eNJsXe5nUvP3hg+dwmBeD6s7s/+qkVVwO3nXPqpjFs2wsIwG0foSuAQ5tbAA6xWUSAAAECBAgQIECAAAECBAgQIECAAAECuQLbJgDnvu2V0ybFwkk/mxQa66QmZjZfAT3tcZsJwPUroOtXLzfhtZ7HaGit51SvCL7jA+9Z8XXSk6LqVl4BPOn16rmOv/dJYbceN+lK4fr12/fe/f5yyYGLhx/k+DHNp7ve+9rKPWX29hAQgNs+JwE4tIMF4BCbRQQIECBAgAABAgQIECBAgAABAgQIECCQKzDzAfjMmbPlh0efLc89d7qcOv388N3v3nVBufDCXeWSAxeVnTt3bFpk/D65owPHv5J4PD7WYycF4GmO2+oAPCkSv1gBuLn37/iH1Xxt9mYDcHPv3/H5o191vemNYkDnBATgto9UAA5tdgE4xGYRAQIECBAgQIAAAQIECBAgQIAAAQIECOQKzGQAXlhYKE8dOVaO/OB4Ob0Ufdve9q5dF5SDL9lXLj+4v/T7/ZBO2xWkzVc7N1fRtkVKAfjclcjjV91O+1XMmw3A9YNv+wrr0Kaw6LwQEIAF4NSNLgCnchpGgAABAgQIECBAgAABAgQIECBAgAABAjGBmQvAJ0+eLt975Kny3KkzG3pHF+7eWV7x0svLnj27NrRuPN6OLh6/WnY8CDfHjt8DeNrjxuNoWywdv4fupPsT13MZPa7++dY7Plaar6VuzjVyD+C6dtLXKU/6qutJx43fX3nSB7SZANy2dkMbwcHnpYAA3PaxuwI49AshAIfYLCJAgAABAgQIECBAgAABAgQIECBAgACBXIGZC8DffujJcuz4ydC73L9vT3n1K6/Y0Nq2+/U2Q8bjaw2c3/jmd5fvQdsE1UefeLo0X2dc105z3KTgOyn21nv57r947/JrThOA6/1x66z7PvuH5SOH3ze8V3DzevXrmEe/Gnmae+WOOzXv+9iPTizPr+97UuydFJ3rufz6fV8ov/zzbxvey3faADzpvTfvq77+XbcfKrt37xx+fL/x7+8v/+in//6K+yRvaHM4uPMCAnDbRywAhza/ABxis4gAAQIECBAgQIAAAQIECBAgQIAAAQIEcgVmLgD/5YOPlZPPnQ69yz0X7ip/97qrp17bFg5HB0y6QrgG0+aes/UewR+6/VD5tXvuW3W17XrHTQrAo5G2nsdNr7++vP3NN5bf/PQXNxyA6/oaZOv9iOtj/7695X/5V+8t/+5zf1QuP3hg+SuTpwnAdf34+6nBu84+fNu5r4AeDeL13JsgO/rzxnc0mE8bgEfPo76fSXG7me/+v1P/Kpy3BwrAbR+9ABz6pRCAQ2wWESBAgAABAgQIECBAgAABAgQIECBAgECuwHkdgLMom7hZg+aNr7uudey0x2Wd16Q5096TdyvPwWwCsyIgALd9EgJwaI8KwCE2iwgQIECAAAECBAgQIECAAAECBAgQIEAgV2DmAvCJk6fL2fn50LvcMTdX9m7wHsChFxpbtN7XSDeHT3tcxjm1zWi7P/FWvqbZBGZVQABu+2QE4NCeFYBDbBYRIECAAAECBAgQIECAAAECBAgQIECAQK7AzAXg3LeXP238vrJNUD1081vKu97+xuUXnPa4/DM8N7F+/XP9iurmquRJ9+Ldytc3m8CsCwjAbZ+QABzauwJwiM0iAgQIECBAgAABAgQIECBAgAABAgQIEMgVEIA36Dl6T91m6T133rLqq5+nPW6DL7+hw+sVx7ff9YkVa0bvu7uhYQ4m0EEBAbjtQxWAQ9tdAA6xWUSAAAECBAgQIECAAAECBAgQIECAAAECuQICcK6naQQIbCMBAVgATt2uAnAqp2EECBAgQIAAAQIECBAgQIAAAQIECBAgEBMQgGNuVhEg0AEBAVgATt3GAnAqp2EECBAgQIAAAQIECBAgQIAAAQIECBAgEBMQgGNuVhEg0AEBAVgATt3GAnAqp2EECBAgQIAAAQIECBAgQIAAAQIECBAgEBMQgGNuVhEg0AEBAVgATt3GAnAqp2EECBAgQIAAAQIECBAgQIAAAQIECBAgEBMQgGNuVhEg0AEBAVgATt3GAnAqp2EECBAgQIAAAQIECBAgQIAAAQIECBAgEBMQgGNuVhEg0AEBAVgATt3GAnAqp2EECBAgQIAAAQIECBAgQIAAAQIECBAgEBMQgGNuVhEg0AEBAVgATt3GAnAqp2EECBAgQIAAAQIECBAgQIAAAQIECBAgEBMQgGNuVhEg0AEBAVgATt3GAnAqp2EECBAgQIAAAQIECBAgQIAAAQIECBAgEBMQgGNuVhEg0AEBAVgATt3GAnAqp2EECBAgQIAAAQIECBAgQIAAAQIECBAgEBMQgGNuVhEg0AEBAVgATt3GAnAqp2EECBAgQIAAAQIECBAgQIAAAQIECBAgEBMQgGNuVhEg0AEBAVgATt3GAnAqp2EECBAgQIAAAQIECBAgQIAAAQIECBAgEBMQgGNuVhEg0AEBAVgATt3GAnAqp2EECBAgQIAAAQIECBAgQIAAAQIECBAgEBMQgGNuVhEg0AEBAVgATt3GAnAqp2EECBAgQIAAAQIECBAgQIAAAQIECBAgEBMQgGNuVhEg0AEBAVgATt3GAnAqp2EECBAgQIAAAQIECBAgQIAAAQIECBAgEBMQgGNuVhEg0AEBAVgATt3GAnAqp2EECBAgQIAAAQIECBAgQIAAAQIECBAgEBMQgGNuVhEg0AEBAVgATt3GAnAqp2EECBAgQIAAAQIECBAgQIAAAQIECBAgEBMQgGNuVhEg0AEBAVgATt3GAnAqp2EECBAgQIAAAQIECBAgQIAAAQIECBAgEBMQgGNuVhEg0AEBAVgATt3GAnAqp2EECBAgQIAAAQIECBAgQIAAAQIECBAgEBMQgGNuVhEg0AEBAVgATt3GAnAqp2EECBAgQIAAAQIECBAgQIAAAQIECBAgEBMQgGNuVhEg0AEBAVgATt3GAnAqp2EECBAgQIAAAQIECBAgQIAAAQIECBAgEBMQgGNuVhEg0AEBAVgATt3GAnAqp2EECBAgQIAAAQIECBAgQIAAAQIECBAgEBMQgGNuVhEg0AEBAVgATt3GAnAqp2EECBAgQIAAAQIECBAgQIAAAQIECBAgEBMQgGNuVhEg0AEBAVgATt3GAnAqp2EECBAgQIAAAQIECBAgQIAAAQIECBAgEBMQgGNuVhEg0AEBAVgATt3GAnAqp2EECBAgQIAAAQIECBAgQIAAAQIECBAgEBMQgGNuVhEg0AEBAVgATt3GAnAqp2EECBAgQIAAAQIECBAgQIAAAQIECBAgEBMQgGNuVhEg0AEBAVgATt3GAnAqp2EECBAgQIAAAQIECBAgQIAAAQIECBAgEBMQgGNuVhEg0AEBAVgATt3GAnAqp2EECBAgQIAAAQIECBAgQIAAAQIECBAgEBMQgGNuVhEg0AEBAVgATt3GAnAqp2EECBAgQIAAAQIECBAgQIAAAQIECBAgEBMQgGNuVhEg0AEBAVgATt3GAnAqp2EECBAgQIAAAQIECBAgQIAAAQIECBAgEBMQgGNuVhEg0AEBAVgATt3GAnAqp2EECBAgQIAAAQIECBAgQIAAAQIECBAgEBMQgGNuVhEg0AEBAVgATt3GAnAqp2EECBAgQIAAAQIECBAgQIAAAQIECBAgEBMQgGNuVhEg0AEBAVgATt3GAnAqp2EECBAgQIAAAQIECBAgQIAAAQIECBAgEBMQgGNuVhEg0AEBAVgATt3GAnAqp2EECBAgQIAAAQIECBAgQIAAAQIECBAgEBMQgGNuVhEg0AEBAVgATt3GAnAqp2EECBAgQIAAAQIECBAgQIAAAQIECBAgEBMQgGNuVhEg0AEBAVgATt3GAnAqp2EECBAgQIAAAQIECBAgQIAAAQIECBAgEBMQgGNuVhEg0AEBAVgATt3GAnAqp2EECBAgQIAAAQIECBAgQIAAAQIECBAgEBMQgGNuVhEg0AEBAVgATt3GAnAqp2EECBAgQIAAAQIECBAgQIAAAQIECBAgEBMQgGNuVhEg0AEBAVgATt3GAnAqp2EECBAgQIAAAQIECBAgQIAAAQIECBAgEBMQgGNuVhEg0AEBAVgATt3GAnAqp2EECBAgQIAAAQIECBAgQIAAAQIECBAgEBMQgGNuVhEg0AEBAVgATt3GAnAqp2EECBAgQIAAAQIECBAgQIAAAQIECBAgEBMQgGNuVhEg0AEBAVgATt3GAnAqp2EECBAgQIAAAQIECBAgQIAAAQIECBAgEBMQgGNuVhEg0AEBAVgATt3GAnAqp2EECBAgQIAAAQIECBAgQIAAAQIECBAgEBMQgGNuVhEg0AEBAVgATt3GAnAqp2EECBAgQIAAAQIECBAgQIAAAQIECBAgEBMQgGNuVhEg0AEBAVgATt3GAnAqp2EECBAgQIAAAQIECBAgQIAAAQIECBAgEBMQgGNuVhEg0AEBAVgATt3GAnAqp2EECBAgQIAAAQIECBAgQIAAAQIECBAgEBPYNgF4MBiUEydOD9/l3r27Sm+t/6E9ZmEVAQLnmYAALACnbnkBOJXTMAIECBAgQIAAAQIECBAgQIAAAQIECBCICWyLAPzk939Ynnr6WDk7Pz98lzvm5srll+0vV/ydS2LvOrjqgb94sNz7yc+Xe+9+f7nkwMXBKdMt++7fPFk+ePjj5Y4PvKfc+Lrrlhd9+BOfLV/48lfLNVdeNjyP3/rdL5Wnjhwtd91+qOzevXO64Y4iQGAoIAC3bYTBqici/0c3o2tWT1x6iZYnMv9vfCLnHvoVEYBDbBYRIECAAAECBAgQIECAAAECBAgQIECAQK7AzAfgp48cK489+UxZWFhZCfr9Xrn6ikvLZQf3p4mcOnWm3HnPfeVrX//Wipm3vvfnyrve/sbyYgfgSa9fg7AAnLYFDDrPBARgATh1ywvAqZyGESBAgAABAgQIECBAgAABAgQIECBAgEBMYOYD8F99+/Hy7IlTE9/dRXt3l9e8+qrYOx9bVePq7Xd9ojSxt3m6/vzRJ55+wQPwpDdVY2993HbLzSnv2RAC57uAANy2A1wBHPrdEIBDbBYRIECAAAECBAgQIECAAAECBAgQIECAQK7ATAfg506dKd9+6Mly5szZie96584d5dWvvKJcuMmvPq6R9+6Pfqp85PD7yrUvu6JV+IW8AnjSSQjAuZvfNAICsACc+lsgAKdyGkaAAAECBAgQIECAAAECBAgQIECAAAECMYGZDsBnz86XB7/zRKkheNKjht/rXnVl2bFjLvbuSynN1z7feMNPDK/yXesxKQB/7g++MrwvcPO46fXXr7gf7w+P/qjcesfHhlcR18f+fXtXhObmnr7N+uYK5HoP4MMfvq8cvu3Q8H7DozPqsc3r/Pp9XxguHb0qeK3XHH+urr3nzltW3Gc4jGkhgW0mIAC3fWCuAA5tZQE4xGYRAQIECBAgQIAAAQIECBAgQIAAAQIECOQKzHQArm/10cefKU8/c7QMxnpE/d/ZL7v0QLnmqks3JTIaWte6+re+yHgArjH1t373S+VfHHpn2b1753JMvvzggWGQnRSX/8//64HyqldcNbzSuMbjB77x18vBuJ7Ld773ePnH//DGMum8Jl0BPP6zuu6Dhz9eDt38luWg/c0HHy67d+9afs1rrrxsOfhOe/XzppAtJjCjAgKwAJy6NQXgVE7DCBAgQIAAAQIECBAgQIAAAQIECBAgQCAmMPMB+Pmz8+XhR54qx46fXPEO9+/bU17+0svLBZu4+ndS1F2LcZqvgB49pgbi5ire8bi83pXHkQDczGwC9DRbYr3zmGaGYwhsVwEBuO2TcwVwaE8LwCE2iwgQIECAAAECBAgQIECAAAECBAgQIEAgV2DmA3Dzdo8eO7EYgXul7L94Tzmwf2+KxDRRt3mhtmPHvwa6XmF7793vL3t27yp33nNfefKpZ4Z/rl/lPPpo1k36CuZIAG6+3rl+jfSNr7uu1WfS10A3Xz2dgmoIgW0iIAC3fVACcGgLC8AhNosIECBAgAABAgQIECBAgAABAgQIECBAIFdg2wTg3Ld9btpGvgJ5PAA3X7f8mmtfuvw1zuPHNFfYfu3r31p1/996FqPxeDTCRgLwNF9n3dxzuInOrgDeqp1l7nYQEIAF4NR9KgCnchpGgAABAgQIECBAgAABAgQIECBAgAABAjGBmQ/AZ86cLT88+mx57rnT5dTp54fvcveuC8qFF+4qlxy4qOzcuSP2zpdWNVfD/uzbfmr5nrltA8fj7qR78q51RfF4fB19nbru9rs+Ud751jcM7x+8FQF40kwBeFPbx+JtLiAAt32ArgAObW0BOMRmEQECBAgQIECAAAECBAgQIECAAAECBAjkCsxkAF5YWChPHTlWjvzgeDm9FH3b3vauXReUgy/ZVy4/uL/0+/2QTr0K9/e+9GcTv6Z5PNLe+8nPLx83KQDXn33jm9+dOGu92FrP44Fv/PXwauLHv//MqvsHt71ePccajdebPykAN1cxH7r5LesG8BCuRQRmWEAAbvtwBODQthWAQ2wWESBAgAABAgQIECBAgAABAgQIECBAgECuwMwF4JMnT5fvPfJUee7UmQ290wt37yyveOnlZc+eXRta1xzcdnVuvTL30SeeHsbR8at7x8NxcxVvcw/genXxd773ePnH//DG4cs0sfWOD7yn/BfXvaJ85j/8aXn3z7yp7N69czneXn7wQPgK4PoazTmM3lf4mw8+XHbvrldMX1xuveNjpbnaefTrqd0DOLRtLNrmAgJw2wcoAIe2tgAcYrOIAAECBAgQIECAAAECBAgQIECAAAECBHIFZi4Af/uhJ8ux4ydD73L/vj3l1a+8IrR2NJ6ODti/b2/5yOH3lWtfdsWqADwaUOuam15/fXn7m28sv/npLw6vAK4B+IOHP16OHT+xPHL83rv13sDNo/n65/rnyFdAN3Oa0Ny8bhOkawBuAnFz7N3/8p+VP/hPD5Qbb/gJVwCHd46F21VAAG775ATg0J4WgENsFhEgQIAAAQIECBAgQIAAAQIECBAgQIBArsDMBeC/fPCxcvK506F3uefCXeXvXnd1aK1FBAicfwICsACcuusF4FROwwgQIECAAAECBAgQIECAAAECBAgQIEAgJiAAx9ysIkCgAwICsACcuo0F4FROwwgQIECAAAECBAgQIECAAAECBAgQIEAgJjBzAfjEydPl7Px86N3smJsre4P3AA69oEUECGxrAQFYAE7dwAJwKqdhBAgQIECAAAECBAgQIECAAAECBAgQIBATmLkAHHsbVhEgQGDjAgKwALzxXbPGCgE4ldMwAgQIECBAgAABAgQIECBAgAABAgQIEIgJCMAxN6sIEOiAgAAsAKduYwE4ldMwAgQIECBAgAABAgQIECBAgAABAgQIEIgJCMAxN6sIEOiAgAAsAKduYwE4ldMwAgQIECBAgAABAgQIECBAgAABAgQIEIgJCMAxN6sIEOiAgAAsAKduYwE4ldMwAgQIECBAgAABAgQIECBAgAABAgQIEIgJCMAxN6sIEOiAgAAsAKduYwE4ldMwAgQIECBAgAABAgQIECBAgAABAgQIEIgJCMAxN6sIEOiAgAAsAKduYwE4ldMwAgQIECBAgAABAgQIECBAgAABAgQIEIgJCMAxN6sIEOiAgAAsAKduYwE4ldMwAgQIECBAgAABAgQIECBAgAABAgQIEIgJCMAxN6sIEOiAgAAsAKduYwE4ldMwAgQIECBAgAABAgQIECBAgAABAgQIEIgJCMAxN6sIEOiAgAAsAKduYwE4ldMwAgQIECBAgAABAgQIECBAgAABAgQIEIgJCMAxN6sIEOiAgAAsAKduYwE4ldMwAgQIECBAgAABAgQIECBAgAABAgQIEIgJCMAxN6sIEOiAgAAsAKduYwE4ldMwAgQIECBAgAABAgQIECBAgAABAgQIEIgJCMAxN6sIEOiAgAAsAKduYwE4ldMwAgQIECBAgAABAgQIECBAgAABAgQIEIgJCMAxN6sIEOiAgAAsAKduYwE4ldMwAgQIECBAgAABAgQIECBAgAABAgQIEIgJCMAxN6sIEOiAgAAsAKduYwE4ldMwAgQIECBAgAABAgQIECBAgAABAgQIEIgJCMAxN6sIEOiAgAAsAKduYwE4ldMwAgQIECBAgAABAgQIECBAgAABAgQIEIgJCMAxN6sIEOiAgAAsAKduYwE4ldMwAgQIECBAgAABAgQIECBAgAABAgQIEIgJCMAxN6sIEOiAgAAsAKduYwE4ldMwAgQIECBAgAABAgQIECBAgAABAgQIEIgJCMAxN6sIEOiAgAAsAKduYwE4ldMwAgQIECBAgAABAgQIECBAgAABAgQIEIgJCMAxN6sIEOiAgAAsAKduYwE4ldMwAgQIECBAgAABAgQIECBAgAABAgQIEIgJCMAxN6sIEOiAgAAsAKduYwE4ldMwAgQIECBAgAABAgQIECBAgAABAgQIEIgJCMAxN6sIEOiAgAAsAKduYwE4ldMwAgQIECBAgAABAgQIECBAgAABAgQIEIgJCMAxN6sIEOiAgAAsAKduYwE4ldMwAgQIECBAgAABAgQIECBAgAABAgQIEIgJCMAxN6sIEOiAgAAsAKduYwE4ldMwAgQIECBAgAABAgQIECBAgAABAgQIEIgJCMAxN6sIEOiAgAAsAKduYwE4ldMwAgQIECBAgAABAgQIECBAgAABAgQIEIgJCMAxN6sIEOiAgAAsAKduYwE4ldMwAgQIECBAgAABAgQIECBAgAABAgQIEIgJCMAxN6sIEOiAgAAsAKduYwE4ldMwAgQIECBAgAABAgQIECBAgAABAgQIEIgJCMAxN6sIEOiAgAAsAKduYwE4ldMwAgQIECBAgAABAgQIECBAgAABAgQIEIgJCMAxN6sIEOiAgAAsAKduYwE4ldMwAgQIECBAgAABAgQIECBAgAABAgQIEIgJCMAxN6sIEOiAgAAsAKduYwE4ldMwAgQIECBAgAABAgQIECBAgAABAgQIEIgJCMAxN6sIEOiAgAAsAKduYwE4ldMwAgQIECBAgAABAgQIECBAgAABAgQIEIgJCMAxN6sIEOiAgAAsAKduYwE4ldMwAgQIECBAgAABAgQIECBAgAABAgQIEIgJCMAxN6sIEOiAgAAsAKduYwE4ldMwAgQIECBAgAABAgQIECBAgAABAgQIEIgJCMAxN6sIEOiAgAAsAKduYwE4ldMwAgQIECBAgAABAgQIECBAgAABAgQIEIgJCMAxN6sIEOiAgAAsAKduYwE4ldMwAgQIECBAgAABAgQIECBAgAABAgQIEIgJCMAxN6sIEOiAgAAsAKduYwE4ldMwAgQIECBAgAABAgQIECBAgAABAgQIEIgJCMAxN6sIEOiAgAAsAKduYwE4ldMwAgQIECBAgAABAgQIECBAgAABAgQIEIgJCMAxN6sIEOiAgAAsAKduYwE4ldMwAgQIECBAgAABAgQIECBAgAABAgQIEIgJCMAxN6sIEOiAgAAsAKduYwE4ldMwAgQIECBAgAABAgQIECBAgAABAgQIEIgJCMAxN6sIEOiAgAAsAKduYwE4ldMwAgQIECBAgAABAgQIECBAgAABAgQIEIgJCMAxN6sIEOiAgAAsAKduYwE4ldMwAgQIECBAgAABAgQIECBAgAABAgQIEIgJCMAxN6sIEOiAgAAsAKduYwE4ldMwAgQIECBAgAABAgQIECBAgAABAgQIEIgJCMAxN6sIEOiAgAAsAKduYwE4ldMwAgQIECBAgAABAgQIECBAgAABAgQIEIgJCMAxN6sIEOiAgAAsAKduYwE4ldMwAgQIECBAgAABAgQIECBAgAABAgQIEIgJCMAxN6sIEOiAgAAsAKduYwE4ldMwAgQIECBAgAABAgQIECBAgAABAgQIEIgJCMAxN6sIEOiAgAAsAKduYwE4ldMwAgQIECBAgAABAgQIECBAgAABAgQIEIgJCMAxN6sIEOiAgAAsAKduYwE4ldMwAgQIECBAgAABAgQIECBAgAABAgQIEIgJCMAxN6sIEOiAgAAsAKduYwE4ldMwAgQIECBAgAABAgQIECBAgAABAgQIEIgJCMAxN6sIEOiAgAAsAKduYwE4ldMwAgQIECBAgAABAgQIECBAgAABAgQIEIgJCMAxN6sIEOiAgAAsAKduYwE4ldMwAgQIECBAgAABAgQIECBAgAABAgQIEIgJCMAxN6sIEOiAgAAsAKduYwE4ldMwAgQIECBAgAABAgQIECBAgAABAgQIEIgJCMAxN6sIEOiAgAAsAKduYwE4ldMwAgQIECBAgAABAgQIECBAgAABAgQIEIgJCMAxN6sIEOiAgAAsAKduYwE4ldMwAgQIECBAgAABAgQIECBAgAABAgQIEIgJCMAxN6sIEOiAgAAsAKduYwE4ldMwAgQIECBAgAABAgQIECBAgAABAgQIEIgJCMAxN6sIEOiAgAAsAKduYwE4ldMwAgQIECBAgAABAgQIECBAgAABAgQIEIgJCMAxN6sIEOiAgAAsAKduYwE4ldMwAgQIECBAgAABAgQIECBAgAABAgQIEIgJCMAxN6sIEOiAgAAsAKduYwE4ldMwAgQIECBAgAABAgQIECBAgAABAgQI0i0qNwAAIABJREFUEIgJCMAxN6sIEOiAgAAsAKduYwE4ldMwAgQIECBAgAABAgQIECBAgAABAgQIEIgJCMAxN6sIEOiAgAAsAKduYwE4ldMwAgQIECBAgAABAgQIECBAgAABAgQIEIgJCMAxN6sIEOiAgAAsAKduYwE4ldMwAgQIECBAgAABAgQIECBAgAABAgQIEIgJCMAxN6sIEOiAgAAsAKduYwE4ldMwAgQIECBAgAABAgQIECBAgAABAgQIEIgJCMAxN6sIEOiAgAAsAKduYwE4ldMwAgQIECBAgAABAgQIECBAgAABAgQIEIgJCMAxN6sIEOiAgAAsAKduYwE4ldMwAgQIECBAgAABAgQIECBAgAABAgQIEIgJCMAxN6sIEOiAgAAsAKduYwE4ldMwAgQIECBAgAABAgQIECBAgAABAgQIEIgJCMAxN6sIEOiAgAAsAKduYwE4ldMwAgQIECBAgAABAgQIECBAgAABAgQIEIgJCMAxN6sIEOiAgAAsAKduYwE4ldMwAgQIECBAgAABAgQIECBAgAABAgQIEIgJCMAxN6sIEOiAgAAsAKduYwE4ldMwAgQIECBAgAABAgQIECBAgAABAgQIEIgJCMAxN6sIEOiAgAAsAKduYwE4ldMwAgQIECBAgAABAgQIECBAgAABAgQIEIgJCMAxN6sIEOiAgAAsAKduYwE4ldMwAgQIECBAgAABAgQIECBAgAABAgQIEIgJCMAxN6sIEOiAgAAsAKduYwE4ldMwAgQIECBAgAABAgQIECBAgAABAgQIEIgJCMAxN6sIEOiAgAAsAKduYwE4ldMwAgQIECBAgAABAgQIECBAgAABAgQIEIgJCMAxN6sIEOiAgAAsAKduYwE4ldMwAgQIECBAgAABAgQIECBAgAABAgQIEIgJCMAxN6sIEOiAgAAsAKduYwE4ldMwAgQIECBAgAABAgQIECBAgAABAgQIEIgJCMAxN6sIEOiAgAAsAKduYwE4ldMwAgQIECBAgAABAgQIECBAgAABAgQIEIgJCMAxN6sIEOiAgAAsAKduYwE4ldMwAgQIECBAgAABAgQIECBAgAABAgQIEIgJCMAxN6sIEOiAgAAsAKduYwE4ldMwAgQIECBAgAABAgQIECBAgAABAgQIEIgJCMAxN6sIEOiAgAAsAKduYwE4ldMwAgQIECBAgAABAgQIECBAgAABAgQIEIgJCMAxN6sIEOiAgAAsAKduYwE4ldMwAgQIECBAgAABAgQIECBAgAABAgQIEIgJCMAxN6sIEOiAgAAsAKduYwE4ldMwAgQIECBAgAABAgQIECBAgAABAgQIEIgJCMAxN6sIEOiAgAAsAKduYwE4ldMwAgQIECBAgAABAgQIECBAgAABAgQIEIgJCMAxN6sIEOiAgAAsAKduYwE4ldMwAgQIECBAgAABAgQIECBAgAABAgQIEIgJCMAxN6sIEOiAgAAsAKduYwE4ldMwAgQIECBAgAABAgQIECBAgAABAgQIEIgJCMAxN6sIEOiAgAAsAKduYwE4ldMwAgQIECBAgAABAgQIECBAgAABAgQIEIgJCMAxN6sIEOiAgAAsAKduYwE4ldMwAgQIECBAgAABAgQIECBAgAABAgQIEIgJCMAxN6sIEOiAgAAsAKduYwE4ldMwAgQIECBAgAABAgQIECBAgAABAgQIEIgJCMAxN6sIEOiAgAAsAKduYwE4ldMwAgQIECBAgAABAgQIECBAgAABAgQIEIgJCMAxN6sIEOiAgAAsAKduYwE4ldMwAgQIECBAgAABAgQIECBAgAABAgQIEIgJCMAxN6sIEOiAgAAsAKduYwE4ldMwAgQIECBAgAABAgQIECBAgAABAgQIEIgJCMAxN6sIEOiAgAAsAKduYwE4ldMwAgQIECBAgAABAgQIECBAgAABAgQIEIgJCMAxN6sIEOiAgAAsAKduYwE4ldMwAgQIECBAgAABAgQIECBAgAABAgQIEIgJCMAxN6sIEOiAgAAsAKduYwE4ldMwAgQIECBAgAABAgQIECBAgAABAgQIEIgJCMAxN6sIEOiAgAAsAKduYwE4ldMwAgQIECBAgAABAgQIECBAgAABAgQIEIgJCMAxN6sIEOiAgAAsAKduYwE4ldMwAgQIECBAgAABAgQIECBAgAABAgQIEIgJCMAxN6sIEOiAgAAsAKduYwE4ldMwAgQIECBAgAABAgQIECBAgAABAgQIEIgJCMAxN6sIEOiAgAAsAKduYwE4ldMwAgQIECBAgAABAgQIECBAgAABAgQIEIgJCMAxN6sIEOiAgAAsAKduYwE4ldMwAgQIECBAgAABAgQIECBAgAABAgQIEIgJCMAxN6sIEOiAgAAsAKduYwE4ldMwAgQIECBAgAABAgQIECBAgAABAgQIEIgJCMAxN6sIEOiAgAAsAKduYwE4ldMwAgQIECBAgAABAgQIECBAgAABAgQIEIgJCMAxN6sIEOiAgAAsAKduYwE4ldMwAgQIECBAgAABAgQIECBAgAABAgQIEIgJCMAxN6sIEOiAgAAsAKduYwE4ldMwAgQIECBAgAABAgQIECBAgAABAgQIEIgJCMAxN6sIEOiAgAAsAKduYwE4ldMwAgQIECBAgAABAgQIECBAgAABAgQIEIgJCMAxN6sIEOiAgAAsAKduYwE4ldMwAgQIECBAgAABAgQIECBAgAABAgQIEIgJCMAxN6sIEOiAgAAsAKduYwE4ldMwAgQIECBAgAABAgQIECBAgAABAgQIEIgJCMAxN6sIEOiAgAAsAKduYwE4ldMwAgQIECBAgAABAgQIECBAgAABAgQIEIgJCMAxN6sIEOiAgAAsAKduYwE4ldMwAgQIECBAgAABAgQIECBAgAABAgQIEIgJCMAxN6sIEOiAgAAsAKduYwE4ldMwAgQIECBAgAABAgQIECBAgAABAgQIEIgJCMAxN6sIEOiAgAAsAKduYwE4ldMwAgQIECBAgAABAgQIECBAgAABAgQIEIgJCMAxN6sIEOiAgAAsAKduYwE4ldMwAgQIECBAgAABAgQIECBAgAABAgQIEIgJCMAxN6sIEOiAgAAsAKduYwE4ldMwAgQIECBAgAABAgQIECBAgAABAgQIEIgJCMAxN6sIEOiAgAAsAKduYwE4ldMwAgQIECBAgAABAgQIECBAgAABAgQIEIgJCMAxN6sIEOiAgAAsAKduYwE4ldMwAgQIECBAgAABAgQIECBAgAABAgQIEIgJCMAxN6sIEOiAgAAsAKduYwE4ldMwAgQIECBAgAABAgQIECBAgAABAgQIEIgJCMAxN6sIEOiAgAAsAKduYwE4ldMwAgQIECBAgAABAgQIECBAgACB/7+9e1FyFUcXNCpwvf8LzjndXX2beYpiQgJ8S+OL+MFALnedqtyZIOOFck/EfCFBgAABAnUCAnCdm7MIEDiAgAAsAIdOYwE4lNNgBAgQIECAAAECBAgQIECAAAECBAgQIFAnIADXuTmLAIEDCAjAAnDoNBaAQzkNRoAAAQIECBAgQIAAAQIECBAgQIAAAQJ1AgJwnZuzCBA4gIAALACHTmMBOJTTYAQIECBAgAABAgQIECBAgAABAgQIECBQJyAA17k5iwCBAwgIwAJw6DQWgEM5DUaAAAECBAgQIECAAAECBAgQIECAAAECdQICcJ2bswgQOICAACwAh05jATiU02AECBAgQIAAAQIECBAgQIAAAQIECBAgUCcgANe5OYsAgQMICMACcOg0FoBDOQ1GgAABAgQIECBAgAABAgQIECBAgAABAnUCAnCdm7MIEDiAgAAsAIdOYwE4lNNgBAgQIECAAAECBAgQIECAAAECBAgQIFAnIADXuTmLAIEDCAjAAnDoNBaAQzkNRoAAAQIECBAgQIAAAQIECBAgQIAAAQJ1AgJwnZuzCBA4gIAALACHTmMBOJTTYAQIECBAgAABAgQIECBAgAABAgQIECBQJyAA17k5iwCBAwgIwAJw6DQWgEM5DUaAAAECBAgQIECAAAECBAgQIECAAAECdQICcJ2bswgQOICAACwAh05jATiU02AECBAgQIAAAQIECBAgQIAAAQIECBAgUCcgANe5OYsAgQMICMACcOg0FoBDOQ1GgAABAgQIECBAgAABAgQIECBAgAABAnUCAnCdm7MIEDiAgAAsAIdOYwE4lNNgBAgQIECAAAECBAgQIECAAAECBAgQIFAnIADXuTmLAIEDCAjAAnDoNBaAQzkNRoAAAQIECBAgQIAAAQIECBAgQIAAAQJ1AgJwnZuzCBA4gIAALACHTmMBOJTTYAQIECBAgAABAgQIECBAgAABAgQIECBQJyAA17k5iwCBAwgIwAJw6DQWgEM5DUaAAAECBAgQIECAAAECBAgQIECAAAECdQICcJ2bswgQOICAACwAh05jATiU02AECBAgQIAAAQIECBAgQIAAAQIECBAgUCcgANe5OYsAgQMICMACcOg0FoBDOQ1GgAABAgQIECBAgAABAgQIECBAgAABAnUCAnCdm7MIEDiAgAAsAIdOYwE4lNNgBAgQIECAAAECBAgQIECAAAECBAgQIFAnIADXuTmLAIEDCAjAAnDoNBaAQzkNRoAAAQIECBAgQIAAAQIECBAgQIAAAQJ1AgJwnZuzCBA4gIAALACHTmMBOJTTYAQIECBAgAABAgQIECBAgAABAgQIECBQJyAA17k5iwCBAwgIwAJw6DQWgEM5DUaAAAECBAgQIECAAAECBAgQIECAAAECdQICcJ2bswgQOICAACwAh05jATiU02AECBAgQIAAAQIECBAgQIAAAQIECBAgUCcgANe5OYsAgQMICMACcOg0FoBDOQ1GgAABAgQIECBAgAABAgQIECBAgAABAnUCAnCdm7MIEDiAgAAsAIdOYwE4lNNgBAgQIECAAAECBAgQIECAAAECBAgQIFAnIADXuTmLAIEDCAjAAnDoNBaAQzkNRoAAAQIECBAgQIAAAQIECBAgQIAAAQJ1AgJwnZuzCBA4gIAALACHTmMBOJTTYAQIECBAgAABAgQIECBAgAABAgQIECBQJyAA17k5iwCBAwgIwAJw6DQWgEM5DUaAAAECBAgQIECAAAECBAgQIECAAAECdQICcJ2bswgQOICAACwAh05jATiU02AECBAgQIAAAQIECBAgQIAAAQIECBAgUCcgANe5OYsAgQMICMACcOg0FoBDOQ1GgAABAgQIECBAgAABAgQIECBAgAABAnUCAnCdm7MIEDiAgAAsAIdOYwE4lNNgBAgQIECAAAECBAgQIECAAAECBAgQIFAnIADXuTmLAIEDCAjAAnDoNBaAQzkNRoAAAQIECBAgQIAAAQIECBAgQIAAAQJ1AgJwnZuzCBA4gIAALACHTmMBOJTTYAQIECBAgAABAgQIECBAgAABAgQIECBQJyAA17k5iwCBAwgIwAJw6DQWgEM5DUaAAAECBAgQIECAAAECBAgQIECAAAECdQICcJ2bswgQOICAACwAh05jATiU02AECBAgQIAAAQIECBAgQIAAAQIECBAgUCcgANe5OYsAgQMICMACcOg0FoBDOQ1GgAABAgQIECBAgAABAgQIECBAgAABAnUCAnCdm7MIEDiAgAAsAIdOYwE4lNNgBAgQIECAAAECBAgQIECAAAECBAgQIFAnIADXuTmLAIEDCAjAAnDoNBaAQzkNRoAAAQIECBAgQIAAAQIECBAgQIAAAQJ1AgJwnZuzCBA4gIAALACHTmMBOJTTYAQIECBAgAABAgQIECBAgAABAgQIECBQJyAA17k5iwCBAwgIwAJw6DQWgEM5DUaAAAECBAgQIECAAAECBAgQIECAAAECdQICcJ2bswgQOICAACwAh05jATiU02AECBAgQIAAAQIECBAgQIAAAQIECBAgUCcgANe5OYsAgQMICMACcOg0FoBDOQ1GgAABAgQIECBAgAABAgQIECBAgAABAnUCAnCdm7MIEDiAgAAsAIdOYwE4lNNgBAgQIECAAAECBAgQIECAAAECBAgQIFAnIADXuTmLAIEDCAjAAnDoNBaAQzkNRoAAAQIECBAgQIAAAQIECBAgQIAAAQJ1AgJwnZuzCBA4gIAALACHTmMBOJTTYAQIECBAgAABAgQIECBAgAABAgQIECBQJyAA17k5iwCBAwgIwAJw6DQWgEM5DUaAAAECBAgQIECAAAECBAgQIECAAAECdQICcJ2bswgQOICAACwAh05jATiU02AECBAgQIAAAQIECBAgQIAAAQIECBAgUCcgANe5OYsAgQMICMACcOg0FoBDOQ1GgAABAgQIECBAgAABAgQIECBAgAABAnUCAnCdm7MIEDiAgAAsAIdOYwE4lNNgBAgQIECAAAECBAgQIECAAAECBAgQIFAnIADXuTmLAIEDCAjAAnDoNBaAQzkNRoAAAQIECBAgQIAAAQIECBAgQIAAAQJ1AgJwnZuzCBA4gIAALACHTmMBOJTTYAQIECBAgAABAgQIECBAgAABAgQIECBQJyAA17k5iwCBAwgIwAJw6DQWgEM5DUaAAAECBAgQIECAAAECBAgQIECAAAECdQICcJ2bswgQOICAACwAh05jATiU02AECBAgQIAAAQIECBAgQIAAAQIECBAgUCcgANe5OYsAgQMICMACcOg0FoBDOQ1GgAABAgQIECBAgAABAgQIECBAgAABAnUCAnCdm7MIEDiAgAAsAIdOYwE4lNNgBAgQIECAAAECBAgQIECAAAECBAgQIFAnIADXuTmLAIEDCAjAAnDoNBaAQzkNRoAAAQIECBAgQIAAAQIECBAgQIAAAQJ1AgJwnZuzCBA4gIAALACHTmMBOJTTYAQIECBAgAABAgQIECBAgAABAgQIECBQJyAA17k5iwCBAwgIwAJw6DQWgEM5DUaAAAECBAgQIECAAAECBAgQIECAAAECdQICcJ2bswgQOICAACwAh05jATiU02AECBAgQIAAAQIECBAgQIAAAQIECBAgUCcgANe5OYsAgQMICMACcOg0FoBDOQ1GgAABAgQIECBAgAABAgQIECBAgAABAnUCAnCdm7MIEDiAgAAsAIdOYwE4lNNgBAgQIECAAAECBAgQIECAAAECBAgQIFAnIADXuTmLAIEDCAjAAnDoNBaAQzkNRoAAAQIECBAgQIAAAQIECBAgQIAAAQJ1AgJwnZuzCBA4gIAALACHTmMBOJTTYAQIECBAgAABAgQIECBAgAABAgQIECBQJyAA17k5iwCBAwgIwAJw6DQWgEM5DUaAAAECBAgQIECAAAECBAgQIECAAAECdQICcJ2bswgQOICAACwAh05jATiU02AECBAgQIAAAQIECBAgQIAAAQIECBAgUCcgANe5OYsAgQMICMACcOg0FoBDOQ1GgAABAgQIECBAgAABAgQIECBAgAABAnUCAnCdm7MIEDiAgAAsAIdOYwE4lNNgBAgQIECAAAECBAgQIECAAAECBAgQIFAnIADXuTmLAIEDCAjAAnDoNBaAQzkNRoAAAQIECBAgQIAAAQIECBAgQIAAAQJ1AgJwnZuzCBA4gIAALACHTmMBOJTTYAQIECBAgAABAgQIECBAgAABAgQIECBQJyAA17k5iwCBAwgIwAJw6DQWgEM5DUaAAAECBAgQIECAAAECBAgQIECAAAECdQICcJ2bswgQOICAACwAh05jATiU02AECBAgQIAAAQIECBAgQIAAAQIECBAgUCcgANe5OYsAgQMICMACcOg0FoBDOQ1GgAABAgQIECBAgAABAgQIECBAgAABAnUCAnCdm7MIEDiAgAAsAIdOYwE4lNNgBAgQIECAAAECBAgQIECAAAECBAgQIFAnIADXuTmLAIEDCAjAAnDoNBaAQzkNRoAAAQIECBAgQIAAAQIECBAgQIAAAQJ1AgJwnZuzCBA4gIAALACHTmMBOJTTYAQIECBAgAABAgQIECBAgAABAgQIECBQJyAA17k5iwCBAwgIwAJw6DQWgEM5DUaAAAECBAgQIECAAAECBAgQIECAAAECdQICcJ2bswgQOICAACwAh05jATiU02AECBAgQIAAAQIECBAgQIAAAQIECBAgUCcgANe5OYsAgQMICMACcOg0FoBDOQ1GgAABAgQIECBAgAABAgQIECBAgAABAnUCAnCdm7MIEDiAgAAsAIdOYwE4lNNgBAgQIECAAAECBAgQIECAAAECBAgQIFAnIADXuTmLAIEDCAjAAnDoNBaAQzkNRoAAAQIECBAgQIAAAQIECBAgQIAAAQJ1AgJwnZuzCBA4gIAALACHTmMBOJTTYAQIECBAgAABAgQIECBAgAABAgQIECBQJyAA17k5iwCBAwgIwAJw6DQWgEM5DUaAAAECBAgQIECAAAECBAgQIECAAAECdQICcJ2bswgQOICAACwAh05jATiU02AECBAgQIAAAQIECBAgQIAAAQIECBAgUCcgANe5OYsAgQMICMACcOg0FoBDOQ1GgAABAgQIECBAgAABAgQIECBAgAABAnUCAnCdm7MIEDiAgAAsAIdOYwE4lNNgBAgQIECAAAECBAgQIECAAAECBAgQIFAnIADXuTmLAIEDCAjAAnDoNBaAQzkNRoAAAQIECBAgQIAAAQIECBAgQIAAAQJ1AgJwnZuzCBA4gIAALACHTmMBOJTTYAQIECBAgAABAgQIECBAgAABAgQIECBQJyAA17k5iwCBAwgIwAJw6DQWgEM5DUaAAAECBAgQIECAAAECBAgQIECAAAECdQICcJ2bswgQOICAACwAh05jATiU02AECBAgQIAAAQIECBAgQIAAAQIECBAgUCcgANe5OYsAgQMI1AfgLrVtk1KXEbrUtG3RaIavuy5/t0tNyseUg/qft21/Sjn29lWOffQao2IZpz+7mQiN19+/vOvPQSff63zoz7On3vPZNHjreiYu9FlL/XTq1Vz7p+8x3Jjp0358zmd3qOrdQ05azSrkag1CgAABAgQIECBAgAABAgQIECBAgAABAo8EBGDzggCBXysgAE/degG46pfCCuAqNicRIECAAAECBAgQIECAAAECBAgQIECAQKyAABzraTQCBHYkIAALwKHTVQAO5TQYAQIECBAgQIAAAQIECBAgQIAAAQIECNQJCMB1bs4iQOAAAgKwABw6jQXgUE6DESBAgAABAgQIECBAgAABAgQIECBAgECdgABc5+YsAgQOICAAC8Ch01gADuU0GAECBAgQIECAAAECBAgQIECAAAECBAjUCQjAdW7OIkDgAAICsAAcOo0F4FBOgxEgQIAAAQIECBAgQIAAAQIECBAgQIBAnYAAXOfmLAIEDiAgAAvAodNYAA7lNBgBAgQIECBAgAABAgQIECBAgAABAgQI1AkIwHVuziJA4AACArAAHDqNBeBQToMRIECAAAECBAgQIECAAAECBAgQIECAQJ2AAFzn5iwCBA4gIAALwKHTWAAO5TQYAQIECBAgQIAAAQIECBAgQIAAAQIECNQJCMB1bs4iQOAAAgKwABw6jQXgUE6DESBAgAABAgQIECBAgAABAgQIECBAgECdgABc5+YsAgQOICAAC8Ch01gADuU0GAECBAgQIECAAAECBAgQIECAAAECBAjUCQjAdW7OIkDgAAICsAAcOo0F4FBOgxEgQIAAAQIECBAgQIAAAQIECBAgQIBAnYAAXOfmLAIEDiAgAAvAodNYAA7lNBgBAgQIECBAgAABAgQIECBAgAABAgQI1AkIwHVuziJA4AACArAAHDqNBeBQToMRIECAAAECBAgQIECAAAECBAgQIECAQJ2AAFzn5iwCBA4gIAALwKHTWAAO5TQYAQIECBAgQIAAAQIECBAgQIAAAQIECNQJCMB1bs4iQOAAAgKwABw6jQXgUE6DESBAgAABAgQIECBAgAABAgQIECBAgECdgABc5+YsAgQOICAAC8Ch01gADuU0GAECBAgQIECAAAECBAgQIECAAAECBAjUCQjAdW7OIkDgAAICsAAcOo0F4FBOgxEgQIAAAQIECBAgQIAAAQIECBAgQIBAnYAAXOfmLAIEDiAgAAvAodNYAA7lNBgBAgQIECBAgAABAgQIECBAgAABAgQI1AkIwHVuziJA4AACArAAHDqNBeBQToMRIECAAAECBAgQIECAAAECBAgQIECAQJ2AAFzn5iwCBA4gIAALwKHTWAAO5TQYAQIECBAgQIAAAQIECBAgQIAAAQIECNQJCMB1bs4iQOAAAgKwABw6jQXgUE6DESBAgAABAgQIECBAgAABAgQIECBAgECdgABc5+YsAgQOICAAC8Ch01gADuU0GAECBAgQIECAAAECBAgQIECAAAECBAjUCQjAdW7OIkDgAAICsAAcOo0F4FBOgxEgQIAAAQIECBAgQIAAAQIECBAgQIBAnYAAXOfmLAIEDiAgAAvAodNYAA7lNBgBAgQIECBAgAABAgQIECBAgAABAgQI1AkIwHVuziJA4AACArAAHDqNBeBQToMRIECAAAECBAgQIECAAAECBAgQIECAQJ2AAFzn5iwCBA4gIAALwKHTWAAO5TQYAQIECBAgQIAAAQIECBAgQIAAAQIECNQJCMB1bs4iQOAAAgKwABw6jQXgUE6DESBAgAABAgQIECBAgAABAgQIECBAgECdgABc5+YsAgQOICAAC8Ch01gADuU0GAECBAgQIECAAAECBAgQIECAAAECBAjUCQjAdW7OIkDgAAICsAAcOo0F4FBOgxEgQIAAAQIECBAgQIAAAQIECBAgQIBAnYAAXOfmLAIEDiAgAAvAodNYAA7lNBgBAgQIECBAgAABAgQIECBAgAABAgQI1AkIwHVuziJA4AACArAAHDqNBeBQToMRIECAAAECBAgQIECAAAECBAgQIECAQJ2AAFzn5iwCBA4gIAALwKHTWACSlFflAAAgAElEQVQO5TQYAQIECBAgQIAAAQIECBAgQIAAAQIECNQJCMB1bs4iQOAAAgKwABw6jQXgUE6DESBAgAABAgQIECBAgAABAgQIECBAgECdgABc5+YsAgQOINAH4DY1TZua9pTapilft01K+V9NalOTutTkr/PPUpPyP13XpTYf1HVFoWnzGKn8OX+dv93l8/qDz1LlZ8Of8uHnV5fK+A9f4/fLOMP7PTj2/vzLu/4ctVzX09ft2ZPX9mKU6/Mmr+fhD7ppj4p5V3v9H7+VAPwxmRMIECBAgAABAgQIECBAgAABAgQIECBAIF5AAI43NSIBAjsREICnbpQAXDWFBeAqNicRIECAAAECBAgQIECAAAECBAgQIECAQKyAABzraTQCBHYkIAALwKHTVQAO5TQYAQIECBAgQIAAAQIECBAgQIAAAQIECNQJCMB1bs4iQOAAAgKwABw6jQXgUE6DESBAgAABAgQIECBAgAABAgQIECBAgECdgABc5+YsAgQOICAAC8Ch01gADuU0GAECBAgQIECAAAECBAgQIECAAAECBAjUCQjAdW7OIkDgAAICsAAcOo0F4FBOgxEgQIAAAQIECBAgQIAAAQIECBAgQIBAnYAAXOfmLAIEDiAgAAvAodNYAA7lNBgBAgQIECBAgAABAgQIECBAgAABAgQI1AkIwHVuziJA4AACArAAHDqNBeBQToMRIECAAAECBAgQIECAAAECBAgQIECAQJ2AAFzn5iwCBA4gIAALwKHTWAAO5TQYAQIECBAgQIAAAQIECBAgQIAAAQIECNQJCMB1bs4iQOAAAgKwABw6jQXgUE6DESBAgAABAgQIECBAgAABAgQIECBAgECdgABc5+YsAgQOICAAC8Ch01gADuU0GAECBAgQIECAAAECBAgQIECAAAECBAjUCQjAdW7OIkDgAAICsAAcOo0F4FBOgxEgQIAAAQIECBAgQIAAAQIECBAgQIBAnYAAXOfmLAIEDiAgAAvAodNYAA7lNBgBAgQIECBAgAABAgQIECBAgAABAgQI1AkIwHVuziJA4AACArAAHDqNBeBQToMRIECAAAECBAgQIECAAAECBAgQIECAQJ2AAFzn5iwCBA4gIAALwKHTWAAO5TQYAQIECBAgQIAAAQIECBAgQIAAAQIECNQJCMB1bs4iQOAAAgKwABw6jQXgUE6DESBAgAABAgQIECBAgAABAgQIECBAgECdgABc5+YsAgQOICAAC8Ch01gADuU0GAECBAgQIECAAAECBAgQIECAAAECBAjUCQjAdW7OIkDgAAIC8KOb2P34ZvMsbD6ZB9fn/Rx1OPHhD7pU+56PLidyrKfTXgA+wN8KPgIBAgQIECBAgAABAgQIECBAgAABAgT2LyAA7/8e+gQECFQKXAJwk5r2lNqmLeGxzSGvbVKT2tSkLjX56yb/OaX8r65LqW2HL/K32nxe/n4+tk2py/90qZyRDx5e+Wf5TyVIXn0/f3MyUo5RsfvrMs6D0Hh//mRwLR+hfJKJV2wAfnYd5QIE4MrZu8xpq8XyZS7fqAQIECBAgAABAgQIECBAgAABAgQIECCQO0CXi4UXAQIEfqGAAPzopgvA1b8KVgBX0zmRAAECBAgQIECAAAECBAgQIECAAAECBOIEBOA4SyMRILAzAQFYAA6dsgJwKKfBCBAgQIAAAQIECBAgQIAAAQIECBAgQKBOQACuc3MWAQIHEBCABeDQaSwAh3IajAABAgQIECBAgAABAgQIECBAgAABAgTqBATgOjdnESBwAAEBWAAOncYCcCinwQgQIECAAAECBAgQIECAAAECBAgQIECgTkAArnNzFgECBxAQgAXg0GksAIdyGowAAQIECBAgQIAAAQIECBAgQIAAAQIE6gQE4Do3ZxEgcAABAVgADp3GAnAop8EIECBAgAABAgQIECBAgAABAgQIECBAoE5AAK5zcxYBAgcQEIAF4NBpLACHchqMAAECBAgQIECAAAECBAgQIECAAAECBOoEBOA6N2cRIHAAAQFYAA6dxgJwKKfBCBAgQIAAAQIECBAgQIAAAQIECBAgQKBOQACuc3MWAQIHEBCABeDQaSwAh3IajAABAgQIECBAgAABAgQIECBAgAABAgTqBATgOjdnESBwAAEBWAAOncYCcCinwQgQIECAAAECBAgQIECAAAECBAgQIECgTkAArnNzFgECBxAQgAXg0GksAIdyGowAAQIECBAgQIAAAQIECBAgQIAAAQIE6gQE4Do3ZxEgcACB1wG4SU1KqWmb1DT91/lfXZdS2w5flJ+3Kbe/ruvK16nL/3SpnJEPHl75Z/lPeazr7+dvlu/dvfL3+rPzgFfjTBx7ffrl6J83avgkE3fw55mPru2d23+5/idHP7zQ7qHHO+/56Jja6//4/QTgj8mcQIAAAQIECBAgQIAAAQIECBAgQIAAAQLxAgJwvKkRCRDYiYAA/OhGCcDV01cArqZzIgECBAgQIECAAAECBAgQIECAAAECBAjECQjAcZZGIkBgZwICsAAcOmUF4FBOgxEgQIAAAQIECBAgQIAAAQIECBAgQIBAnYAAXOfmLAIEDiAgAAvAodNYAA7lNBgBAgQIECBAgAABAgQIECBAgAABAgQI1AkIwHVuziJA4AACArAAHDqNBeBQToMRIECAAAECBAgQIECAAAECBAgQIECAQJ2AAFzn5iwCBA4gIAALwKHTWAAO5TQYAQIECBAgQIAAAQIECBAgQIAAAQIECNQJCMB1bs4iQOAAAgKwABw6jQXgUE6DESBAgAABAgQIECBAgAABAgQIECBAgECdgABc5+YsAgQOICAAC8Ch01gADuU0GAECBAgQIECAAAECBAgQIECAAAECBAjUCQjAdW7OIkDgAAICsAAcOo0F4FBOgxEgQIAAAQIECBAgQIAAAQIECBAgQIBAnYAAXOfmLAIEDiAQEYCbpklN2xSNrutS07YpdfmfLjWpyd88S+Wf5T/lc87fH35cvnf3yt/rf5wHvBrn7tj7cy9H/rxJ5ZomXz/PfHRdr2799TmT1/LkIp911Ffvff3zmmv/ZPx87NPP+uxGDHf20/eLOH4Nl4jrNAYBAgQIECBAgAABAgQIECBAgAABAgQI1AkIwHVuziJA4AACAvD9TRSAP53WAvCnYo4nQIAAAQIECBAgQIAAAQIECBAgQIAAgaUFBOClhY1PgMBmBQRgAXju5BSA5wo6nwABAgQIECBAgAABAgQIECBAgAABAgSiBQTgaFHjESCwGwEBWACeO1kF4LmCzidAgAABAgQIECBAgAABAgQIECBAgACBaAEBOFrUeAQI7EZAABaA505WAXiuoPMJECBAgAABAgQIECBAgAABAgQIECBAIFpAAI4WNR4BArsREIAF4LmTVQCeK+h8AgQIECBAgAABAgQIECBAgAABAgQIEIgWEICjRY1HgMBuBARgAXjuZBWA5wo6nwABAgQIECBAgAABAgQIECBAgAABAgSiBQTgaFHjESCwGwEBWACeO1kF4LmCzidAgAABAgQIECBAgAABAgQIECBAgACBaAEBOFrUeAQI7EbgeQBOqUltalJKTdukpsl/Lv9KXZdS2/Zf5ACYf55fXf5z26bU5X+6/vh88PAqP8sD9QcP/+3/cx0Sz8c3TR4qH3w7zjjGOO7dny/v+PNWlGuafP0889F1vbrBT6PoePKTi7z7OK/ebvLnNdf+6ZsJwJ+KOZ4AAQIECBAgQIAAAQIECBAgQIAAAQIElhYQgJcWNj4BApsVEIDvb40A/OlkFYA/FXM8AQIECBAgQIAAAQIECBAgQIAAAQIECCwtIAAvLWx8AgQ2KyAAC8BzJ6cAPFfQ+QQIECBAgAABAgQIECBAgAABAgQIECAQLSAAR4sajwCB3QgIwALw3MkqAM8VdD4BAgQIECBAgAABAgQIECBAgAABAgQIRAsIwNGixiNAYDcCArAAPHeyCsBzBZ1PgAABAgQIECBAgAABAgQIECBAgAABAtECAnC0qPEIENiNgAAsAM+drALwXEHnEyBAgAABAgQIECBAgAABAgQIECBAgEC0gAAcLWo8AgR2I/AzADepadrUNk1KbUpNalOTUmra/P385/Kv1HUptW3/RQ6A+ef51eU/t21KXf6n64/PBw+v8rM8UH/w8N/+P9ch8Xx805Rxbo5/cOz9uZd3/HkryjVNvn6e+ei6Xt3gp1F0PPnJRY5Er97n1c9rrv3VmPc/F4A/FXM8AQIECBAgQIAAAQIECBAgQIAAAQIECCwtIAAvLWx8AgQ2K/BeAO6j7qsAXHpmYAAew+KnAfhZ/M2XKADHTkcBONbTaAQIECBAgAABAgQIECBAgAABAgQIECAwX0AAnm9oBAIEdiogAN/fOCuAP53KAvCnYo4nQIAAAQIECBAgQIAAAQIECBAgQIAAgaUFBOClhY1PgMBmBQRgAXju5BSA5wo6nwABAgQIECBAgAABAgQIECBAgAABAgSiBQTgaFHjESCwGwEBWACeO1kF4LmCzidAgAABAgQIECBAgAABAgQIECBAgACBaAEBOFrUeAQI7EZAABaA505WAXiuoPMJECBAgAABAgQIECBAgAABAgQIECBAIFpAAI4WNR4BArsRmA7AKaW2SU1qU5O61OSvm/znJuV/ui6ltvy8f+Wfl6fndvnYNuU/dPm88eDhuPZ06o8bjr38IZXxr1/jn/M45+PH95s4tgz7Qv9y1Y8O9AzgTyevAPypmOMJECBAgAABAgQIECBAgAABAgQIECBAYGkBAXhpYeMTILBZAQH4/tYIwJ9OVgH4UzHHEyBAgAABAgQIECBAgAABAgQIECBAgMDSAgLw0sLGJ0BgswICsAA8d3IKwHMFnU+AAAECBAgQIECAAAECBAgQIECAAAEC0QICcLSo8QgQ2I2AACwAz52sAvBcQecTIECAAAECBAgQIECAAAECBAgQIECAQLSAABwtajwCBHYjIAALwHMnqwA8V9D5BAgQIECAAAECBAgQIECAAAECBAgQIBAtIABHixqPAIHdCBwhAF8HyAz/8ym+t7ejSc2T+7OFZwB36f4z1U6oqHGevf/7AfjVnan9lJ+ft4bL51flDAIECBAgQIAAAQIECBAgQIAAAQIECBCIEhCAoySNQ4DA7gQiAnDOem3b9OG161LTtqXCdqlLJbZ2ffjL0S3/7JwB8/evmuB9lOv/nEcZXsM441jjt58GyLs78mn8vX+vd2/weE1Pk+fDH16s3n2vZ8etEToF4Ig7ZQwCBAgQIECAAAECBAgQIECAAAECBAgQiBQQgCM1jUWAwK4EBODr2/U419ZEVAF4cL0htQJ4V385uFgCBAgQIECAAAECBAgQIECAAAECBAjsWEAA3vHNc+kECMwTEIAF4HkzqF/ZPb5+JF4BeC6v8wkQIECAAAECBAgQIECAAAECBAgQIECgQkAArkBzCgECxxAQgAXguTNZAJ4r6HwCBAgQIECAAAECBAgQIECAAAECBAgQiBYQgKNFjUeAwG4EcgA+ndrUlufznvr/NvnP+cG++Ym5bcpP923y1/ln+Zm+ZcFnU577m5/vmxd55p+X17vPAO4fGDz5DOBLVPzuM4Brtn8uOsOqWM8Avv5VsAX0bv5icKEECBAgQIAAAQIECBAgQIAAAQIECBDYuYAAvPMb6PIJEKgXEICfB0oB+PXcsgL4tZEjCBAgQIAAAQIECBAgQIAAAQIECBAgQGBdAQF4XW/vRoDAhgQEYAF47nQUgOcKOp8AAQIECBAgQIAAAQIECBAgQIAAAQIEogUE4GhR4xEgsBsBAVgAnjtZBeC5gs4nQIAAAQIECBAgQIAAAQIECBAgQIAAgWgBATha1HgECOxGQAAWgOdOVgF4rqDzCRAgQIAAAQIECBAgQIAAAQIECBAgQCBaQACOFjUeAQK7ERgDcI54bXtKbdOkpmlT26SU/9WkNjWpS03+Ov8sNSn/k//V5oO6LnX5T+WEVP7ctG3K38w/Kcd3+YjUn9+25fjyr+H7I9Z1SLx83Y8/jv3s2PNxT/TL9Uy+fo5Q8wzgp0H0+r0fXvDFKmIS1Vz/p+8rAH8q5ngCBAgQIECAAAECBAgQIECAAAECBAgQWFpAAF5a2PgECGxWQAB+XmRrAqoAfGV6E7nfSfTr/KrU3Nd1rsy7ECBAgAABAgQIECBAgAABAgQIECBAgECEgAAcoWgMAgR2KSAAC8BzJ64VwHMFnU+AAAECBAgQIECAAAECBAgQIECAAAEC0QICcLSo8QgQ2I2AACwAz52sAvBcQecTIECAAAECBAgQIECAAAECBAgQIECAQLSAABwtajwCBHYj8H/+/s90Gp7v++4zgPPzfvPje/MzgLvx+b4vngE8RsLPngHcbxn87BnAb2+3PNyRzTwDeGI35ObZI4orZtUaWx0LwBU3xikECBAgQIAAAQIECBAgQIAAAQIECBAgsKiAALwor8EJENiygAB8fXd+VtmagPpWlBaAv/prUXNfv3rB3pwAAQIECBAgQIAAAQIECBAgQIAAAQIEPhIQgD/icjABAkcSEIAF4Lnz2QrguYLOJ0CAAAECBAgQIECAAAECBAgQIECAAIFoAQE4WtR4BAjsRuArAXhc/TpsHz1inbeJPu+DHLsF9KfbP+frqlkpagXw1fS/Wek8sez5C78tNff1C5fpLQkQIECAAAECBAgQIECAAAECBAgQIECgUkAAroRzGgEC+xcQgMd7+DhO1oRCAVgA3v/fDD4BAQIECBAgQIAAAQIECBAgQIAAAQIE9i0gAO/7/rl6AgRmCAjAAvCM6VNOtQX0XEHnEyBAgAABAgQIECBAgAABAgQIECBAgEC0gAAcLWo8AgR2IyAAC8BzJ6sAPFfQ+QQIECBAgAABAgQIECBAgAABAgQIECAQLSAAR4sajwCB3Qh8HICbNuVH9ObH9zbt8EVeBZq/zq+uS03bptTlf7qUn7s7/KT8OP/s/OjfjT8DuGb75/IZz88wLgyPXxM/uDo1ZA7VfoaP3vzZRXsG8EeUDiZAgAABAgQIECBAgAABAgQIECBAgACBGAEBOMbRKAQI7FBAAB5v2s8iWxtPBeCrXwQBeId/K7hkAgQIECBAgAABAgQIECBAgAABAgQI7F9AAN7/PfQJCBCoFBCABeDKqXM5zQrg2YQGIECAAAECBAgQIECAAAECBAgQIECAAIFYAQE41tNoBAjsSCAH4D9Obb9Vc9umtmlS0+T/ppT/1aT8s7ytc5PavLVz3tA5/6x2C+imvWyL/HQL6MvS0fNXV8fnVbZvrbS9uhe3m1Hf36TYFcCTWz+Pb7vwFtC1q5erpq4AXMXmJAIECBAgQIAAAQIECBAgQIAAAQIECBBYTkAAXs7WyAQIbFxAAJ4usrURNZ8nAA+utoDe+N8ALo8AAQIECBAgQIAAAQIECBAgQIAAAQLHFBCAj3lffSoCBN4QEIAF4DemyfNDrACeTWgAAgQIECBAgAABAgQIECBAgAABAgQIEIgVEIBjPY1GgMCOBKYCcG56edvnvAV03g46f53ytsvDFtB5N+Y2f2/Ylrn8PL+6vF10W7aI7vLW0f0Z51feXvrRls75gNttnfe5BfS4avjzFcD9GbWrju+nXNQ4b01lAfgtJgcRIECAAAECBAgQIECAAAECBAgQIECAwHoCAvB61t6JAIGNCSwdgNsmx+BLDv1WAH7+/N98U2KeASwA301wW0Bv7Dfe5RAgQIAAAQIECBAgQIAAAQIECBAgQOB3CAjAv+M++5QECDwQEIBHFAG4+hfECuBqOicSIECAAAECBAgQIECAAAECBAgQIECAwDICAvAyrkYlQGAHAjcB+HRKbb7mpt/2uT21ZQvoJm/lXLkF9D5WAD/esLlmG+WXK4An94a2BfSavy4193bN6/NeBAgQIECAAAECBAgQIECAAAECBAgQIDBPQACe5+dsAgR2LCAA55snAM+awlYAz+JzMgECBAgQIECAAAECBAgQIECAAAECBAjECwjA8aZGJEBgJwICsAA8e6oKwLMJDUCAAAECBAgQIECAAAECBAgQIECAAAECsQICcKyn0QgQ2JHAfQBuUkpteyrbPo9bQOcVsnkL6Lxtbv5f/qfr8nHDF2XX6HxmXkybj23Pi2rLVrv54PKzfFx7WW87fn/wavN544FXhuf1uVfHX46dWr97exPKdU++Yp//O3zUx+9mC+hN/HbYAnoTt8FFECBAgAABAgQIECBAgAABAgQIECBAYDEBAXgxWgMTILB1AQH4ca6tCYTX57zovA+mhWcAr/m7UnN/17w+70WAAAECBAgQIECAAAECBAgQIECAAAEC8wQE4Hl+ziZAYMcCArAAPHv62gJ6NqEBCBAgQIAAAQIECBAgQIAAAQIECBAgQCBWQACO9TQaAQI7ErgOwOl0Sqe8zXPTprKjc9ukNuVtmW0B/c4tnbMC+FlDfee9749ZdYWrAFxzi5xDgAABAgQIECBAgAABAgQIECBAgAABAgsKCMAL4hqaAIFtCwjA+f58/xnAAvC6vyerBvJ1P5p3I0CAAAECBAgQIECAAAECBAgQIECAAIGUkgBsGhAg8GsFXgXgvAa4qVgB3HT5rC6V0NYNgbVLqWnbS24dv5//Ii4rj/Oy459B9pxnh+Nvj32Ub29vZ5PGcaduc2wAnnz+78+Pdr4gAXjdX0EBeF1v70aAAAECBAgQIECAAAECBAgQIECAAIG1BQTgtcW9HwECmxFYLQAPVXQPAbg2Do7nCcBX0/sG46nMqr8Ttfd41Yv0ZgQIECBAgAABAgQIECBAgAABAgQIECBQLSAAV9M5kQCBvQsIwPkO3obJ2jgoAD/4bRCA9/5XhOsnQIAAAQIECBAgQIAAAQIECBAgQIDALgUE4F3eNhdNgECEwPYC8M9Vos+2gH5nTenzLaBjt3/+mZPv7tLEBe9tC+jrSD55D3784J27FTGrX49RG/lfj+wIAgQIECBAgAABAgQIECBAgAABAgQIENiCgAC8hbvgGggQ+IqAACwA10w8AbhGzTkECBAgQIAAAQIECBAgQIAAAQIECBAgsJaAALyWtPchQGBzAosH4NT0Wyy//QzgNVcAx8TffFPfCqL5wIeLYLub8yMmydIrXN/6vFYAR9xKYxAgQIAAAQIECBAgQIAAAQIECBAgQIBAhYAAXIHmFAIEjiGwhQA8xsT+vwJwxMwSgJ8rLu0TcQ+NQYAAAQIECBAgQIAAAQIECBAgQIAAAQL1AgJwvZ0zCRDYuYAAfHsDa8PgWyti81tZAbyJ35ja+7yJi3cRBAgQIECAAAECBAgQIECAAAECBAgQIPBSQAB+SeQAAgSOKhAdgPMa3qZph12fu9TkLaC7S/Vs2vbSQIfvX1YAP1Y+n91dtkoez3nYU6+GKe8/+Vp5C+jJiz3QFtBPb8iru7Xeb5kAvJ61dyJAgAABAgQIECBAgAABAgQIECBAgMA3BATgb6h7TwIENiEgAN/ehtow+NYKYAF4E3M+X0Ttfd7MB3AhBAgQIECAAAECBAgQIECAAAECBAgQIPBUQAA2QQgQ+LUCew7A76wn/W0rgNcKm5PB2wrgX/t3iQ9OgAABAgQIECBAgAABAgQIECBAgACBLQkIwFu6G66FAIFVBQTgW+7agLqVFcC11//ppBOAPxVzPAECBAgQIECAAAECBAgQIECAAAECBAisKSAAr6ntvQgQ2JTAogF4fGbvk2cAX4fEZuJxvVPPAJ63Avjx2bUB9a1nEk9c8NTnrpkotdf/6XsJwJ+KOZ4AAQIECBAgQIAAAQIECBAgQIAAAQIE1hQQgNfU9l4ECGxKQAC+vR21AVUAHhxtAb2p328XQ4AAAQIECBAgQIAAAQIECBAgQIAAgd8qIAD/1jvvcxMgkCIDcImgZdVvm1KXv8xf998bX03b5h/1r/Hn/R/6Yx+8xuOvf5qP3coK4Le2f+4/4sOXFcDr/yLWhv71r9Q7EiBAgAABAgQIECBAgAABAgQIECBAgECNgABco+YcAgQOIXDoANylyaj8qMbWRkEB+OpXwQrgQ/y94EMQIECAAAECBAgQIECAAAECBAgQIEBg7wIC8N7voOsnQKBaYLEA/FdOrM9XAN+u9/1sBXB6Y9lskyYeKly0fpbKuQH45YpkK4Cr52n0ibX3Ovo6jEeAAAECBAgQIECAAAECBAgQIECAAAECywgIwMu4GpUAgR0ICMCXm1QbBd96/u/j5lze/I2W/fZMqv0Mb7/BcODkqmcrgD+ldDwBAgQIECBAgAABAgQIECBAgAABAgQILCAgAC+AakgCBPYhsEgATsMzgN9eAdxXw2fPAL5/lvA71XR6BfDjSlkbT+sD8PPPXTODaj/Dp+/1fgB+uS7607cOOX4tp5CLNQgBAgQIECBAgAABAgQIECBAgAABAgQIfCwgAH9M5gQCBI4iIABf7mRtFBSAr34bfvReAfgof1f4HAQIECBAgAABAgQIECBAgAABAgQIENiTgAC8p7vlWgkQCBUQgFcIwJMN1Arg0Mn8wWC1sf+Dt3AoAQIECBAgQIAAAQIECBAgQIAAAQIECHxRQAD+Ir63JkDguwIRATjHtKZt+g/yV5eaxhbQN3f1gAF4cgtuK4C/+wvt3QkQIECAAAECBAgQIECAAAECBAgQIECgCAjAJgIBAr9WIDQA5/jXvReAb5/p+9kzgPPRr1ZwTj//N9/qn0X21XhTE+St7Z8F4E39ftXe6019CBdDgAABAgQIECBAgAABAgQIECBAgAABAk8FBGAThACBXysgAPe3vjYKCsB3vzo7WAFce69/7V8SPjgBAgQIECBAgAABAgQIECBAgAABAgR2KCAA7/CmuWQCBGIEvh+AL8VwMsw1w/bSXX/sUVYAjx8r5k72o6wWN6cuXgCOvJ3GIkCAAHiVY4oAACAASURBVAECBAgQIECAAAECBAgQIECAAIFKAQG4Es5pBAjsX0AAnhdO56wAFoC/8/uzWiT/zsfzrgQIECBAgAABAgQIECBAgAABAgQIECDgGcDmAAECv1lgbgAe1uampm36pblvPAM43azo/WwF8Hj0s4j36fN/8/2vjYJbCcC11189960ArqZzIgECBAgQIECAAAECBAgQIECAAAECBAgsL2AF8PLG3oEAgY0KCMD9jakNqALw3cS2BfRGf9NdFgECBAgQIECAAAECBAgQIECAAAECBH6XgAD8u+63T0uAwJVAWAC+WtXbNG1ZDdylrg+rw7N7S2ht21xb+yf5Xn3/aYS9GtsK4MfTtzZgV/8yWAFcTedEAgQIECBAgAABAgQIECBAgAABAgQIEFheQABe3tg7ECCwUYHaAJxSk9qy7XOfZM8B8u0toLcTgOfE05crgH+siB0nwhDHg+bFnM9QdQkCcBWbkwgQIECAAAECBAgQIECAAAECBAgQIEBgHQEBeB1n70KAwAYF1g7A7elUHhX87grgHDbPDbXLa4r711TwfP783+F97+7DnHh6c32P7q8AvLlZP+d+b+7DuCACBAgQIECAAAECBAgQIECAAAECBAgQeCggAJsYBAj8WoH/+ce/0qnN2bRJ6XRKp6ZJeQvnvLg3/6tJbcoJtslf55/l/7VNWfh7XgHc5a2d8wm56+aVrRNbQDd51XBbtoYej72GfxTmrgNrd72V9MQK1OcB+HGNrQmC1+dMNt7iMTW19rcC+K3P7BnAv/bvEh+cAAECBAgQIECAAAECBAgQIECAAAECWxIQgLd0N1wLAQKrCgjA06uJn92It2KoAPysgK86z6/frCb4f+1ivTEBAgQIECBAgAABAgQIECBAgAABAgQIVAkIwFVsTiJA4AgC//P3f6XTaZsrgO+fr/tqBXDN9s/5HtYEQQF4YvZbAXyEvxZ8BgIECBAgQIAAAQIECBAgQIAAAQIECOxeQADe/S30AQgQqBUoAXjY3vmdLaDbvL1zU3Z6Tm3Zhrkr/yyxBfSRA/DEDta1t7EqYn/6Zm9FbwH4U1bHEyBAgAABAgQIECBAgAABAgQIECBAgMACAgLwAqiGJEBgHwKzA/DwXN6XAXgonp88A3iNAFyz+jff2bdiaD5w4hnAAvD3fj9q7/n3rtg7EyBAgAABAgQIECBAgAABAgQIECBAgMCnAgLwp2KOJ0DgMAI5AP9xalPePrlr22E1cJvavLg3rwxO+WddWeGb4+24zXLummUF8McBOI82vIZzxz/eh7nrAFzOuTr+UcR7vgX0zxI7JwQKwFe/AhORuz/i6Q+/8ns0575/5YK9KQECBAgQIECAAAECBAgQIECAAAECBAh8LCAAf0zmBAIEjiIgANfdSQH4yk0ArptEziJAgAABAgQIECBAgAABAgQIECBAgACBxQQE4MVoDUyAwNYF3gnAeTVwXgGco+d5BXB+BnD+wUIrgO8D66sVwM9X/+a7ELcC+K34OxlF+x9Er0KNHu/RvJ383ALw1n/NXR8BAgQIECBAgAABAgQIECBAgAABAgR+nYAA/OtuuQ9MgMAocB2A0+lUtn5u29Ow7XObmuayBXSff3MN7rvv2wH4zN2VbaTf2QL6x/bPpeFeSuOP7aLzRT19HTMArxF+R1YB2N8bBAgQIECAAAECBAgQIECAAAECBAgQILAXAQF4L3fKdRIgEC4gAH9OuqUVwALwvPv3+dnOIECAAAECBAgQIECAAAECBAgQIECAAIE9CAjAe7hLrpEAgUUE7gPwqWz13JaVwClv+fyFFcAPt3/On756BXDc6t98GQLw3YbatoBe5HfToAQIECBAgAABAgQIECBAgAABAgQIECBQLyAA19s5kwCBnQv8CMBD9G3buwBcvl+xBXQeqITbvhK+swX0pwF4zef/zg3Azaudqj+cT1YAfwi2wPOXP78CZxAgQIAAAQIECBAgQIAAAQIECBAgQIDA0gIC8NLCxidAYLMCAvDnt2bOCmAB+HPv6DPWjObR1248AgQIECBAgAABAgQIECBAgAABAgQIEHhPQAB+z8lRBAgcUGAyAOeVqnk76NSmpun61b8frgBOwzbStSuAx52FzzsMT2wBveYK4DEe1u56vOcAnLcEf/iaxHiq9LXfJgH4a/TemAABAgQIECBAgAABAgQIECBAgAABAqsJCMCrUXsjAgS2JvBWAE5dasqzgT/bAroPwLfP7n21BfSj1bXPAvCa8Tffu3kBuA/pka/o8Z5e21sBeJvR9/pzrWoWebONRYAAAQIECBAgQIAAAQIECBAgQIAAAQJvCwjAb1M5kACBowkIwJ/dUQH4gddN8xWAP5tRjiZAgAABAgQIECBAgAABAgQIECBAgACBJQQE4CVUjUmAwC4ElgrAeWVul7rqFcDXGdEK4OmptOpqViuAd/E77SIJECBAgAABAgQIECBAgAABAgQIECBAICUB2CwgQODXCiwbgP/Keyan/hnA/evZFtD5Z+NriwH40fbUDyfOk2fiRgfb6PGe/iIIwL/27wkfnAABAgQIECBAgAABAgQIECBAgAABAnsTEID3dsdcLwECYQIC8PuUAvDE84ttAf3+JHIkAQIECBAgQIAAAQIECBAgQIAAAQIECKwiIACvwuxNCBDYokB0AM6JsGnasuq33wJ6uRXAeZvp56+fS3HnrJh96/m/+YImVgBPLaCtnRdzPssn7/nyc280AK/l84mlYwkQIECAAAECBAgQIECAAAECBAgQIEBgHQEBeB1n70KAwAYFthKAc6ybCo1TzwBeMwDPX/3bt/Co15pxUwCOumvGIUCAAAECBAgQIECAAAECBAgQIECAAIG1BATgtaS9DwECmxNYJgDnVb/5n/dXAB87APcJOzLaRo71alIKwK+E/JwAAQIECBAgQIAAAQIECBAgQIAAAQIEtiYgAG/tjrgeAgRWE4gMwCUUdl0fOj8IwGNgzP99tHvyoxXAbd5m+uUrbgvot1YAT2z9PO4JHRltI8d6xSgAvxLycwIECBAgQIAAAQIECBAgQIAAAQIECBDYmoAAvLU74noIEFhN4LgBOC7+5pshAE8+2vjuB5MVfLU5Pb7RmpF89Q/nDQkQIECAAAECBAgQIECAAAECBAgQIEDgqYAAbIIQIPBrBeID8F+pyatzF1wBXLaLTq8eqBsXgN+Kv3kGWQH8DGH13zEBeHVyb0iAAAECBAgQIECAAAECBAgQIECAAIHNCAjAm7kVLoQAgbUFYgNw7n95C+j3A/BNpMtbRz943W8BXfLvxLH96Y9LbG0QfCsAP1n4+vRSK2947WepebuHW0C/iN017xN9zppG0dduPAIECBAgQIAAAQIECBAgQIAAAQIECBCYJyAAz/NzNgECOxYQgF/fPAG4D/M3zVcAfj1xHEGAAAECBAgQIECAAAECBAgQIECAAAECXxMQgL9G740JEPi2QEQAzitcm7btE+FGVwDPWQ36cAXs/Y076ArgyfgtAH/7V9f7EyBAgAABAgQIECBAgAABAgQIECBAgMATAQHY9CBA4NcKxAXgYfvmDwLw9YbPuSdORdrrLaDLMd30sV/Z/jnPnidBdE58fjQxo8d7Nvnzez38aALwr/07wwcnQIAAAQIECBAgQIAAAQIECBAgQIDAHgQE4D3cJddIgMAiAnMD8JgHm3alAJz695mOoF94/q8AfDU3nyyFXmQGTw+6Zihf+aN5OwIECBAgQIAAAQIECBAgQIAAAQIECBB4ISAAmyIECPxagf/5+z/TH6dTanJYPZ3SqWlS07Sp9Nw2f7dNOfLmwJuDWjkuL8LtUmrLz3Pwyz/PW0DnL7tyftkNul+q2x88vNq2Pa8orVoB/DQAx8bffMlvbf9cPvfUFMoe1590/lSLHu/ZFVkBPP9+GYEAAQIECBAgQIAAAQIECBAgQIAAAQIE1hcQgNc3944ECGxE4FsBuN/Kua+mYzt9tQV0yajDwY+P/VIAXvH5v2vG38wtAG/kF9VlECBAgAABAgQIECBAgAABAgQIECBAgMBHAgLwR1wOJkDgSAK1ATgb5BXAfcT9fAXwxwE4Lya+gheA15mFAvA6zt6FAAECBAgQIECAAAECBAgQIECAAAECBGIFBOBYT6MRILAjgT4A522e24+2gO4DcL/lc359sgV02RY6vz5ZAfwyAE8vw61dNTtv++fBZafbP1+bPZS9+eZ2nvt7/atXe9939OvrUgkQIECAAAECBAgQIECAAAECBAgQIEBgQkAANjUIEPi1Av/7j3+lU3mW7/gM4LZs+9vmcPnwGcA59jbDM4DnB+DrdPhsC+hyfVfPEv557Je2fy4h+9H0EYC//UslAH/7Dnh/AgQIECBAgAABAgQIECBAgAABAgQIfE9AAP6evXcmQODLAq8DcEmvJfqew/DQYmtWAJ9Op0sv7bqbdjoZgPPq36tnBmeyzQTgycWv8QF4zaD5cvWzFcBf/s319gQIECBAgAABAgQIECBAgAABAgQIECDwTEAANj8IEPi1AjkA/9H2q367tk2n5n4F8CUAt/m4Ul/7xbifBuASkNv2HH27qxW9j6Nuf1vyYc8D8HLbP5f3fzY7Jn4YvPNzuQIB+LNf0zW9PrsyRxMgQIAAAQIECBAgQIAAAQIECBAgQIDA0gIC8NLCxidAYLMCzwNwbr1t2Q66XwGc/1z+tWoALm+YX5NbQAvA0RPMCuBoUeMRIECAAAECBAgQIECAAAECBAgQIECAwJoCAvCa2t6LAIFNCfwMwDn09tE3tfkxwKfUpC41ZZXwFwJwbrvjctoPA/CcFaAvA+h4F60AfrVG+mvzfc79/9pFe2MCBAgQIECAAAECBAgQIECAAAECBAgQCBEQgEMYDUKAwB4FrgNwOp1y801tO0TfU97yOf9fDsD9M4BrVwCPMW7cArp00ze2gM7vd26sKwXg63D4dPvn8hke3fVuke2a1wyaLwO4ZwDv8dfdNRMgQIAAAQIECBAgQIAAAQIECBAgQODXCAjAv+ZW+6AECNwL3AfgU468ZQVwLsE5v8YG4LyS+NxNXwXg4dm/zwPw40Q7J5a+FYBfPBh4zvtPzdIlxnz1Xu913peZ/Cu/eGt6feUDelMCBAgQIECAAAECBAgQIECAAAECBAgQmBQQgE0OAgR+rcAaAXh4gm8xzgH4UdAtPxu3eh7vxhcC8FvxN1/fk+Z5/zGiJteqQfPRh5j8zAJw1D02DgECBAgQIECAAAECBAgQIECAAAECBAjECAjAMY5GIUBghwJrBuCcCcctoAvVsxXAQ/y9aa0/toD+0urfm4v6edOjA/Cq4Xf8OALwDn+bXTIBAgQIECBAgAABAgQIECBAgAABAgQInP+/ubvurkKwIUCAwC8RWDoAly2fh79if0cAjn/+rwBc98v4Fbe6S3UWAQIECBAgQIAAAQIECBAgQIAAAQIECAQLWAEcDGo4AgT2I7BoAG6GbZ0rAnB++vD4mn4G8M8VwHOiX8T2z3lv6DnX8GjmRI/3bHaO7/VwbbUtoPfzi+1KCRAgQIAAAQIECBAgQIAAAQIECBAg8MsFBOBfPgF8fAK/WWCtADy2w7e2gL7a/jnfm8cB+PFdmxNL5wfg/krnXIMAHPfbGH0f4q7MSAQIECBAgAABAgQIECBAgAABAgQIECCwtIAAvLSw8QkQ2KyAAHy5NREBeInouMSYUxPSCuDN/qq6MAIECBAgQIAAAQIECBAgQIAAAQIECBD4QEAA/gDLoQQIHEvgWQBuTvn5vXkz5i41bVNWtpatmZv+sb758b7j833Ls37zq8tbIOev81n9dsjXj1l/ZwXw9fbPZciR/Opx7c1lh+jzDZkbSp/Gz+vb/mQr5LnX8Gh2LTHm1Cx+PwBPImzmF2RNt818aBdCgAABAgQIECBAgAABAgQIECBAgAABAkVAADYRCBD4tQKbC8B32z/nG/MzAD9+zu6c4LfV1b/l/5F6VLsXmrEC8EKwhiVAgAABAgQIECBAgAABAgQIECBAgACBVQUE4FW5vRkBAlsSiA7ATa61eTVwl/8pNfe8Sjh/7lcrgO9X/74bgOdG0i2u/p37mWrmmQBco+YcAgQIECBAgAABAgQIECBAgAABAgQIENiagAC8tTvieggQWE1gqQDc79b8YQDOG0w/WO16uwK4/9P9cXNj6VsB+Mmux0ss0p37mWomkQBco+YcAgQIECBAgAABAgQIECBAgAABAgQIENiagAC8tTvieggQWE0gMgCX1bvDw4Hzf8ZnAI/PCc4f6tkK4LY8O/jn61UAnhtKt7r989zP9ekkeulwE8A9A/hTX8cTIECAAAECBAgQIECAAAECBAgQIECAwHoCAvB61t6JAIGNCUQH4G4IwOMW0CUq9suBy2sqAOd4PBU8+7NzUb6Mc33s3FD61urf4RIe377HzySee6vnfq5P3z+/38Os+/43P33LRY9f22/RD2NwAgQIECBAgAABAgQIECBAgAABAgQIEPhIQAD+iMvBBAgcSUAAvmwn/XRN64sfLhEblxjz2dwVgI/0m+2zECBAgAABAgQIECBAgAABAgQIECBA4HcLCMC/+/779AR+tUBEAM7hsBm2b65ZAVy2jn7wXN/xxjxbATw3kr7c9vj2Ih7Olb0///elwcZXAM+dA7/6LwAfngABAgQIECBAgAABAgQIECBAgAABAgcVEIAPemN9LAIEXgtMBeAcNdtTm1KX82yXmrbfornE2sujfsu2zHlb5/zN0gkrtoB+HYCHAvlgC+g58e9l+Hwj/uatqedcw9QdWmLMd97r/da7nWcAr2n1+jfKEQQIECBAgAABAgQIECBAgAABAgQIECCwBQEBeAt3wTUQIPAVgbkBOK/d7QNcZQDuLlswTz8DWABecnK8DOHvV+ElL3NybAH4K+zelAABAgQIECBAgAABAgQIECBAgAABApsWEIA3fXtcHAECSwrkAHxq29TmiHs6pdOwnfOrFcA5+JaFv3lV7hCAy3W+uwI4R8XudvXs45DX9SuLx7GHL/ttp/uto2te9+fWPv93xiU8vew5n+1Tj6cBeBLGCuBPnR1PgAABAgQIECBAgAABAgQIECBAgAABAusJCMDrWXsnAgQ2JjAG4BJUKwJwfubvuAK4fLQPAvB9vv1WAH6ZMp8ccKQA/NlC35dqq830NWP5ah/KGxEgQIAAAQIECBAgQIAAAQIECBAgQIDALAEBeBafkwkQ2LPA3/78d1n9+0kAzs8DLp03Pwv4/Azc8oeyGLgr/xp+lh8YfFnDW54X3D8ruDxK+Ob1M+T1kfHRCuD+ucP1r5fbHo9Dv1gBGx0fo8d7R2h8z9cBeDvR9/pzfcPsHVfHECBAgAABAgQIECBAgAABAgQIECBAgMD3BATg79l7ZwIEvizwv3/+e9j2+f0VwLMD8NARvxWAY7Z/7j9EdHyMHu+d6SUAv6PkGAIECBAgQIAAAQIECBAgQIAAAQIECBDYk4AAvKe75VoJEAgVyAH4j7btQ2bbPnwGcF7pm5fr9qtum37p7vjo309XADf9CuDyfnkZ8dXrNn5efna/Ajjy+b8v17ROHHCErZ/P9I8+zOvlwKHzcM5g34jmc67XuQQIECBAgAABAgQIECBAgAABAgQIECCwvIAAvLyxdyBAYKMC5wCcq+5pCMCpTU2bUntq837OZavnvOo37++c/5f/GbeAziX4/Azgd7aAzgOPwfEqAE9t/5zZlgrAtfE3X5MAvJ0JLQBv5164EgIECBAgQIAAAQIECBAgQIAAAQIECGxFQADeyp1wHQQIrC5wHYCbP06pf7JumxcDlwDc5K+HFcBbCMBj7KuNfm8/+/emPN/fljF6x9+u2s9VcyXvb/08jv4ymddcxuxz1jSbfbEGIECAAAECBAgQIECAAAECBAgQIECAAIFVBATgVZi9CQECWxS4WQH8x6nfAvpqBXDTNf1q17IAuF8B3A27QPfP8H1/BXAZue23gO5PvQTFqe2f+3foX+UyZi69fRo9r2/Q09YZH4Dnfq6auSUA16g5hwABAgQIECBAgAABAgQIECBAgAABAgT2ICAA7+EuuUYCBBYRuA3AeQvoftXv9RbQubn2/zcjAJftod8JwD/La1QAjln9u8z2zwJw/fT+hl391TqTAAECBAgQIECAAAECBAgQIECAAAECBNYQEIDXUPYeBAhsUuBv//zPsOq3SekPAfh8kyZXAMev/s3v+Y2IaQXwJn8lXRQBAgQIECBAgAABAgQIECBAgAABAgQIBAgIwAGIhiBAYJ8C5wCcl/yemqsVwF1qT6eU93uevQK4u0TT51tAP66u+bslVl6NU6O91e2fBeCau3k55xvxfN4VO5sAAQIECBAgQIAAAQIECBAgQIAAAQIElhYQgJcWNj4BApsVGANw3vO5iQ7AQ7DtnxXcv74VgN/e/nnlZ/+OLt+ImFYAb/bX0oURIECAAAECBAgQIECAAAECBAgQIECAwEwBAXgmoNMJENivwOIBOPUriMfXdAB+YjgOMGMFsNW/D3yvb8z9j29C+NMq/vXJ/414/vUP7QIIECBAgAABAgQIECBAgAABAgQIECBA4KmAAGyCECDwawX+9s9/l22f56wAzoU3/y91eavm/J8m79bcbx2dv59/MLy+EYCt/r2d3kdZ+Tt+KgH41/715YMTIECAAAECBAgQIECAAAECBAgQIEBgUkAANjkIEPi1AvcB+I92eO5v++AZwMNq3q4E3xx386svvfMC8OUZwfc3Ise9cz6uXAEsAAvAv/YX3AcnQIAAAQIECBAgQIAAAQIECBAgQIDALxUQgH/pjfexCRBI6ZMA3OaVwqlLTwNwPqJsLTxs/Vzq7YMVwOfv9z97tIrzvFL1UoAfHvfsPr4df28v827I6UA9Zw59Y+XqS4+Huz3bAnrOfXYuAQIECBAgQIAAAQIECBAgQIAAAQIECKwvIACvb+4dCRDYiMCjANx1TWofrAA+dAB+2jh/cwDedvzNv0bfCOkb+fV1GQQIECBAgAABAgQIECBAgAABAgQIECAwISAAmxoECPxagRKAU5tS26bm1KS8BXQOwKdTfixwm5fz9s/ybVJ6GoC74RnAbX/w+AzgfvHvoxXA+XuX799HvJuVqpUrgF+udr2+65Odc5n4+61w+dLkh4MA/Gv/cvDBCRAgQIAAAQIECBAgQIAAAQIECBAgsGMBAXjHN8+lEyAwT+BHAG5OqUvvB+AchkvszU8Ezv8VgN++Id9YuXreVnvqKgXgt++fAwkQIECAAAECBAgQIECAAAECBAgQIEBguwIC8HbvjSsjQGBhgb/9+e90ys/2HVcAfxSA+9WxYwDOT/4dlwtfVgDfFsW2bfNThIfFv49XAP9YpVqxAvjlStdr1yeLXMvjjBd4rR1/3/LYwfN/13Zb4NYbkgABAgQIECBAgAABAgQIECBAgAABAgRWEBCAV0D2FgQIbFOgBOA27/fcb/lctoBOKZ1OeevntvxfrrU3W0D3631T0+S1wk05vslbRefVv/l1jsL5D7eRt6wYPn/7ZwC+D3y3O0i/vx3zW8FzvCW/YPvnlyt/b2/VzX3b0swVgLd0N1wLAQIECBAgQIAAAQIECBAgQIAAAQIEtisgAG/33rgyAgQWFuhXAPcBuP3jVFYDXwfgHHP72Ns/A7jruj70lm2fxyCbj8kFebjYyQA8DLRwAH47/r58vO37wfnT27R2yHwagHew8nf0Xdvt0/vqeAIECBAgQIAAAQIECBAgQIAAAQIECBDYhoAAvI374CoIEPiCQHUA/qtfAdwH4nkBeIx6j+LepyuAH64gnnJ9GoCXi7/5ctYOmQLwF365vCUBAgQIECBAgAABAgQIECBAgAABAgQIfE1AAP4avTcmQODbAvcBOK/yzbEwL/It2z+3/QrgdlgJXLZ7zj8cAnC/RXRe/PtqBfAQVMeH6uaHBA+v1wH48bOC7+3i4m8eeZkAvHb4vTd+f7Hvy+XRX5m63/L7yof1pgQIECBAgAABAgQIECBAgAABAgQIECBQLSAAV9M5kQCBvQv87R+XZwC3p1Nq27bE3LYdAvAQfksAHp7fmwNweeZvXgE87Pv8PAD3MbHEu4kAPBX2+hXAawfgZeLv2eALk8YK4C+ge0sCBAgQIECAAAECBAgQIECAAAECBAgQ+JqAAPw1em9MgMC3Bf7253/SaQizJQCX0NuWANy2p/I84PMK4DcDcDeU4v6RwHmEuwB8u69zic5Tr3cDcNzq36trXeDmrL2C9Wn4HT/f+8uCFxD5bMi1/T67OkcTIECAAAECBAgQIECAAAECBAgQIECAwFYEBOCt3AnXQYDA6gJ///O//XbPeeVv214CcJNSe2rzRsg3Abg88/dqC+jLCuCyxLdcfw7A5auycvdu9e64jPgqCj+LejUB+OXmxZ79ezvPBODVf++8IQECBAgQIECAAAECBAgQIECAAAECBAgsKyAAL+trdAIENiyQA/Cpf+BvXvJbVgOXFcD5W6e8MvcqAOetn0vZzUuBuxKLx3Z4HXEvAfivm09+3gL6agVw/t7cAPzR6t8SpqdvyLhD9RK37BurV4+y9fN4P75huMRcMCYBAgQIECBAgAABAgQIECBAgAABAgQILCsgAC/ra3QCBDYsMAbgHH3TqQ/AOfBeB+A+CvcrfN8LwEM27p4H4DHmRQZgq39vJ5sAvOFfPpdGgAABAgQIECBAgAABAgQIECBAgAABAosJCMCL0RqYAIGtC/w9PwM4b/9cAnCTTk3/dV7b2/5x6mPwuLvzXQA+h9subyHdb/+cl9eWFcBd/vNtAO4Dcv8g4euVtnMC8M3K43ewf9H2z5lDAH5nUjiGAAECBAgQIECAAAECBAgQIECAAAECBI4mIAAf7Y76PAQIvC1QAvDp1G/0EZ42KAAABi9JREFUfGrSH+2pBNrTqd8SOioA5xCZ22sfgLubbZ9XC8Bfir/f3LZYAH77V8GBBAgQIECAAAECBAgQIECAAAECBAgQIHAgAQH4QDfTRyFA4DOBfgXwqSzJbf/IW0C3JQC3pyY1VwE49+H+eb3D+GUV7/CH8wrgrn+87oMVwNcBeBxivNKpQHp5VPCl3F4fu5fVv98IwE/D7wj/MIi/3ET7swkWfPQ3LIM/guEIECBAgAABAgQIECBAgAABAgQIECBAYAUBAXgFZG9BgMA2BS4BOJUtn+8DcN4AuqzdLQuC++2bSwzO/8qvodL2sbgPwOXrv/JXt+E2/6nNgfnu+1MyzwLwXuJv/mzfiJZ1AXjb8fdbltv8zXVVBAgQIECAAAECBAgQIECAAAECBAgQIPBMQAA2PwgQ+LUC//jnf/somwNvDsA5+OYVvPlb+dnAbwTgshD4qgdPBeCyMrgc+HhF7/1NuA/AVv++P01fBuAdrv4VgN+//44kQIAAAQIECBAgQIAAAQIECBAgQIDAbxcQgH/7DPD5CfxigX/8+d8SevPq3ubUlgBctoMeA3CXv/irROHrFcDnNcDleb79ts/51T/nN28jfbsCuG3bYfHw/ABs9e/rCTsZgHcafsdP/I3V1K+1HUGAAAECBAgQIECAAAECBAgQIECAAAECWxMQgLd2R1wPAQKrCfzjz/+UAHw69c8BzltANzkGly2fT0PR7VIOuGPizcd3OfwOxXcMwGNbvA/A/bODy0bS40Lh8+d7FvT6FcA/VwvHBeB+7CWj4pJjP5skAvBqv0LeiAABAgQIECBAgAABAgQIECBAgAABAgQ2KCAAb/CmuCQCBNYRKM8APp367Z6bJv1Rlv7+DMCnU7+qt4TF/CjgEoDPTwIu5zwKwNfxt8TWq4/1Ko4+CsCR8ffV+8+5A0uOXRV+x5N2tAL4W4Zz7rtzCRAgQIAAAQIECBAgQIAAAQIECBAgQGAbAgLwNu6DqyBA4AsCf//z3zcB+NSe+mcAlxXAOfrm4NulSwDO3yoFODVdf1x5jSt8x290512hz6t/cyE+H//Gytv7AFyuZ3g97Jj3fk8PGmL2QubfipdHevbvtwwXmhKGJUCAAAECBAgQIECAAAECBAgQIECAAIEVBQTgFbG9FQEC2xL4xz//02/vnLd+zs8Azv/N8XfYCro867f8OV93vxX0X+XL2wBconBZ4duvEL6OveP2z58E4D7+nv81ROnL+uF5AXjZ+Fscrkv3irdcAF4R21sRIECAAAECBAgQIECAAAECBAgQIECAwGYFBODN3hoXRoDA0gJ9AM6R9zoAN6nNq4BL9c1BuCt/zkW2f/5vH2absqJ3eDLwXQDuN4e+PGN3XM17HUZfP//3cQCeF3+Ha18w0H4r/uZP9tmzf8fZ9Zbo0lPxx/jfdFz9w3pDAgQIECBAgAABAgQIECBAgAABAgQIEAgVEIBDOQ1GgMCeBP7813/72Juf8ZuadGrbfvVvab85BJ9S6v5K592Xy7bQ/QrgPgrfbf+cVwaPx+RIfPVs4PMzhAegdwPweNzL1a0j/Be3fu45rp90vM5seGmzo2f/jmLfcFznbnkXAgQIECBAgAABAgQIECBAgAABAgQIEFhaQABeWtj4BAhsVuDPf//fsla3PbWpzc//Ld23X/Wbq+91AC4xtzz/tzwW+Ofzf4ftossPxlXCEwH4Vdy7XjF8fezLtapvHPDqvefcrCXHfnZdAvCcu+ZcAgQIECBAgAABAgQIECBAgAABAgQIEDiagAB8tDvq8xAg8LbAn//8vykv8s3P9s2xt6wGbvpVvOX/chLOq33LAuH8fN8m5YcAN8Pq3vxGOQqXADlG4euvbx7le3n27svVv2Xg/viXcfP60/7C1b/54780sgL47d8JBxIgQIAAAQIECBAgQIAAAQIECBAgQIDA/gUE4P3fQ5+AAIFKgX/+6/+VAJwDYpv/l0Nwm/ptnHN87fKa4L/S6dT2i3qHAFweDzy8SgAeV/+OxwzxNv9xWAzcPzd4fFbwk22Sx+MvO0wPzxl+9Rl/6erfnvyFkQD8avb4OQECBAgQIECAAAECBAgQIECAAAECBAgcSOD/A3ESUMEsZJsPAAAAAElFTkSuQmCC;strokeWidth=10;sketch=0;" parent="1" vertex="1">
                    <mxGeometry x="200" y="280" width="1920" height="902" as="geometry"/>
                </mxCell>
                <mxCell id="TS6xKIsJITg3z22UG14p-49" value="" style="group" parent="1" vertex="1" connectable="0">
                    <mxGeometry x="540" y="450" width="995" height="699.4823529411765" as="geometry"/>
                </mxCell>
                <mxCell id="TS6xKIsJITg3z22UG14p-3" value="" style="shape=image;verticalLabelPosition=bottom;labelBackgroundColor=default;verticalAlign=top;aspect=fixed;imageAspect=0;image=data:image/png,iVBORw0KGgoAAAANSUhEUgAAArEAAAIRCAIAAADSpHKUAAAgAElEQVR4nOy9bW8bV5r32Z8gyBcIUATmbb/qLSLBjuIGxkkAyy9MaxawxhgQStxqud2y3Nbw9n07ihFwbWiU+G6FDqHQErSKPVrajrDU0qFn5JueVsxs5KYDqelYgpS2htbIzaSloW3RjGNFD+SeUySLxUOy+FRVh5T+PxCwWCxWXaTk6/rVeaqfvVfH9AAAAAA7At4VtSx+xjuAHHj/ygAAAACD4F1yC1AXTsD79wIAAABwg3cRzsLTCXj/FgAAAIA6gmNFTsHBCXh/5wAAAED9YnxdljHUCXh/zwAAAEBjYGR1ljHICXh/twAAAECDYUyBVqK7E/D+SgEAAIAGRu8yrURHJ+D19b0LAAAA6AOv0qZfsVaiixMY8wXx/sMAAAAA0hhT+PQo2Uq0dwKdvgjev24AAACgMnQqiJoXbhktnUDzj837twkAAABog7b1UcParUQzJ9Dwo/L+xQEAAAB6oWG51KqCy2jjBJp8Nt6/JgAAAMA4aq+bmlRwJRo4QWPZwGkAAACgDIypSnWlBbU6QZ2oAO+/HAAAALsLDUvYu3VjBjU5AS8b4P2XAAAAABSAoxlwdgKDbYD3LxoAAACoDIPlgJsTGCMEvH+bAAAAgDY0hBZU4wR624Aev4z/AQAAAFSIHvWons2gYifQVQhq+ZZ5/+UAAADYRRhmBkZqQWVOUFc2wPvvAQAAAMhSb2agrxPoJATGeMB/BwAAAMrGSD+oHy0o1wn0EIJaVID3XwsAAACQQ41yoIcW6OIEmgtBRSpQ4y/pFAAAAFADmoiCVmagqxaUdgLjhaAKD+D9BwMAAGDXUZ0f1LMWaOwENdoAPAAAAECDUpEc1GgGOmlBCScwTAjqxAP+GwAAgJ2I3uWDQRMz0FALjHaCqoVAbxXg/XcIAACgsdFbDupHC9ScQG8hKDluAOUfAABAfaKtGagMNdBKC2pyAv2EoJzZBHpIgA0AAACoHA0VoRwzyJcDTbTACCeoSAjKWV2gUhUw8s/inwAAADQaBlSHSuWgHC1gzMAYLSjsBGUeXd0JCtpALUJQyy+M998kAACAhqRqS6jaDKrQAh2dgIsQqDQJoPwDAACoK7Tyg3K0QGkGemtB9U5QjhCUaQMXLlyYm5vb2NhIAgCAzmwAUB88ffr0ypUrBmuB0U5QhRBswAYAAEbBuxAAkAPRgmINBpVqQZnluwInqFEIZCcov79gbm6Od4oAAOwieJcAAHJ4+vSpSj9CQS2osalARQuqcYKKhKCYE8i9KRtoJAAAGAjvEgAAi/rwgv+Rh35NBT+rVAhUnKBSIUhN2+CdHwAAuwve+R8AFuUkRr5aULETaCIEyqmcvPMDAGB3wTv/A8DCLG9QphbUtRPkh1uOEMAJAAAGwzv/A8CSvyoiLy34mU5CUNAJ8j+2zWbjnR8AALsL3vkfABZboeWTa+lB4OkE+V0G5QsBnAAAYDC88z8ALPLSRgZrQU1OUEuvQX6XgbzAE+/8AADYXfDO/wCwKFc8LDm2oMwehHKcIF8LflZjI0E5vQYqQtDd3c07PwAAdhe88z8ALKQUFmsqyNcCXZsKynWCqnsN8oVAdoJuCd75AQCwu+Cd/wFgSVVDzbXAaCco2UhQTAj+6Z/+qTsD7/wAANhd8M7/ALDIBTF1d6WSWlDQCTTRgp9V3XFQspFAuTARIwRwAgAAL3jnfwBYlE5QUAvylzMqUwt0cYKCQqDuBAWFgMAIwcmTJ3nnBwDA7oJ3/geAhZRCRgsKNhUotaCOnKBMIch3gnwh+N3vfsc7PwAAdhe88z8ALCdOnMjXAqa1IP+eCAWdoAotyHGCciSiIidQFwKlExAhIF8E7/wAANhd8M7/ALCQUkgKIuMEJbVAj6aCip1ANpGKnEAeRiA7QUoI4AQAAIPhnf8BYElVQ1kLSjpBSguKOQGjBRo7Qe2NBAWFAE4AAOAC7/wPAIvsBOpawDiBhk0FVTqBeiOBMlylEDBOkBpGkPoKurq6eOcHAMDugnf+B4CFlEJZC1IDC5ROoKIFWjUVaOwEjBDITsAIASElBHACAAAveOd/AFiOHz+ubCoghVJZN5VaUEdOcFpBdY0EJyWUTtDZ2ck7PwAAdhe88z8ALKQUppoKZCdQakFFTQXKSl3FkIISTlBmx0E5jQRyr0FKCMjnJ2YEJwAAGAzv/A8ACymFpCAyWqCclFisqYCgbVNBuU5QfiNBygnkz6DiBJ0SvPMDAGB3UV3WjgRGet7eKwqCIO5t7XYFImW8ZbxdEBzB6s5XE0EHOfHd/O0Rz1FBRnzT2jMciLwwPrwdxPp/bf7rbzaHXtq8+NLm//WbzW/+q7rDpKphl4TSCQpqQb07gUojAbOS8e8ypD45+Qp++9vf8s4PAIDdRRUpO+LtFAVLz9XAfCQafRh0v98qip2eh6XeVasT0BLePl6GfbCoOkGvP0qJzAfc9kOieMgRXKvlmLuZ+Oa//t3mUNvm3IONJw82b7ZtXvy7zT9XcyBSCmUnKDgBoaKmguq6D3R0goJCoJyCKHccwAkamtmL+03m81PrvOMowvrihNPW8rqJ8HqLbWj6ieK12OzlzEttPddmY3lvji1PXuw6dWOV2Tp9sesNc+qAlwu8CzQClWfskGuf0DwQUmyJ+roF4Wwgrvq2OnWCfkVEa0HHAaG5P6j+QVSPuZuZpi0Etx9knj7YHH1p81+nqzhQygmY7gPmxkjlNxXo7gS1dBx0K1BON0gJAZygkZkdaqZF9cwtfrVxxmkyOacLvvTI22U2tw1MPliNxR5NOY+YTQeHZtOvLV9rM5lPXp5+RF6avnzSbGq7tiy/8cnsxIUOSRdMHdeVTrA+faHFdPCMd241/a7sAUEjUXnGpuWwdTSs3BRdCARmIplSGp8ft1vfFGm/wtt2X6b9gHWClaCr29IkCMIei204FM0eLD5/w9FJ3y40HbC57kiv3HVkW/mFds+y2onSB++kXRvim52uO76+Mp2AfJCJHkHo8UcVx0kFKe61nvWFX8gfRCbzidbmPWet0imze6YI+9MfR3zTah+fL0M4GhTJCQJ/yTz9y+b/Xb0TyE0FzPpFBbWAKbvlrHOsgRNU0UhAUMb9T7l3NziRQXaCY8eOGZAC/tf/+l8GnGXXMeM0m845L+w32Sa4SUFxJ5gdyK30S9cOm8zOb6Sf54b2mzq832de+t7bYdo/NJd6suo9Zn6jyzkxN3GecYKc3ZLJ51PnzFx9aCdizH/VyjN2PNArCmKn+1604Mvh8U5RtDoC4Wg07O+1CKI9ILXG5ziBdEVuec8TikQj99ydomDNSIbi7ZHQeI9FsDhm4hsv4tHovLtdaB+dj0ajcdUTbcRD5ODiiZHgw2j0YcDxNq3HZTrBxkNPuyA6ZlJBBuyiYOn101AWfH3kmL1SWwiJJeonntHnz8biOSGKbzsC9Ix+umem1SQe6CPH6JOOMX+jj0TZM1H4e9sBbN78u82Rf95Mfb57/1x13wEphYwT5N8BoTonkLWAjxMoGwkIxRoJjh8/ntIiA5yAZBkSid5n2X2sT31gNvVOrdP6empC0Sy/er0jp07TUqoowI8mzh2hre/mt7qGvqZ11zlT+l2xb66daZMu3X/ZcuritFSHSfE2ZbnAiMH6rGdo6FZWCZLPJ88oz9WsvMSnDR6Z8r8eS1f5aSfjBNQ/zik6SmKTPfnnBTVB/qsaoAXV5OwXYd/7rWJ6XJ4vpGzOj/p7RMF2Qy57tKMh1eCvdIL5YYuwzyV3P0Rv2Eghll4KOnLevhHsF4XTqev23L6D4iei1/qyHxDW/D3lO8Gypz2zc3yyr/VwNsjwmLKdI6fvIBWLbyWz6z1Xc6YxI9gvCEc9maDjoXGXayKniWVHsf5fm//P/0YHGNLH323eq3KMYcoJCHL3QX5TgS0XzbsPNHCC/I6DYo0EhPxGAgOcICUEcALtWZ86Ryrkl+u5BZWiVt2fT59vlhvtpfb8cpxgibb0d12ZXY3Flmcud5lNLcO0oJPqHZskUnF+kvzwvFTA1F3OTEr1fvnKYdMxr6LaU73I7SZIluEEyekLJtPJCeZtoBZS/1v11oKq8398OegZ6Ek13bd+GEgXZ9rI3+nLWkI8cDZddxVOQIux+LFiRMKiuzVVRFM/FB6umOsExU9Ey/AJxSvljyfYyHECdu/xok7AnjEesMtiIbUT2Ib985Gd22kgE2jbHPnd5p//QscY+n9DxxtWMfxD4QRMU0HV3Qencym/qaC0EzCHLt8JunMx3glkIYATaE7sFrnqTpdYOtJQ0UqvUt3pS+ZzU3L9Zq7dVd6leGl16vLQ2HT6Yl5lPEEOdABByiSSqVpehRMwfQfJZdpQkXMcUCvyf1hdtaD2QhAJOKyk7g3SGh+n1+R5SPVSUVPnRw7k7yS12NNKLw8XYM+jdAKVE9EKnVPpK3ECZd+BcsolM3og55hx/3sFYun0pkON3skcZI+152pox/YcPPnXzYt/s/knWX3im//v32x+9q9VHKkcJ2CaCurCCdQHGJbTcZBau9AAJ1AKAZxAa2ITNpOpZ1IuzGbT4WtL6ddUqnvehTWtu2W2E7R94J1+FGOnOJTlBKmxgc7ZzJurdALaWWCWxxhee/+w2Wwy/R59B1qi/D+rnxZUnLBX5gOBEHPRG/ww00JOi7rdvxLNhe7NtBNYL4XYnV5U2k5Q+ETUCU77FaW3AiegvRiZMYb0El/sHLkbjr+Qz1i8neCsP1ogFgUv4uG7I3QS5/C86vfbsMz+8+bFf9j8TrEl8A+bQ/+8WfmRlE5AkMulSveB+oKGHJyAuRFi+YMJlE7wm9/8Rqf/9nACHXkycSpnusE0kYL9mavw4tV9faqX6YAvzwmUswrNb3RdmFzeyuxWhhMsX+8ym7u8jxRbqus7IDx/4O2VxjX8su3c9dmJ3uynBppQp06w6LYKon1SWfGkdvtU4/mKzyY0991RvEqqo/Svsu09NNBMHELRrx6Ppjvj2fEEoUvtrR+mxutJTjCWeVPxE1U/niB3LmLuUIBUy0SOE/TdyZyZmMS+PuXCBtGVVCxhz6lW21j2gzLH3FF8d2Xz4v++uZDdsPn532xe8VRxJFIKlU5QzpCCkrdJ5OAEKkLAzDgo5gRHjx7V6b99En0HurE81mbKJzNqr0Q7gdy6IG0o0wkyrMcWJ84fNJnfnyyz7yBfCJKFxhgSp+lilyIo5AQ50IEU0ogKoBn12ncQD/ZbBNHaN55asyjkG2hvyg6nj4c+pq9K0wGi4bvungOiTXoppz9+2UevmKV5B9HIvP9jq3jIFZIux5XzDqSB+hbH3VSNjvpPk4Lqzkw8KHoi5byDyIK/xLyD9JpF4dCNEVvumkVSm4GlbzwUjswHrtpbRWXfgbRIw4eBSCQdCz1jat5BNBy82mMRbX7JcsKjVkWQtJ3AenWnjjH8r83P/iYznuAvm4Hf0a6EYDXDDEkpLOYEVc8+yG8qqMkJKh1gqNJIIDuBvHyhMU6QxBhDXaB986b3J1ZjCr527jeZU9V9/ctzOWPxFi8fzlR3OgqhyHgClXdNXzx8eGBafiXHHqgTnC/mBOszzhZTi3Mmr2zT8YZtcmeH1DehHCiQooQTUNtodk5DCTTFACFI1r62sdBkOdozckfZSy4vG0CXB3DcSM/IL7o+gdBkPT0SXCnw9iZrzpHj90ba9wiKoYWFT5Q+eJnrE2RoOtCet7ZxNDRss+yRAjnrmfc7REW/RsQvWYLoSA+VlNcnEMS9nQ7fQrZbXRHkjh5PQHj+l5y1je/9pfRbCpHvBPLiRUonqLH7QAMnKH+AYbGligre90henEBvJ0hiLqLmSBP98xYvlFYB+kDaKvUstHwwuUynCVw7c5Cu/ZO+4l+fdR5MzztYXZxUzjtQeRfRBbOp5cx1Ou9gNdVO8EHm9LS67z//5erqk7ziTNcsMrV9OhvLIbXb6sRJs/mIc0pes6jAUMHCTrBOwpub9H7QZi5oG6A2DBCCJO6BBOoPUgrlJQqK3Q8pv6lAvfvAUCdQH0xQphP85je/McAJklizSFPoLIPmAuv30Q6FjCrEvh7qektaAbjtnHfycu76BJMF1ydQfxd56dTBzPoEyvEEydXJ//MwPdoAG5HUnJCHXPufz17racuubVxgKmNBJ5AWRfhlS0fP5SnMN9CBel2zCAB9IaUwNaRAVycoZ4kCbZwg/75H+U6QagyRnYA4kWFOAOoU2uSQ32gPgL7wzv8AsKScgJRFpRPk3yOxFicos6mgAidQmXRQzAlOSsAJQJrViVNvdQxJtyBI9R2YseYPMBze+R8AlpJOUPDWycw9EnV3AvXBBIwTKIUATgCKEfv68hmp78BkfqOt1/ug5PqDAGgN7/wPAIvsBMobJCqHGZbvBLIW1LUTyJMO5FskwwkAAFzgnf8BYMl3AuWQgnp3AvnE6gMMT2ZQDjBknKCjo4N3fgAA7C54538AWEgp/I1ESSdQGVLA2QkqGkygdAJ5BUM4AQDAeHjnfwBYlE6Qujsic4NElaaCYsMMtXSCfCEo0wmKdRwUdIKjR4/CCQAABsM7/wPAQkqhPB2xUieoaJghnAAAAHLgnf8BYIETwAkAAHzgnf8BYNHWCVS6D+rOCZR3RIQTAACMh3f+B4CFcQLlUob17gQFJx3kOwEz6SDfCY5KwAkAAAbDO/8DwJJyAuWdkAo6QUoLGtsJTmSAEwAA6gHe+R8AFnUnIDSME/y3DHACAEBDwDv/A8BShROktKCunUAOFE4AAKhbeOd/AFhqdAJZCxrVCY4dO5b6/L/+9a955wcAwO6Cd/4HgIWUwlRNVN4xuYGdQNlxoOIEqc8pTzqAEwAAjId3/geApaATkKvonewE8h0R4QQAAI7wzv8AsMAJ4AQAAD7wzv8AsBjmBCVveVDYCfIPBCcAAOwMeOd/AFjKdwICnAAAADSDd/4HgKXxnIBZ2BhOAABoUHjnfwBYSjqBcinDxnMCOXR5YWM4AQCgTuCd/wFgIaVQecuDhnGC/64ATgAAaER4538AWOAE6ZsiwgkAAAbDO/8DwAIngBMAAPjAO/8DwFKREyhvg9QATlBwgCGcAABQJ/DO/wCwFHQCQtVOkNICOAEAAJSAd/4HgEXpBMeOHct3ghNFli3aCU5APjCcAADAC975HwCW2p0gpQVwAgAAqAze+R8AFjgBnAAAwAfe+R8Alt3oBPKHhBMAADjCO/8DwAIngBMAAPjAO/8DwAIngBMAAPjAO/8DwLIDnUAOEU4AAKhneOd/AFjgBHACAAAfeOd/AFjgBHACAAAfeOd/AFjgBHACAAAfeOd/AFjgBFo6wY8Pb7v/p53E0Pvx2O2HP6a3rs1cst1akndSPqU/O29HskdY8ttu/WftgSigp7CN3f8xZ+N/3iJRKk9EIh/7uJdGPvz5zMqmvP3Zny7ZPs4J8Jbys2jDs5l/sbH4l1Jx2v5l5pkibPkpDUyJcjeNWLppG59Lf2+bf/5ccYqlCdv4/I9qYZDfY5o+59gXSz8WOn5tFP/S6O/o0syaYtc/Xbr0p3TsJDD55/yn2iP9+SlIB6b83sh/lq8eyd8QG7xOFP6vmnlx3mP7KJD9q8/+NrX+e+Od/wFggRNo5wTff+Xs/3xeShWba/Of9w8Ho9L2Ek5gsw0HH2de1MkJlKcg0T34t167XXGiyG3nxxPza1QFNqMzbvulmSfpV1K5e/iP2QB1cAJlqLkHV3cCv16BpHh2z23/Q7owLPnJN5b2gGQ0eHEw/X0WCyNbazefzf+b0+57sJm/kybkf2l15wQF/mCU39uP3391Sf5ujXGCYv9VU/xwf6z/o4/6lSqsV2y88z8ALHACzZxgc2HcdjOb/R7P3Q7+p5TnSjjB2LjHrkzZ2jvBv0xMDCuy3o/z4/Zbt27KJ9p84LONL+S0DcgXSTR3fzY+bpdT4S5yAlr7L81Itf9xcPDzW/6PJh7SJz/OjcuuUNoJKJHbTNXRkMZ3glSbR+av0QgnKPpfVeLH+2MX/7g07/koTwrgBGDnAyfQrp3gB1JrneN/ivy4nbu9hBPcWlq77+4bn/+BbtDHCWYi98c++iKd4X6kPy/N++QTkYqVm+kitz/KLb3kirnXk7qQ201OQD6s/XN6gU8Cu3L/2X/eckqqFPmDXe5TKM8J6FP3PX1Kb+M7AYd2gmL/VaXQZv6F2gA1P/Y3CycAOx84gaZjDH+IBH3DH9p7nZ/dfiBn2pJOQK5Upi+lmpd1cYLB4GPaHJq67HkcpG0Gqldmkkbklt7HM/9i//zPm/XlBAo0/tLS/Djvsd96RMvDxT8+Tm4++Jx2GTyeucT2reSHYVzpLewELHUynkA+V8739vG4YgiLQeMJCv9XTdLGoeHU/xTanDaR2+UDJwA7HziBDvMOtjcfL94a7nPfT6WPMpxAKtUfTTzc1Gc8ATkFHUMwsbhJUx4dW6B0gtLtBPQnmisnln6qJyfQvZ0g+fiPFy9NrzzwpZqRyZfmvv897XmRG5XRTlB5eOmQ0t8b2aH/1lK29BrlBCmY/6rSbzzTcfbj/c9skgfrGBvv/A8AC5xAMydgeiWz2fbZfbdtIpsWn8xckouKImNuPrrl/PjWLZ9OTiDNNfDNL33xkTQHQekEdDyBcmICyddyq6mi5m1G/uB0/uHW50Y6waNb9nSPvsTDCduV+0Y6AQ3g5q1bfemoSMH4/N8mlAMGG248QeQP9kvT2W906aZuslI0vHRI8t/Vg3+zK74rI5yg6H9V+pvKbWDxzCvmJMAJADfWF+aedf/qpyePi+1AXiI7kN1qPBGcQDMnoB2Qw7eXpGEByR8e3PrYTq/LKaQA293Tj+mT7R8f+ElljaSLSk7G3Fy6+ZH2zeDZU5B899FHH6eaQ5VOUGregVzzflqaoBnTQCfYXLrV77y1KKXlzcczV3rlAmaQE/w4P04+sSwBkdvD/R8pL6wbbt7B5n/e+ujjWw+kv1L6u1ZcIhsVXjqk7PcmN9dTjHCCov9VI7dzphv8cH+M2PIP8nM4AeDGs+4jT9/8RazjUEEtIBvJS2QHsluNJ4ITaNl38HjhVmqWv/1/Dn/+J8U0/x8jX33mlF740O1/kL1MYzLmTw8+t+vnBMnHXw/b/y1VnHKdQH19AkXN2/wzDdA4JyA8uf/5yId0Innf8PjXkZwLdB3mi+fxmMQkjyiURh3mDEcvY32C4fH/T4/1CTJU6ASEx/c/H05NzR8eD0b0cpXi4aVDUvxd0Vb6TEuVQX0HBf+rRr74aPhrxaRd/dswakzfYPdAq/6vDxXUAlkIyA4qDQllAifAOoYAAD5Un7kX3Vah2XWvxvyvYC0c8ntcp9st3Z5IiV2jwQGbZY8gCOLet+2+h/L2+Py43ZrZ7ldsjy4EfVfttkN7HXeVx4mHhlPHabKe9YVfaPdZdigFtUBbIdiAE8AJAAC8qDpxhwabm/c1i72BeO1FgBJ0iHs7z7rdH7YKR9WdIB762CKecIdWyM/R+dFOcZ8rlHoh0Cfus/vpm+PhsU7xwMi8tD0y3t5k7XGNu2yCoHSCiJfs4wis0N09J8Tm/qBGn2Unw2iB5kKwASeAEwAAeFFt3g659lndd302wa6UgmC/0D6eKejLnnah3bMs/bwWGuncK9Lrcbtn1C4KjmCR45L6XcoJQg5RdMxknsUD9vRZ4oGzQutoWI6lT2h1LyrfGHTkOEGYxGefzES/6G4VevzRUp8b5GqB5kKwASeAEwAAeFFd1qZX5LRyxwO9ou1GtpAWcYKo/7TYfNo3vxaPr4TcJ4gb1OIEudCzpLwk4jkq9N2RX6AlP7engHGC/KeadoXsaGQt0FwINuAEcAIAAC+qStoKFbjnara6s9fmBZ1A2WBAuOvQzgnigbOiZTDVdUCdQFHjmacb+e0E7sOKdgLarsDsD4oidxmozESoGjgBnAAAwIdqcvaKzyb2ZboMpE6ETBN9YSdgJEAzJ4iHBq1NJzwZI6nUCTbCV61CejxBxN9rEdi+BlAY5RiCYjMRagFOACcAAPChipRNy3YuzQOpK3VDnSA8TkcIBteyb62w74AQDfRbmwRBfLPT5Xf3YDxBGTCDClUmKFYNnABOAADgQ+UZO+y2ijmVddHdmhn5T51gLHPdLjtBxNcp2Hwrmf21cILoHYeFCEFOCa90jGEO8Um72O2DEqhTcJaB5loAJ4ATAAD4UHHCvudqFpmKHnYfTvcl0IpudQVX6GIDUmt8doyhpdcfrmKM4aLfNeAP5+4Tv+uwiJ2eh8xblXMRpTmKioEOEkWcYC0y73dY97SOYIChKirTDrXVAjgBnAAAwIdK83VooMCaBOHRVuE9v7Qx7H+/VaSt8Vb7YF/huYiXeipwgrsOQXSEcnfxHBVY+lPHU6xZ1CmpSQ4FnCDYT/e1nh4JVDDVYZeSXtu4yCwDWQuwtjGcAADQqNSYvqsgPmkvf2ZB9IZNOI1e/rpAugfSkVL3QDqCeyDBCQAAjUqN6bs8Ir7u1j5/hDYkrAQcBxTjEEsQ9b9ny+8jADsbOAGcAADAB4PS/ErQ1W1pEgRhj8U2HMJ1P1ABTgAnAADwgXf+B4AFTgAnAADwgXf+B4AFTgAnAADwgXf+B4AFTgAnAADwgXf+B4AFTgAnAADwgXf+B4AFTgAnAADwgXf+B4AFTgAnAADwgXf+B4AFTgAnADuHxNNvt+9/snWrbXPs1c2RVzYHX6YP8sPYq2QjeYnswDtGkIV3/geABU4AJwA7ge2F0S3vW5sXXyr5ILuRnXnHCyi88z8ALHACOAFobBJh79bYa+XYQI4ZjL1G3sg79t0O7/wPAAucAE4AGpitwPFKbSDHDALHeX+CXQ3v/A8AC5wATgAak+ffldlZULIrgRyK94fZpfDO/wCwwAngBKABIUJQeX+BSj8CtIALvPM/ACxwAjgBaDw0aSFgWy2XbYMAACAASURBVAuA4fDO/wCwwAngBKDBqHEMAcYW1A+88z8ALHACOAFoJBJhrx5CkHpgJoLB8M7/ALDACeAEoJHQcBhB4YEFwEB4538AWOAEcALQMGwvjOonBKkHljMyEt75HwAWOAGcADQMFQ4t/PnW9PXEi78mpippKtB/sOH64oTT1vK6ifB6i21o+oneJ6wAGlvXG2YSmvmNtp5rszF9T8c7/wPAAieAE4DGIPH027JL+99u37+Z+Cn1vrWKnICOKtD1ngiPvF1mc9vA5IPVWOzRlPOI2XRwaFbH81XC9xNSbFPLMRLb9OWTZlPbtWU9T8g7/wPAAieAE4DGYPv+J+XW9anb9A1Pb24vLVXhBORE+n2K2YHcQrt07bDJ7PxGvxNWwOzwftM/MrEdvrak4xl5538AWOAEcALQGNC7HZZZ12+8s+WRflhYqMIJyIl0+xDrs56hoVuKa+/nk2dMJueMbiesiOexWGw9+5Q6wf6hOR1PyDv/A8ACJ4ATgMaA3v640jGDVTkBOZFxn2puaL/pzKTO3fbVsL480bPffHJiVc+T8M7/ALDACeAEoDHYHHnFICcYecWoz7R8rc3UMlwvwwlSrF7vMKU4cvnBeun9a4F3/gcNw/rC3LPuX/305HGxHchLZAeyW40nghPACUBjsDn4skFOMPiyIR9offpCi+mgc1bnulsx6zHC6uKk84jZfNKLMYagHnjWfeTpm7+IdRwqqAVkI3mJ7EB2q/FEcAI4AWgMdpgTLF/vMpu7vI8MOFW1fO/tMJl1HetQY/oGuwda9X99qKAWyEJAdlBpSCgTOAGcADQGO6nvoD6FgDYQPFdumHaaTB3XdRxRUH3mXnRbhWbXvRrzv4KHPvvbe0VBEPZYbAPBqNqu0eCAzbKH7Crufdvueyhvj8+P262Z7X7F9uhC0HfVbju013FXeZx4aDh1nCbrWV/4hXafZYdSUAu0FYINOAGcADQKO2aM4fqMs8XU4pyptz6D5PTvTSbbRHa8Y6qdQM95klUn7tBgc/O+ZrE3EK+9CEjHc+0TO8fC9GgrAccBwXajmBXEQx9bxBPu0Ar5OTo/2inuc4VSLwT6xH12f4T+GB7rFA+MzEvbI+PtTdYe17jLJghKJ4h4yT6OwArd3XNCbO4PavRZdjKMFmguBBtwAjgBaBQqmItYmxPoORcxtWaRqe3T2VgOdeEH698QWTF3fTotr1lk7qjPNYtICbe67/psgl0pBcF+oX08kn6y7GkX2j3L0s9roZFO2gbQZLV7Ru2i4Agyx1PuvLExf8ki9LO7yKd2iKJjJvMsHrCn3xgPnBVaR8NyLH1Cq3tR+cagI8cJwuSU9slM9IvuVqHHr9o6AVIotUBzIdiAE8AJQKNQwZpFtTmBrmsWZUf1Kznm1XXKX/nEvvWeO5JZ27jX++B56bfUQnVZm16RH/VEyL+9ovKCvogTRP2nxebTvvm1eHwl5D5B3CDPCTbCbmumnSAadBwQeybKq8/0LCkviXiOCn13sgckL+T2FDBOkP9U066QHY2sBZoLwQacAE4AGoVK1jau6aHv2sZAQVVJW6EC91zNVnf22rygE+S2AWzcdRRyAlLT/ba/E1K0DobKjeSsaEnvTJ1AUeOZpxv57QTuw4p2AtquwOwPiiJ3GajMRKgaOAGcADQMFd4DqZqHAfdAAjLV5OwVn03sy3QZSJ0ImSb6wk7ASEBhJwi5DijHE5TTThAPDVqbTngyRlKpE2yEr1qF9HiCiL/XIrB9DaAwyjEExWYi1AKcAE4AGgbcK3mHUUXKjoy3C7k0D6Qv66t3ghmHPFSQEJ+kgwTCG2qEx+kIweBaNq4K+w4I0UC/tUkQxDc7XX53D8YTlAEzqFBlgmLVwAngBKCR2Bp7TcdGgrHXeH++3UXlGZt2/OdU1kV3a6acUycYy5Ry2Qkivk7B5lvJ7F/QCcjGw9k+COoEiqf5RO84LEQIckp4pWMMcyBnFLt9UAJ1Cs4y0FwL4ARwAtBIJMJeHUcShL28P9/uouKEfc/VLDIVPew+nO5LoE0IVleQlP+1sNQanx1jaOn1h1XGGNJRi832iYjUd0D3SY8SWPS7BvyMHMTvOixip+fhRoFjpOciSnMUrYxVFHGCtci832Hd0zqCAYaqqEw71FYL4ARwAtBgbAWO69JIEDjO+5PtOirN16GBAmsShEdbhff80saw//1WkbbGW+2DfYXnIl7qKTzGsOCaRXcdgujIHXBI+whY0hMXFWsWdUpqkkMBJwj2032tp0cCkQ2gTnpt4yKzDGQtwNrGcAKwG9F8sCGGFnKhxvRdBbRfgM5jLIvoDZtwGr38dYF0D6Qjpe6BdAT3QIITgF3J8+80HFhAhxE8/473R9qN1Ji+yyPi627t80fkNQqz4xBLEPW/Z8vvIwA7GzgBnAA0JkQLtGgtoC0EEAJOGJTmV4KubktTql9gOITrfqACnABOABqYGscWYAwBX3jnfwBY4ARwAtDYJMLeKvoRyFswy4A7vPM/ACxwAjgB2AlsL4yW2ZVAdsPCRHUC7/wPAAucAE4Adg6Jp99u3/+E3kFx7NXNkVc2B1+mD/LD2KtkI3kJ9zKoK3jnfwBY4ARwAgAAH3jnfwBY4ARwAgAAH3jnfwBY4ARwAgAAH3jnfwBY4ARwAgAAH3jnfwBY4ARwAgAAH3jnfwBY4ARwAgAAH3jnfwBY4ARwAgAAH3jnfwBY4ARwAgAAH3jnfwBY4ARwAgAAH3jnfwBY4ARwAgAAH3jnfwBY4ARwAgAAH3jnfwBY4ARwAgAAH3jnfwBY4ARwAgAAH3jnfwBY4ARwAgAAH3jnfwBY4ARwArBzqOd7JddzbLzgnf8BYIETwAnATmB7YXTL+9bmxZdKPshuZGfEVg/wzv8AsMAJ4ASgsUmEvVtjr5VTcXOq79hr5I27ObZ6gHf+B4AFTgAnAA3MVuB4pRU3p/oGju/O2OoE3vkfABY4AZwANCbPvyuzQb5kcz051C6KrZ7gnf8BYIETwAlAA0KKbuVt8ipt9VqW3nqOrc7gnf9Bw7C+MPes+1c/PXlcbAfyEtmB7FbjieAEcALQeGhyFc5eke+C2OqNGtM32D086z7y9M1fxDoOFdQCspG8RHYgu9V4IjgBnAA0GDX20xctvVr039dzbHVIjekb7B5o1f/1oYJaIAsB2UGlIaFM4ARwAtBIJMJePYpu6lHjaP96jq0+qT5zL7qtQrPrXo35X8FDv/3tvaIgiG92jsxEVXeNBgdslj0C2Xfv23bfQ3l7fH7cbs1s9yu2RxeCvqt226G9jrvK48RDw6njNFnP+sIvtPssO5SCWqCtEGzACeAEoLHQsKu+wOX42Gs7Nbb6pOrEHRpsbt7XLPYG4rUXgQ1anR0HxM6xMDlaNOCwCO2e5eK7fmwRT7hDK+Tn6Pxop7jPFUq9EOgT99n9EfpjeKxTPDAyL22PjLc3WXtc4y6bICidIOIl+zgCK3R3zwmxuT+ozWfZ0TBaoLkQbMAJ4ASggdheGNWv6KYeVS8ZVM+x1S3V5u2Qa5/VfddnE+xKKQj2C+3jkfSTZU+7XNrXQiOdtA2gyWr3jNpFwRFkjnenTzjsDqefxANnhebBULFTO0TRMbMh72tPn4W+q3U0c4yNYJ/Q6l5UvjHoyHGCMInPPpmJftHdKvT41ZsngIRSCzQXgg04AQcnmBtqMZk6rq8adLpymHGacqmv8JKxBzedp/7hDbOpw/s971jSrHqPmQpwzKvrF1f+8L2tLz9LvHiRftuLhcSXPy/3jdUO6KswNuk92y+Sq4NbV8puKtBvsGFsefJi16kb7G9v+ea5trfM5BdrfqvLObms+Wmry9r0ivyoJ0L+7RVtN7KFtIgTRP2nxebTvvm1eHwl5D5B3IB1AnIpL9ADKp6eLq9A07OkvCTiOSr03ZFfoCU/t6eAcYL8p5p2hexoZC3QXAg24ASGO8Hytba6K7qr1ztM/3h+YirL7PfrvIOSWfaeNJsOnrp8c3Y5FqufsNZjDNND/4epbUz7siGTePptuZfUNy4ltogK3NsOvrMVvEQL8Na97bJLbxX3Haggtgkpth9ub3/1zvb8Pfrm6IWtspsKtL8nwpPZiQsdrxdS4fWp82ZTy/mbD1Zjqw9unm8xmc9PafwHWFXSVqjAPVez1Z29Ni/oBMoGA8JdR74TxCftinaCjfBYjiKoRXJWtKRbFKgTKGo883Qjv53AfVjRTkDbFZj9QVHkLgOVmQhVAycw1AmWPR2mY07nsfpyguUrh/W+wK2a2eEW00Hn9HPecZRkbmi/+czkEx3PsH3/k3Lr7vxCMrmW+GPm6R9vk7cn5stuor//iX6xbUfWkttZQdn6j6Vk8q+JP+gYmyqr3mPmN7qcE3MT51kniE32mMwXpuXn0xfMpp7JmKanryZnr/hsYl+my0DqRMg00Rd2AkYCCjmB1PKQGU9wz90pCsLZkiMV4qFBa9MJT8YkKnWCjfBVq5AeTxDx91oEtq8BFEY5hqDYTIRagBMY6ARPJs+YW4bmlr115gTTF0wmRe6rJ6adZu0vznRgfeoD8/6Ls7qeg95RsCInmMo8narMCciJ9Itt+2ky+ex6tmHgDzdpbAs6xqbKeixd5KedrBPQLWduZR0gduuMyeTU9v9JFSmbNuzn0jyQ7vuv3glIXV5w296Uhhyc9fgGWouPJ0gTHqcjBINr2bgq7DvYoMMZ+61N0kwHl9/dg/EEZcAMKlSZoFg1cALDnGB9qte8/8L0utQVXU9OQK+HTG0dXVK/6esHT13+RttroRogF9+mU5dvDqVjazvnXaxLP1i61mZqu7ak70noLYbLdIIrF2j7/NPPtj0vbXp+m3j6oqK+A3Ii/WJjneDipQR5/6Nu/WIrjzwnWJ86RxRgRrELHXbD3QnCbquYU1kX3a2Zkf/UCcYy1+2yE0R8nYLNt5LZv4gT5J6iRNd+9I7DQoQgp4RXOsYwh/ikXez2QQnUKTjLQHMtgBMY5ATrX5/fbz43RdvA680JVid73njj2NDE1Ozs3OS191tM+pe3Mln/8hzt5j14xju3Glud9ZLYdG6fr47Zi/tNtgm9TWpz5JVyCye5nr59PbGdeefWQuKLcscY0sfIK/rFxvYdSP0ayci7+sVWHnlO8L23ow6d4J6rWWQqeth9ON2XQJsQrK4gKf9rYak1PjvG0NLrDxcfY5ghHn0YdL9naXovc8W+6HcN+MPMTncdFrHT8zDvzdm5iNIcRcVAB4kiTrAWmfc7rHtaRzDAUBWVaYfaagGcwBgnmB06aO5Kj2quNydgeHD5H3O6UTlCBz+aOryP5A2zQ836juOrBjoUzYgOjs3Bl8tuJ3iXjiuUxvHRMYbERF/crqCdYPBlHWP7gnYWZMYYBpNb9Fniz2UrS+WxlUdjOEFooMCaBOHRVuE9v7Qx7H+/VVp3yGof7Cs8F/FST2EnoO0KQtMBm+PGfPZ6/a5DEB25vQi0j4ClP3U8xZpFnZKa5FDACYL9dF/r6ZFAGQMadznptY2LzDKQtQBrGzeGEyxfaTMd82ZKWZ07gTS8oD6GHEpOoMzC61O9dTf0IXbzlKl5SN+hBBLl192tpb8mk0uJG5ktNz6j7fNL79SFE5DwQrcTG9LbNpYSczdJbIlvdPSV8miUvoNaoVMMyppTQInesJU7KRHojHQPpCOl7oF0BPdAaggnmGan/2dWAaiL2fZbdFad8iK3fpwg+fV5k+mc4gq8Dp2ATi41pumigvb5p8nkT7e3s1veTfyUTD6+VG7d1bPvgPWD+/dy9EWH2Mqj9BjD1RtdJrNTW/mrMX2XR8TX3drnj9CGhJWA44BiHGIJov73bPl9BGBnAycwop0gdy77g2sdpo4rD2J1MtuetpEevrwoP6dFrk76DpKxyTMm87kv5e+J9h3UVROLNIX91IQhQxwqGMeX22e/eUX3cXwVjH9UPlJ9HE8vlb8+gXFjDFNzET+QjZROLamLuYhVsBJ0dVuaBEHYY7ENh3DdD1SAExi/tnG99R2Q3Gc2/8P5icXVWGx5aqDNXDdjDJOp9QnMXZdnljNjDFPjNOuE2IRNWTb0pYK5iIo++62vBhM/vKBrAHxR9rW7nnMRJRXYv/UH+/Z/3KatF1sL2xOVtCtoPBdRJt8JkuvfOFtMLWeuz2bWLNrvnKmHNYsA0BE4AZyA5OXVqYunWn5Jl3B940i9zfeLzY6daUvF1jU0XVeTDugUxP1DcwadrYI1i0jt/Cp3beOv/rb89+q6ZhF9SOslJLfWkqvSbMlKmha0XrNIpoATEJa/dHbJaxt/WS9rGwOgH3AC3AMJNAYVrB9c20PftY0Nj62e4Z3/AWCBE8AJQMNQ/n2Gqn4YcA8k42OrW3jnfwBY4ARwAtAw1PP9iOs5trqFd/4HgAVOACcAjcTW2Gs6XoiPvbZTY6tPeOd/AFjgBHAC0Egkwl796i45+E6NrT7hnf8BYIETwAlAg7EVOK7LhXjg+M6OrQ7hnf8BYIETwAlA46H5gD4Nh+/Vc2z1Bu/8DwALnABOABqQ599p2HlPu+qff7crYqszeOd/AFjgBHAC0JiQ0qvFFTm9Cte86NZzbPUE7/wPAAucAE4AGpga++917aev59jqBN75HwAWOAGcADQ2ibC3irZ68hYDRvLXc2z1AO/8DwALnABOAHYC2wujZTbXk90MXvynnmPjC+/8DwALnABOAHYOiaffbt//hN6lcOzVzZFXNgdfpg/yw9irZCN5ieP9Auo5Nl7wzv8AsMAJ4AQAAD7wzv8AsMAJ4AQAAD7wzv8AsMAJ4AQAAD7wzv8AsMAJ4AQAAD7wzv8AsMAJ4AQAAD7wzv8AsMAJ4AQAAD7wzv8AsMAJ4AQAAD7wzv8AsMAJ4AQAAD7wzv8AsMAJ4AQAAD7wzv+gYVhfmHvW/aufnjwutgN5iexAdqvxRHACOAEAgA81pm+we3jWfeTpm7+IdRwqqAVkI3mJ7EB2q/FEcAI4AQCADzWmb7B7oFX/14cKaoEsBGQHlYaEMoETwAkAAHyoPnMvuq1Cs+tejflfwVo45Pe4Trdbuj0R5qXovOdsu2WPIPQHVQ8RDQ7Y6G6CuPdtu++hvD0+P263Zrb7FdujC0HfVbvt0F7HXeVx4qHh1HGarGd94Re1f7YdQkEt0FYINuAEcAIAAC+qTtyhwebmfc1ibyBeexGgBB3i3s6zbveHrcLRXCdY9tnebLVfDYaj6qeKhz62iCfcoZUNKhGjneI+Vyj1QqBP3Gf304PGw2Od4oGReWl7ZLy9ydrjGnfZBEHpBBEv2ccRWKG7e06Izf1BjT7jToDRAs2FYANOACcAAPCi2rwdcu2zuu/6bIJdKQXBfqF9PFPQlz3tQrtnWfp5LTTSuVek1912z6hdFBzFrvdJnc51gnigt6lnIlpOSA5RdMxk32dPnz0eOCu0joblGPuEVvei8o1BR44ThEnc9snMp1p0two9/nLOv2tQaoHmQrABJ4ATAGAM9Xyv5EQisb29vSmhzI+pLeQlsoMe560ua9Mrb1q5ScEWbTeyBbOIE0T9p8Xm0775tXh8JeQ+QdygfCcgJdzmGk21/DdZz/rDRd7IQs+e8pWI56jQd0d+gZb83J4Cxgnyn2raRbIjkLVAcyHYgBPACQDQm+2F0S3vW5sXXyr5ILuRnQ2NTVKBcnJlSg60PXtVSVuhAvdczVZ39hq8oBMoGwwIdx0VOAF9r2Dp9UdIdV8JjRwVLIOhsiI8K2b2pE6gqPHM0438dgL3YUU7AZUSZn+QHUOgMhOhauAEcAIA9CIR9m6NvVaODeSYwdhr5I16x1a+DSjR1gyqydkrPpvYl+kykDoRMk3xhZ2AkYCKnGDGISq6J+KTdiEzSqA48dCgtemEJ2MqlTrBRviqVUiPJ4j4ey0C29ew21GOISg2E6EW4ARwAgB0YStwvFIbyDGDwHEdY9vaqiVvkrdrEkYVp6ZlO5fmgXSZ1t4JaHe+Ymd6zKLvTREepyMEg2vZQ1bYd0CIBvqtTYIgvtnp8rt7MJ5AATOoUGWCYtXACeAEAGjN8+/K7Cwo2ZVADqV5dDUKQQpNtKDy04bdVjGngpKynbl2p04wlrk+l50g4usUbL6VzP4VOUHU36O8TL/Tp95OEL3jsBAhyCnhlY4xzCE+aRe7fVCCFAVnGWiuBXACOAEAmkKEoPL+ApV+BG21oIr+gmKQQ9UYTMWnvOdqFpmKHnYfTvcl0IpudQVX6GIDUqt7doyhpdcfrmaMYXqG4Xw0PZ7AelWq7ot+1wA73jB+12EROz0PNxgUcxGlOYqKARASRZxgLTLvd1j3tI5ggKGEyrRDbbUATgAnAEBLNGkhYFsLtIpNixYCJTW2FlR6utBAgTUJwqOtwnt+aWPY/36rSFvdrfbBvsJzES/1VOIEG9JKRNKbxb2dA5kmgLsOQXTkNhjQPgKW9BpHijWLOiVlyaGAEwT76b7W0yMBdvmk3Ut6beMiswxkLcDaxnACAOqIGscQ6Dq2QHMhSFGLFugRjzp0nCBb9SsmesMmnEYvv6FI90A6UuoeSEdwDyQ4AQD1QiLs1UMIUo8aZyJsb2/XmCtVqHomgn4hKYj4ulv7pOmEGysBxwHFOMQqifrfs+X3EYCdAZwATgCANmg4jKDwwIIa0HAYQT5VDyzQL6QcVoKubkuTIAh7LLbhEK7vgQpwAjgBABqwvTCqnxCkHlUvZ6RrI0GK6poK9I4KgEqBE+jsBLHlyYtdp26sFnhpa3V67FzbxWldzlsOhWOLTX96pu0ts8lkMr/Vdu76g/V6i+2XJDTT6wdPOSeXuYSm9juVXp7sId+ek8/vtXBsq95jply0D6/k0MKtf/8w8Xgt+ejdAi999Vnih7UkqapPL6kdodrBhqUbCaJh/0CnzatoVKdz9gpQbNZcdU0FmiVyADQCTqCbEzyZnbjQ8bqUgDuu5+bo9dWpT08dNkuvXeBRO4rGtj59ocV08My1meVYbHX2+pkWk/nMrVidxDY7QGPzzq2S2B7cPE9iOz9lrLGo/E7lKL88Z9an6NYQ27TTZDo1OqXggba/1MTTb9Vq+ReDiadr6V0jrBNsLSzQ7bHbiT91b038bYlRBZXfEyGRSKilwJWQr7+9Sar3OR3tL+LRXCLeHiG7gGABqrgngmaJHACNgBPo5ATkysz8RpdzYm7ifF6Onr5ger3tzOWp6WsdXJygeGyrE105hXZ9qtdkOjlR7IrY0Nhik2dMpnNf5sbWa6QUqP1O0zyfPt+833nhnOFOoBrb+hQNaEbH02/f/6R4IX838VMy+WIhcf8mrZmME3xxMylt3Cqz++D+JxXHptZxEPEcFfd2Onz3fH2C+uC7qK+7xGr/VXQfVJ24AdAJOIFOTrAeS1+I0Us0JkdnXpNadDk4QfHYHk0OXbw2rbiEfDDaYjrmNdAJVL438lJsPTvtS3KCnkkDGzHUfqcpZodbzCSkGafhTqAa2/feDlOH93sdT0/vdli0kO/f+vfU1f+lfCfYjqwlN4Lb5Y80vNVWaWyqHQfxaHrEHZ0lr+YEi26rcjXAQlTRfVBV0gZAR+AEeo8xLFo/+DmBjEpsKWITNtP+4VnjIspSIrbYzFCbqcX5DZfRDkViW7rWliq9HJxAplBsc0P7Tfvbutpoz4L5jbbeiWVtVuvPQm9/XLqi5zvBO4nnUq/BsxfpAz3+bPuK6kHGXq04trJmHKg7Ab0VYf5iQQxwArADgBPACYrWXdo1bj4z+cTIkGSKxUa3S7xxzsg2grwY8mJbJr/NtivSsMd6c4JvLre8dfjc2OT03Oz0TWeb2WTWus9lc+SVqpzgw8SG9H6iAn94Z/vP0sCC6AW1foSRVyqNrbxMqOoEKz6b0OwqY5FdfWIDwDjgBHCCIk7wyNtlNncVHV2vN0Vjo10IseXpsTMtphbnTL20E8RunTEfdM6mwqk3J8hlnQ7M0LgrYXPw5aqcQNoS+0yWgO3lvyaTS4kbxQ8y+HKlsZWXCdWcgN69l12lvzD6xAaAccAJ4ASFx8o5D5paLkzzmYhIKV3bpi+YjR3rkD0zG9vzqXPm/ee/znxb9e0E0vACjYcc1uQEyi3TwWRyLTFVV04Qcu0TbDfKWulHn9gAMA44AZwgLzb+QpAsENuWNMZQscfq9Q5OpZeNTYqkEBx+uYXHtMaeK57r4QRV9h1IUxJWPqzACQzvO6C361WdgqhEn9gAMA44AZwgr1/8pNl80stpPSCZ/DkRpJLtH5pT7HHBbOw8yeyZ2dik/owsk+dNpvOTTCXmFVvqi3p/UjGJ87xZ876DKscYvrQdTdJ5B5lxhVLfwYLaMEOjxxiG3VaheUBtCqIMxhiCHQCcAE6Qt2bR3nOTj3Jq3LrWw9Srim114qTZdPD8xKK8ZtHrRq9ZVDS2XOqt72BuiHxXpz6dpgtRzXnPHNR+jKHqXEQ1J0ivTxC7uf1VZozhyocqYwy1nosoU8QJ7rmaBat7saxkCicAOwA4AZxgldmSj67L3ZQdG10NeuriqZbM2sZDX9fVvAMF9eYEpOZ+6z135A26wOIvW05dnNb8i1Nds0jVCUiZ//p6IjUVcftFIqI66UD7NYtkCjpBPHBWFLp9Zd40CGsWgR0AnAD3QAKgVtTXNtbwof3axtqBtY3BDgBOACcAQANK3gOp9oeO90CqGdwDCewM4ARwAgA0APdKriIwvaMCoFLgBHACALRha+w1HRsJxl6rJTZdmwqqayRIwglA/QEngBMAoA2JsFfHkQRhby2x6dpUUF0jQRJOAOoPOAGcAADN2Aoc16WRIHBcg9i2tvTIoeSwVYekRzwA1AKcAE4AgJZoPtiw6qGFBWLTWgtqEYIknADUH3ACOAEAmvL8Ow0HFtBhBM+/0zA6DQcWVD2MQEarSADQCjgBnAAArSFaoEVrAW0h0FQIveRd5QAAIABJREFUUmjSWlBjC0GK2sMAQFvgBHACAHShxrEFmowhKBpbbVqgiRAk4QSg/oATwAkA0ItE2FtFPwJ5S42zDMphe3u7in4E8paqZxnko0dOBzuS9YW5Z92/+unJ42I7kJfIDmS3Gk8EJ4ATAKAv2wujZXYlkN2qXpioytjKNgNtbSBFjekb7B6edR95+uYvYh2HCmoB2UheIjuQ3Wo8EZwATgCAESSefrt9/xN6B8WxVzdHXtkcfJk+yA9jr5KN5KUq7mWgWWyJREoOGD9IbSEvVXEvg3KoMX2D3QOt+r8+VFALZCEgO6g0JJQJnABOAADgQ/WZe9FtFZpd92rM/wrWwiG/x3W63dLtybk75EO//e29oiCIb3aOzKjfITIaHLBZ9ghk371v230P5e3x+XG7NbPdr9geXQj6rtpth/Y67iqPEw8Np47TZD3rC7/Q5OPtBApqgbZCsAEngBMAAHhRdeIODTY372sWewPx2osAJegQ93aedbs/bBWOKpwgHnIcEDvHwuQs0YDDIrR7losdIR762CKecIdWyM/R+dFOcZ8rlHoh0Cfus/vpQePhsU7xwMi8tD0y3t5k7XGNu2yCoHSCiJfs4wis0N09J8Tm/qBGn3EnwGiB5kKwASeAEwAAeFFt3g659lndd302wa6UgmC/0D6eKejLnna5hK+FRjrptX6T1e4ZtYuCI1jkuKRO5zjBnT7hsDucfhIPnBWaB0PFQnKIomNmQ97Xnj47fVfraOYYG8E+odW9qHxj0JHjBGESt30y86kW3a1Cj1+9eWKXodQCzYVgA04AJwAA8KK6rE2vvGnljgd6RduNbMEs4gRR/2mx+bRvfi0eXwm5TxA3KNcJCjw9XV6BpmdP+UrEc1TouyO/QEt+bk8B4wT5TzXtItkRyFqguRBswAngBAAAXlSVtBUqcM/VbHVnr8ELOoGywYBw11G+E8Qn7Yp2go3wWG4rgkqEZ0VLukWBOoGixjNPN/LbCdyHFe0EtF2B2R9kxxCozESoGjgBnAAAwIdqcvaKzyb2ZboMpE6ETFN8YSdgJKASJ5BaJDLjCe65O0VBOFtyBEM8NGhtOuHJmESlTrARvmoV0uMJIv5ei8D2Nex2lGMIis1EqAU4AZwAAMCHKlI2Ldu5NA+k+/i1dwJSlxfctjeloQhnPb6B1uLjCdKEx+kIweBa9pAV9h1s0OGM/dYmaaaDy+/uwXgCBcygQpUJilUDJ4ATAAD4UHnGDrutYk4FXXS3Zkb4UycYy1yfy04Q8XUKNt9KZv8KnSD31CW69qN3HBYiBDklvNIxhjnEJ+1itw9KkKLgLAPNtQBOACcAAPCh4oR9z9UsMhU97D6c7kugFd3qCq7QxQakVvfsGENLrz9c+RjDDPHow6D7PUvTe5kr9kW/a8AfZna667CInZ6HeW/OzkWU5igqBkBIFHGCtci832Hd0zqCAYYSKtMOtdUCOAGcAADAh0rzdWigwJoE4dFW4T2/tDHsf79VWl/Iah/sKzwX8VJPZU5A2xuEpgM2x4357PX6XYcgOnJ7EWgfAUt/6jyKNYs6JWXJoYATBPvpvtbTI4EyBjTuEtJrGxeZZSBrAdY2hhMAABqVGtN3FdCpBGXNHVAjesNW7qREoBHSPZCOlLoH0hHcAwlOAABoVGpM3+UR8XW39vkjtCFhJeA4oBiHWCVR/3u2/D4CsDOAE8AJAAB8MCjNrwRd3ZYmQRD2WGzDIVzfAxXgBHACAAAfeOd/AFjgBLvXCer53rUA7AZ4538AWOAEu9EJthdGt7xvbV58qeSD7EZ25h0vADsT3vkfABY4we5ygkTYuzX2Wjk2kGMGY6+RN/KOHYCdBu/8DwALnGAXOcFW4HilNpBjBoHjvD8BADsK3vkfABY4we5wguffldlZULIrgRyK94cBYIfAO/8DwAIn2AVOQISg8v4ClX4EaAEAmsA7/wPAAifY+U6gSQsB21oAAKgZ3vkfABY4wQ53ghrHEGBsAQD6wTv/A8ACJ9jJTpAIe/UQgtQDMxEAqBHe+R8AFjjBTnYCDYcRFB5YAACoAd75HwAWOMGOdYLthVH9hCD1wHJGANQC7/wPAAucQGcniC1PXuw6dWM1d+v6g+vn2t4ym0wm81tt564/WNfhzCWHFm79+4eJx2vJR+/mbv/77chScls6xE9Lia//Vu0Iegw2fP5g4sKpll+S78b0+sFTQ1/HlC8u35S/ty7n5LL2Z68hNsrW6vTYubaL00YHViK22PSnZ/T+e6sptsxL9fg7lYKc7CHfnlPz3yvv/A8AC5xANyd4MjtxoeN1mmpMHddznGD1RpfZ1HL+5oPV2OqDm+dbTOYztwpmoupJPP1WrZZ/MZh4upbeNaJ0gp9vR8j2tcSf7VtffZiIvUgm/5r4QnVUgcb3RFj2njSbjzgnF1djseWpgTbyRQ3NpV9bnzrPfG/np4ysbmqxJddXpz49ddgs/b4vGO8EKrGtT19oMR08c21mORZbnb1+Ro+/t6pjmx2gsXnnyEv19zvNsP7lOekXCycAOx84gU5OsOo9Zn6jyzkxN3GedYLViZMm0++z6WX69ybTyYnV/GPUwPb9T4oX8ncTPyWTLxYS928mkrlOcOUS3bL828zTDxMbyWT0glr3wf1PtIz7G6fZ1HZtSX6+fO0fTeaBWelncq1mMivK7fQFs6ln0rjiphYbCcb0etuZy1PT1zp4OIFKbKsTXTmFdn2qV/u/typji02eMZnOfZkbW6+BUqD6O03zfPp8837nhXNwArAbgBPo5ATrsXSxmnYWdIKc2qZ9jqZ3OyxayPdv/XuqR+AS6wRTt4ksJKYVJT+aTP50e1ulyeFWm4Zhr3/jHbqobD5en3xf/q7oN6m8wI3dOqNHmq4qNvn3TVyQgxOoxfZocujitWmFOj0YbTEd8xrmBKrfG/naYutb2ZeoExjoeeq/0xSzwy1mEtKME04AdgNwAr3HGOY7AS1mZnOXd4leDq0vebvM2rfl0tsflx4kWIYT0K6EBRUnICfSNvJcZoeaMx6wPkWv1GYUL+qTpstGEVsWPk6QR8HYUsQmbKb9w7OFXjKGorHFZobaTC3Ob4we7aAgL7ala22mDu/3ev2x8c7/ALDACTg4AR1j+GmbKUPXmPbjqjZHXqnGCZi+g4t/n6DpUdUJRl7RPHiZ5SttpoND6fL1vbejnpwgJ7YsdeEERWKj0K5x85nJJ0aHJFMoNvp/ROKNcwb2BeWTF9sy+W22XZH+e8IJwO4ATsDBCdZnnC3mNufUcmpc1WFzi3NG42ujzcGXq3GCiz/fjr7IjjF8LI1DVO07ICfSNnIZ+i0prxrryQnY2LLwd4LisSWTj2ijVBc7C8Y4isVGuxBiy9NjZ+irWv9fqDo22p530Dmb2gAnALsDOIHxTkDbJ9sUbQPLY22m5sJXdVVTrRO8tHmlO60ChMefJVZfJJ/f3DLeCVLV67qyq7du+g7yY8vC2wlUYns+7Txoarkwza1pXu17S0PHjRo41iFLfmzPp86Z95//OvNtwQnA7gBOYLgTFL7e7dJ2kGGVfQfs47eJ58nkyodqB9Gj76Bw8WDHGK7e6DKZnUZ3jJcobFydoOGEYEsaY6jYsHq9g4PnFYpNiqQQmv5yeed/AFjgBMa3E0w7zaZTNxW1jWQfrWtblWMMcx9bCwu0H2FK9SCajzEsWr2kuYgfyBPV1qc+MHYuolpsMvycQC02aRb+Sa/h6wFlKBbbI+LH+5XrAdB2AiPnSarEJvVnZJk8bzKdnyQ/PNfy5LzzPwAscAIO4wlmh1tM6fEEseUpJ10nRetx4KpzEUs4wdbEO9t/upRY/WtSelWt40DruYip6mU6cnn2SU5CTuXr9W9oj++Z67OZNYv2G9v3rBZbBl5OoBKbtGbR3nOTj3Jf2ip1SCNiW50gLx08P7Eor1n0uvFrFpX6nUqg7wDsDuAEXOYdxJi1jTW/2FVds6iEE2w/lQ7xYiHxzTvqQrCp+ZpFUsdKHtJkMInlL51d8trGXxp73VsqNglOTqAWmzyqP4ec3itusdHVoKcullxamFNsSuAEgCvrC3PPun/105PHxXYgL5EdyG41nghOsDPvgaS+trGGD63XNgZgF1Fj+ga7h2fdR56++YtYx6GCWkA2kpfIDmS3Gk8EJ9iZTpAs4x5ItT90uQcSALuGGtM32D3Qqv/rQwW1QBYCsoNKQ0KZwAl2rBPgXskA1DnVZ+5Ft1Vodt2rMf9niS947G/vFQVB2GOxDYeiytei856z7ZY9gtAfVD1GNDhgo7sJ4t637b6H2WPPj9utme1+xfboQtB31W47tNdxNyeW0HDqOE3Ws77wC00+306goBZoKwQbcIId7ASErbHXdGwkGHuN9+cDoLGpOnGHBpub9zWLvYF47UWAsOzrFC19/gg9WsTfd0Cw3YjKL9nebLVfDYaj6qeKhz62iCfcoZUNKhGjneI+Vyj1QqBP3Gf3R+iP4bFO8cDIvLQ9Mt7eZO1xjbtsgqB0goiX7OMIrNDdPSfE5v6gNp9xR8BogeZCsAEn2NlOkAh7dRxJEPby/nwANDbV5u2Qa5/VfddnE+xKKQj2C+3jkfSTZU+70O5Zln5eC4100jaAJqvdM2oXBQdzvU/KsHDCl3nnRni0NdMkEA/0NvVMRDdKE3KIomMm8ywesKfPHg+cFVpHw3KMfUKre1H5xqAjxwnCJG77ZOZTLbpbhR5/OeffNSi1QHMh2IAT7GwnIGwFjuvSSBA4zvuTAdDwVJe16ZX3UU+EFmwxe0Ff1Ami/tNi82nf/Fo8vhJynyBuwDoBQ7BfzFRxUsJtrtFUy3+T9aw/rPrGLPTsKV+JeI4KfXfkF2jJz+0pYJwg/6mWXSQ7A1kLNBeCDTjBjneCpA6DDTG0EABNqCppK1TgnqvZ6s5egxd0AmWDAeGuo4QTLLqtYo9/RT6IYOmVOhVWQiNHBctgqKwIz4qZPakTKGo883Qjv53AfVjRTkClhNkfZMcQqMxEqBo4wc53guTz7zQcWECHETz/jvdHAmAnUE3OXvHZxL5Ml4HUiZBpii/sBIwEqDvBQ3/PAYvjbqYkzzhERfdEfNIuZEYJFCceGrQ2nfBkTKVSJ9gIX7UK6fEEEX+vRWD7GnY7yjEExWYi1AKcYBc4QVLSAi1aC2gLAYQAAI2oImVHxsmlew7NA+kyXasTrAUdB8TOcUX/AO3OV+xMj1mi3yE8TkcIBtey8VbYd0CIBvqtTYIgvtnp8rt7MJ5AATOoUGWCYtXACXaHE0jUOLYAYwgA0JbKM3bYbRVzKigp25lrd+oEY5mKLjtBxNcp2Hwrmf2LOcGLsOdEU+dY7oCBqL9HeZl+p0+9nSB6x2EhQpBTwisdY5hDfNIudvugBCkKzjLQXAvgBLvICZLSTIQq+hHIWzDLAADNqThh33M1i0xFD7sPp/sSaBOC1RUk5X8tLLW6Z8cYWnr9YbUxhnTWn6XArL/0DMP5aHo8gfWqVN0X/a4Bdrxh/K7DInZ6HuYdIjsXUZqjqBgAIVHECdYi836HdU/rCAYYSqhMO9RWC+AEu8sJUmwvjJbZlUB2w8JEAOhEpfk6NFBgTQI6dfA9v7Qx7H+/VaSt7lb7YF/huYiXego4AW08YJCHJUaDA9Kbxb2dA5kmALK/6MhtMKB9BCyZCY3ZNYs6JWXJoYATBPvpvtbTI4HIBkiRXtu4yCwDWQuwtjGcoHoST7/dvv8JvYPi2KubI69sDr5MH+SHsVfJRvIS7mUAgK7UmL6rgI4TpPMYayJ6wyacRi+/oUj3QDpS6h5IR3APJDgBAKBRqTF9l0fE192aXqNwJeA4oBiHWCVR/3u2/D4CsDOAE8AJAAB8MCjNrwRd3ZamgvcyACAXOAGcAADAB975HwAWOAGcAADAB975HwAWOAGcAADAB975HwAWOAGcAADAB975HwAWOAGcAADAB975HwAWOAGcAADAB975HwAWOAGcAADAB975HwAWOAGcAADAB975HwAWOAGcAADAB975HwAWOAGcAADAB975HwAWOAGcAADAB975HwAWOAGcAADAB975HwAWOIG+TlDP9yNGbADwhXf+B4AFTqCXE2wvjG5539q8+FLJB9mN7Kzt2REbAPUP7/wPAAucQHsnSIS9W2OvlVPVcirc2GvkjVrFgNgAqH94538AWOAEGjvBVuB4pVUtp8IFjmsSBmIDoP7hnf8BYIETaOcEz78rs9G7RHnzvkUOpUXCQWwA1DW88z8ALHACjZyAFLbK272Llrex17Qsb4gNgLqEd/4HgAVOoI0TaHKly171agRiA6A+4Z3/AWCBE2jgBDX2hRctb1r0kSM2AOoW3vkfABY4Qa1OkAh79ShsqUeNI+oRGwD1DO/8DwALnKBWJ9CwO7zAJe/Ya7VkHMQGQD3DO/8DwAInqMkJthdG9StsqUfVy/IgtupiA8AweOd/AFjgBDU5gdoQuYkLiadrye3UfmuJP3dvZV99N/ETc6SF7WKXvNUOmqs2NumkX32W+EHa4ekllbpraGwLCwUPlVjQODY1nj+YuHCq5ZcmwusHTw19HVO8tv7g+rm2t8zkJfNbbeeuP1jX/vS1xUZfMr9x5NzEI4MjS8XW9YY5FcCZa98oY0su35S/ty7n5HJdxUbZWp0eO9d2cVqPk/PO/6BhWF+Ye9b9q5+ePC62A3mJ7EB2q/FEcILqnSDx9Nuihe3Ku4kXyeRPC4k/dW/9wZ54vJZMvkh88/PMDpcS5P0rnyX+LD8+LOYE5FHF2v41xPbSVqr6xm7THSb+Vv1y3LjYPH+/9Yd3lI/t5b8mk0uJG1rGpsqy96TZfMQ5ubgaiy1PDbSZTS1Dc+nXVm90kafnbz5Yja0+uHm+xWQ+cyuvuuiIWmzL17vM5jbn1DIJbeIDGtrkEwNDS65OSLFNPYqR2KY/JV9U27Wl9GvrU+eZ7+38lJE2pRZbcn116tNTh6kumEwX4ASAJ8+6jzx98xexjkMFtYBsJC+RHchuNZ4ITlC9E2zf/6RobZtfoMXsa3nLh4mNZPJx5pr7xvVE8Qvc/Ac5kXGxfXGTvj/y7lYdxpbz+G3ieTIZvaASZxWxqfGNM6dgJJev/aPJPDAr/UxKi8n0+2zZmP69yXRyYlXL01cd2zR57dTNWPalNtP+4VnDQkvODe03HWZiO3wl1R4Qm+wxmRXldvqC2dQzaZxMqcVGgjG93nbm8tT0tQ44AeAMrfq/PlRQC2QhIDuoNCSUCZygeiegd+0rUo225m4nHl9XXPr/feIHRTv81O1kci0xVa4TkBMZFtt2ZC25EVRptOAYW87j62Ay+dfEFxrHpsL6N96hi8qm7fXJ9+VSITlBTm0z1AnUYvve25FT9pKzw/tNx7zG+crWOrkGV1z707qbkZJpp8mkbFCJ3TpjMjl1Kb8Vx5Ykr0n/rnqP1Z8TLLqtQrPrXo35P0t8wWN/e68oCMIei204FJU2BvuFPDp9kWLHiAYHbJY9ZB9x79t238PssefH7dbMdr9ie3Qh6Ltqtx3a67ibE0toOHWcJutZX/iFZp+x0SmoBdoKwQacoBYnoLfxLbN2XhlMbCeTS++kn35zj77/xYv0gZ7d3Paovn3sVaNie4defMduJ55lYnv82faVOolN+difIOk69lmJxozKY6uE2aHmbD0jxcxs7vIu0fqyvuTtMhvcd1A8tjwnWL3eYTI7DWwoULK+fOPMfnPXxPepZ1PniALMKF6fcRrqBCqxZalHJwgNNjfvaxZ7A/HaiwBh2dcpWvr8EXq0iL/vgGC7Ec3fK3rDVvyM8dDHFvGEO7RCd5wf7RT3uUKpFwJ94j67n5pEPDzWKR4YmZe2R8bbm6w9rnGXTRCUThDxkn0cgRW6u+eE2Nwf1OYz7ggYLdBcCDbgBDU5wcgr5dW2n2+vvEhu3csW17l7ye0Xie+vb98f3F6WOu+fXVcrbyOvGBWb1FaflFTgD+9s/1mKTbV93sDYFA+pgyNx/+cljlB5bOWzfKXNdHBIUVnXH3zaZsrQNWb4WDkFubExfQfr07/fz6HuUjVJ0Xb523XlRv5OUDC2LHXoBCHXPqv7rs8m2JUlmlzWt49nruKXPe1Cu2dZ+nktNNJJ2wCarHbPqF0UHMHcw5EyLJzIXv+HR1uFfmYX6aQHVFomQg5RdMxknsUD9vTZ44GzQutoWI6xT2h1LyrfGHTkOEGYxG2fzHyqRXer0OMv4Ce7F6UWaC4EG3CCmpxg8OVyaps0ZO9FYn5/0R0e/rVEV8Lgy0bFJg1+VFx/lxzHZ2Bs2cf29y/K6uCoPLYyWZ9xtphanN+s52xJjeOTxsodNrc4Z4yeeVAsttnhFlNmjOHkQNvrZrOpw2u4s9BW+lQAtEElNfehTpygYGxZ6s4J6JX3UU+E/NsrKi/oizhB1H9abD7tm1+Lx1dC7hPEDVgnYAj2i4oqrjip1c1uLQY9e8pXIp6jQt8d+QVa8nN7ChgnyH+qZRfJzkDWAs2FYANOoLcTbP3xNt1VfcgeHV6gOuRQn7pbKDbJCSLvZnebDnLxFbXvLdWhsPzb0mKhkxM8ol0DXdeVVZW21bcp2gaWx9pMzUMc2ucLxEaITV+UptuZ3+i6OD01etjQcXwstMSmxxXWV99BMie23I315AQKFbjnalbU6cJOoGwwINx1lHCCRbdV7PGvMFvDZGtfuT0V8cBZ0TKY6jqgTqCo8czTjfx2AvdhRTsBbVdg9gfZMQQqMxGqBk6gY99BkcL28y3/Ozlz/Eo6gQ7t80VikxZOWPmwAicwLrbMq/+xVKLpoobYSlOw6Ba+3u0ycOJB8dhYYhO27NB6I2CG8aUGYKYHObJjDFdvdBk61kEttmxQ9eUEKz5btjpLnQiZpvjCTsBIgLoTPPT3HLA47ubVfiIfmfEBpYiHBq1NJzwZU6nUCTbCV61CejxBxN9rEdi+ht2OcgxBsZkItQAn0G2M4cSlxBYdM59X2H6+/TSZ/CE7gGDrwVKJuqv5OL6isb20HU3SZvlMF77Ud7CgNszQwNikh52OeIgOljVVUvMxhs+nnQdNLRem83oFmD57HuP4isaWg9Sz0OFlh9HpydfnTaZTE9kVEaRr8fQ8SWku4gfyigTrUx8YOxdRLbacjfXjBJHxdmYmQPNAuljX6gRrQccBsXM8v3+A9j5Yr5bVbxAepyMEg2vZeCvsO6CnC/RbmwRBfLPT5Xf3YDyBAmZQocoExaqBE+gyFzG99s7Gve3bymV2Dm9JxXUrNe9g9RIdx3f/dnKrxBhDbef7qceWXp8gdnP7q8wYw5UP6yU2crr793IXMFB7aDsXMbUukOnI5dknMSWpepbts6drBjnpmkFGrgGgGhvleWx1cXri01MkylINCVqzPktkxXzy8rS8LpC5I7tm0Td09MOZ67OZNYv2GzoOQzW2DHXlBLQNP6eCLrpbM1fw1AnGMpVbdoKIr1Ow+eS+gGJO8CLsOdHUOVao8C+W228QveOwECHIKeGVjjHMIT5pF7t9UIIUBWcZaK4FcAJ91iySugPykBsDfr71ze308sbbL0rO99N4XaASsb209fX1xIt0bImI6qQDo2P7+8QzUt5ulrl8gsZrFmVHpyuRr7ljzNrGhnbYl4hNahI3v3HY5pz4lsdAgtgDb29bZv3gc97FnKq//KWzS17b+EvDxz6qxiZRT05wz9UsMhU97D6crti0CcHqCpLyvxaWWt2zYwwtvf6w2hhDOuvPUnjWXzzY3yw3RaRZ9LsG/Iw+xO86LGKn5+EGg2IuojRHkR2oWMQJ1iLzfod1T+sIBhhKqEw71FYL4AT6rG2s6UPj9YMRGwD1QaX5OjRQYE0COnXwPb+0Mex/v1Wkre5W+2Bf4bmIl3oKOAFtPGDIvHfFZxOsbI8+2V905GoC7SNgSU9oVKxZ1CkpSw4FnICulSTutZ4eCRRdH2nXkV7buMgsA1kLsLYxTydIqt/LR6OHLvcZQmwA1AE1pu8qiE/aBTqPsSaiN2zCafTyG4p0D6Qjpe6BdAT3QOLsBPV8z1/EVl1sABhGjem7PCK+7tb0GoUrAccBxTjEKon637Pl9xGAnQGcoCYnIGyNvabjxe7Ya7VkHMQGQD1jUJpfCbq6LU259zIAoCBwglqdIBH26lfbyMFryTiIDYB6hnf+B4AFTlCrExC2Asd1udgNHK896SA2AOoW3vkfABY4gQZOkNRh0JyGQ+QQGwD1Ce/8DwALnEAbJ0g+/07DDnLaHf78O43SDmIDoE7hnf8BYIETaOQESam8aXHVS690NS9siA2A+oN3/geABU6gnRNI1NhHrmtfOGIDoK7gnf8BYIETaOwESWlEfRXt4eQtBoyWR2wA1A+88z8ALHAC7Z0gxfbCaJlN4mQ3gxfYQWwA1AO88z8ALHACvZwgReLpt9v3P6F3Ahx7dXPklc3Bl+mD/DD2KtlIXuK4Jj9iA4AvvPM/ACxwAn2dAAAAisE7/wPAAieAEwAA+MA7/wPAAieAEwAA+MA7/wPAAieAEwAA+MA7/wPAAieAEwAA+MA7/wPAAieAEwAA+MA7/wPAAieAEwAA+MA7/wPAAieAEwAA+MA7/wPAAieAEwAA+MA7/wPAAieAEwAA+MA7/wPAAieAEwAA+MA7/wPAAieAEwAA+MA7/wPAAieAEwAA+MA7/wPAAieAEwAA+MA7/wPAAieAEwAA+MA7/4OGYX1h7ln3r3568rjYDuQlsgPZrcYTwQngBAAAPtSYvsHu4Vn3kadv/iLWcaigFpCN5CWyA9mtxhPBCeAEAAA+1Ji+we6BVv1fHyqoBbIQkB1UGhLKBE4AJwAA8KH6zL3otgrNrns15v8s8QWP/e29oiAIeyy24VBUfuGuQ1By1BMpeoxocMBm2UN2Eve+bfc9zB57ftxuzWz3K7ZHF4K+q3aNifkaAAAXlElEQVTbob2OuzmxhIZTx2mynvWFX2j2GRudglqgrRBswAngBAAAXlSduEODzc37msXeQLz2IkBY9nWKlj5/hB4t4u87INhupK0gPmkXuj3hqEyxE8ZDH1vEE+7QCvk5Ov//t3f/v1VWeQLH/wP/ht4f/HF+vP1JducHZzcRfhDd3RnsYq0ii0gF7DAocM2kqyGokdQQAhJhUVIX2ZSUxYSmu2FpMp2pBi0Oht3RqQRDFAIOSgxMe1v2PM+59/Tcc57nPF/uc3t6ue9XMIG2tKU25/Puec5z77H+8iMHpuUrJvaUHxkcD1Li9syJ/vKjRy6FL796cv2K3l0HTh7Y1tWlN8HVUfE2QxPXgjcf2VJeuXeqmH/jfcHIgsKDYJYmoAkA+JJ33Z4+8Ejv8Ment3UN6lEwtbdr/cn6j/FXRtZ3rR+5Ev7+1vSR/mAPYEXv4MixwXLX0FTjuxNjuGvLabUBMHNsTdfe2puIya1+7/6UhsrloU/rf7o9MVj76LcnXu1ac2xGfY57utYMf6X/xamhhiaYEZ/34Nn6v+qr4TVdu8ZvzELRs6DwIJilCWgCAL7kW7WDn7yDPfzbE7vL6gf62dgmuDG+o7xyx+lLt27fvjY9vEW0gdkEhqm9ZTXFxftc+XR/b20nf+TSrXSfYvDRZa9cHXmua8/v1SuCkd94pcBoAvuPRV4iuT+oLCg8CGZpApoAgC+5Fm0tBS4cWNk7vPgzeGQT6BsGs/J8gLMJvhruLe8av1b7WJdGBwf3TwTXDr4Orimku1pxe+LV8up35KWDoAm0GW/8cdbeJxju0fYJgn0F4+2xeIbAcSdCbjQBTQDAjzxr9rXT28p76pM5vIhQ34qPbgIjAtxN8PX4rkdXD30cM/dFgjRerYhye/qd3hVbRuqlkrUJZmf+vberdp7g6vju1V3mtYZOp58hiLsToRk0AU0AwI8cS3Zwgb/Ryv3yJ/Kmm+DW1NCj5f6TM5GvbHif8WZOBicEpxYvMWS9diDcmNjbu6Krq/x3/QfGh3dxnkBjHCp03KCYG01AEwDwI/uKPTPcW26YoF8Nr6mf8A+a4ER9oqv5ffV0f9e209fqbx/XBHdmRras6D/RGAS3Jvb0yFsG6h/LuU9w4/dDq0UQNIzwrGcMG9w+O1geOE0SSJF3GRSeBTQBTQDAj8wL9oUDK8vGRJ8Z7qldSwi2EHoPTInxf2sm3HVfPGO4evf4jOuMYXDX3+qIu/7Cv7t34sad2p2BtfMEX40f2D9u7Cfc/nhodbl/5GvzXWj3Iob3KGoHIEIxTXDr6qXxod6/XXOEA4Yhx22HxWYBTUATAPAj63o9vT/iMQmCWwcr4+ELZ8Z/u6Yc7Lr3Dr6zJ/pexKO7IprAeGCigPq7l0ZeDXbyu8oPLz6CkHj78tB0w7sIrhGYajcxao9Z1B8mS4OIJpjaG364HUcm4h8gqdPUHts45i4DlQU8tjFNAKBdNbl85xA8BpHrsQhTufHRtq4dXOVfUuFzIK1Leg6kdTwHEk0AoF01uXync/X0wJraYxRemxh6VDuHmNON8co2+xoB7g80AU0AwI8lWuavTR0YWL3Cfi4DwEIT0AQA/PC9/gMmmoAmAOCH7/UfMNEENAEAP3yv/4CJJqAJAPjhe/0HTDQBTQDAD9/rP2CiCWgCAH74Xv8BE01AEwDww/f6D5hoApoAgB++13/ARBPQBAD88L3+AyaagCYA4Ifv9R8w0QQ0AQA/fK//gIkmoAkA+OF7/QdMNAFNAMAP3+s/YKIJaAIAfvhe/wETTUATAPDD9/oPmGgCmgCAH77Xf8BEE9AEAPzwvf4DJpqAJgDgh+/1HzDRBDQBAD98r/+AiSagCQD44Xv9B0w0AU0AwA/f6z9gogloAgB++F7/ARNNQBMA8MP3+g+YaAKaAIAfvtd/wEQT0AQA/PC9/gMmmoAmAOCH7/UfMNEENAEAP3yv/4CJJqAJAPjhe/0HTDQBTQDAD9/rP2CiCWgCAH74Xv8BE01AEwDww/f6D5hoApoAgB++13/ARBPQBAD88L3+AyaagCYA4Ifv9R8w0QQ0AQA/fK//gIkmoAkA+OF7/QdMNAFNAMAP3+s/YKIJaAIAfvhe/wETTUATAPDD9/oPmBKbYOvWrWqw/lpDEwBAU3yv/4Dpfm4CQX3q4p9BEwBYVnyv/4CJJqAJAPjhe/0HTO3XBDIL4ppAoAkAtAXf6z9gogloAgB++F7/AVMnNsELL7ygmkCgCQB44Xv9B0w0AU0AwA/f6z9gogloAgB++F7/AVNkE4ihSRMA7eOHi8d39f2iu1Qqdf9i3Wuj//eD+fqx7eJ128caXn791Abxwr4Priy+6NN94iX7Pl18wZWz+7Y/9jfihaWfP7794OT1au3l598umZ4fvS5e8e2oeKcbTl1vyT8ztHBzqvof/zB36IG5gw/OvT9Q/dOthfDl8x+Jl7wxv/iGU9WDD8wNfzivfq9+HXp47qOx+dna24V/8YG546fmGz7O5er74ct/9134x++qw7X3Vnt781dPNfs/2vf6D5hUE8j5SBMA7ean8/seEzN7w6Gxycmzo/ueFyP88X2f39Xe4vro89rYVi8Nm0BM8NFv6i9qbIIrpzZ3l7p7/vX42cnJM/+2vUf84cUz8j2ETbD9vUnN59eDD9nqJvjrheqRB+aObKpOnav+8VT1+MNzBx+u/unOvTRNcOKd6h/PBb/O9ARTfOyCFhPi16bqX7QP9M3R2rC3m+DKudr7OSHeYFX4mYhfF+b/mvlf43v9B0w0AU2A9nbx3VXip/3jl+t/vjv5ZneptOvs4p7A5eN9pe5XfvtKt/5mi02wOOkbmuCHs6+IV+2eVHFx5URfqbTq0BfB78Mm2Hfe/mxa3QSX3hBzujp9p/bH+XDYnzy3kKYJPpqqv+py9Zh6VfgXj6wKNh7OLX515scemjv8UGQTLL7NRzm3BxTf6z9gogloArS1K+EQHtUuANy9/vnk5CdXVBME0bDy0MXq+X3dpVXvXlRvFzbBhvc+eE38/P/Kf4VvrjfBJ2+K37/5ifahvv9ycnLy4rfBb701wdXwx/cPjs7/aL4mfRMsyD2AcX2fYLAqIuD9o7W/Pn+helgkwtEqTYAOQxPQBGhr5/dZFwUaXTy0srTqYJACFw+GcVB/hWyC0W9/OLtLVMFrkz81NIHcRdDPFjR8VPM8gXg/4Staf55g/g+bwl39n80d31n97PJCfUpnOE8gq2K28S/++e25gw9VvwxesvD5YDDsvzlHE6DT0AQ0AdpaQhOEVxJ6apcMvji0qtT9Zv1qQL0JxCA/s7m7tOqt83ezNYF+nuDidfleW98EwsKPl6vnds4d/lkw3Y++Mf9T8MLkJhgdW/jx1sKP381/9kZwpeDMhcbDieGhwuCQwZ3q6IPBkcPrH3LtAJ2GJqAJ0Nbc1w7uTr7ebfxE3/16LQoWm0C8l5ENwcnE/a8t92sHjRa+eENeBbinLgEsDm3HeYJ71f8Ub7yzGp4KVDEx/7ueuUOD1Wun5g4+WP38zj2aAJ2nkCZ4qRFNACyd8Iyhdu/AveDcQO2M4fdntpdKfW+fUT/On3mrp1R6RZ4/1JtAVMHxvlo06GcMg82D+vsN397zGcP58Ycax7C8oWAsOGP4P6uCuwDUMcGfxubCDlhQb7bYBHeqJxcDYnGD4S9BDcx9EJaByAWaAJ3H3QRbQ1mbIHKO52wC8deKagKVBUYTbNy4kSZAG/tp8s2fl0qPbX/PuhcxfFiCHv1eg3uXj/fUH6igsQmCKwuP600Q3GiwobvU3ff6aNZ7EXveOjNpX1YowsK1D4Nt/6PyXsSx6siqYIr/IRzb108FrzoyUP0svE3x2IPBbYp/ln+v8V7E/w5PJJwYW7zvoHbRQbZC/TZFmgCdJ18TbNu2bRk1gcyCyCYYGBiIbAKZBTQB7hPfn39vV1/40EL6YxaFP/qvPX6l4U2DI4elvuCFZhPcu3tx/+ONZwjufjm2b/Pfd2d9zKLo44cFWbhxrv6YRQ/MHRZx8L8L+quCRyyQD2e0s/r1rfqr7McsOiVPIdxrPIgQni58qFYSNAE6j2wC+SCG7iYQ45UmAIDC+F7/AZPdBHJitnET6FlAEwBYtnyv/4Cp+SYwbjrI1wSVSoUmANBZfK//gGlpmmBnqLAmEGgCAO3O9/oPmMQoVE+K2LlNIL4ENAGAJeZ7/QdMjibYWmc3gT5/26kJZBa8UEcTAPDI9/oPmIwmUOPy/mkCmQV6E2zevJkmAOCd7/UfMOlNsGnTprgmkLM1zU0HxTdByoctytEE4h9MEwDwxff6D5gim0AMzTZrAkH/nMSnmLUJNmzY4Ht9ANBZfK//gEk+iGGBTRD3ZAeOJqiEPDSBPGZIEwDwwvf6D5j0JlAHDJtpgsir/8U3wQ7rSAFNAKC9+F7/AVNHNIHgbgL5EAW+1wcAncX3+g+Y5AMWuZtADdZmHsSwqSaIzAJ3E8gssJtA0Jtg06ZNNAEAL3yv/4BJNYEYjmmaQE7bTE2gxnprm0C/9cBuAv3yAU0AYDnwvf4DpsQmUBcO/DSB4/KB43ZEmgDA8ud7/QdM6skO4ppgQJPYBI6bDvw0QeTlA6MJ1FMe+F4fAHQW3+s/YIprAsdhgrZpgrgjBZEPUUATAFhivtd/wKQ3QcrDBKoJtoeWUROoLIhsAv2ZkIwmEJ577jnf6wOAzuJ7/QdMYhTKmRjZBJGHCYptgkpdQhPYWfByKHcTyCxQlw/EF0J8OXwvEQA6iO/1HzAZFw7krMzXBHJG59skaFUTCCmbQJienva9RADoIL7Xf6DBzZs31SZBYhPoczZuk8B/E9hZoDeBzALVBILeBLt3755lqwDAUvE9AoAGhw8f1ptADUrZBOopkpd1E6gsiGsC/RGO3U2wceNGkQXT09OzlAGA1vM9AoCamzdvvvvuu/LCQdYmcBwm8NkERhbENYHMgs2aTSH9SZPXr1//7LPPrlu37plnnnn66aefCvX29j755JNr167959ATTzyxpu5Xdb+s+6cs/hEAgLpME0RQo0cNIzWexKiSM2ttSAwyOdHEaBMDTow5MezEyDOeIlnQp6QdBMZhAjV8jSAwmmCnpoAmyHT5IO6Yob1VYNx94M6CtXUyC6Q1ml81+mURsn5/AACWoUImgk4fN/okkrOpp6dH1YAjCAQ5+/S7EHNcOGiPJojcKohrAvUcibIJhGdC9m6BXQaRiRAZCgAA5GOPGBUBOr0GxNgygkCQM04MO/25ECObQI1Oe5PA3QRxFw5SNYH4L18T2EcKBHcTGJcP9Ac0NLYK9Czo6+uTX9Mn69SlhJ5G9v+exG4AAMCWOFB6LDII1Kh6qs4OAnnVQN8k0E8SpGkCffKm3CSIa4KKJrYJHFngaALj8oHMghc1xlaBfN7kyCyQVxBkFsgNg946VQZq20Bn/3/KKvFbAQDQ7nLPCGPo6BsDcm9AkjWggsA4RiCDQD0/snG6UJ+bxkMat7wJsm4VvKwxmkDfKvh1nXurQGaB/NLIKwh2FkSWgYoDff8gLhQAAGiSPmWMAaTPJjGq+vr6VA0YQaCuGkQGgX66UA8CvQkcQeC/CdyXD+wmMG5KlDbW2VlglMFTjXpj2JUAAEA+kbNfjwDdMxo5xSKDQFBDMPJ0YY5NAr0JsgZBhiZo5vKBoDeBvlUgLx/oz54snxhJZoEgr76sq1MbBvKcgfRUEntHAQCARPa8t/Vp1MUCNbb0MwRyuqlhpzYJIh+7ULI3CfTThbIJXm5UQBNEZkGaJkh5+SBNFqgrCCoL9DsR9DjQE0yPg/QStxkAAB3FmO7p6YcG9I0BRd5lkBgEm+tPjuy+cJCyCXZamm0CRxa4m0BtFTiawHj6A2O3QJ6/UBsGz0ZZ10g/dgAAQOsYBWB3gKK2B/RzhfJGg/SbBKoJ9IcvlFJuEkQ2QcVSQBMIdhPYWWCcKjCyQD0xkpEF6mYEecJAcpSBkQgAABQlbuLoQaBGlZxc+ixTQaCe7sgRBPYmgR0E6S8cZG6CNJcPUmZBZBPoWbC1Tr+CoGeBLAP9S6k2XvQ4sBMhku/vIgBAu0ocMestamAZQaAGnAoC1QRqLNpBkH6TwHHhwG4COwiSm6D5rQKjCeKy4AWN+qrpj1ugZ4F+CFGx/6+4pdlsAAB0gsjRnsgYQ8aQ0mtAPaOBfLzCxCCwm+A3dfmaIM0mQZ4mUFlgfB723Qd2FujPgLBVY2SBOlugX0owzh46/AsAAK3kHkP63YZ6EKgDBJFBIJtAf8YjdxCkP12YswkyXT6w88R+6mTJ3ioQ9K/ClpCdBSoO9FsSjGsKcbsIxAEAoECRs99m1IC6v8AOAjn73EEg6PPUEQTNXzjI2QRZtwr0LBjQRGaBfrbAKAP9OZPiyiAyDkgEAEBWjm2AOPpzGuk3F+hBoA4V6kEg6PPRHQSOJogc2S1vApkFdhPEbRVEXkHQs2BLI0cW6HFg7B/YHP/nAABIyT1rjBRwBIEx7NxB4NgkiGyCJoMgogkybRVEXj5QWfCbRnEHC/RbEw36gx9HloF+FDEr399gAIDlJccoMTogsgb6w4cutmecfa6wmSBofpOgqSYQ4pogMguMZ0BImQXGOQP7lsVC+gAAgPTiZpB+YsA4N5AmCOKOFqomUEM2/SaB0QSOIIhuAjsL4j6MY6tAZoG9VeDIAvUMSSnLwL64ELep8DwAALlE/txvsyeUfaUgZRDoj0agN8FLmnxBkLMJjCxwfLAcWwW5syCuDNLEQZp0ICAAoBO49/kziRxJcXsDW6IerDAyCOxNAkcQFLVJUEAT5NsqcGeB4MiCLdpTLRceBwAAJIrsAP2Ggrgg0CfdQKOUQZBpk6CwJmgmC4zPPi4LBOMr8mKjxD0DA4kAAChc3GaAwf3TrDHgjPGnT0ZjaLqDwHG0MGsQJDSBngXuJrCfKbHALHCXQWQcuEMBAID03FPGPaGMiwWJQWA0QWIQLGkTqCxwb00kZkHcwQJ1HcGRBS9qD4Ts/tIn9kEavr/3AABLoZlJkTiMjKcwSHO9IOtVg8KDIEMTpNkqaCYLMpVByj4oMBQAAB0o/aDZ0vighHYNvOg8UZgvCFI2QcogSNUElSxbBXoW2FcQ7KdHsrPAfkSjxDjI1AcAABTFnkeRYyuxBhKDQG+CTEHQqiZIuVVQSBbocRBXBpFxQCgAAFrBPXEco0pPgcQgMB6byBEEhW8SpG2CSsatgjRZkLUM3HGQ2Adp+P5+AwB4kHtquKeSsTGQcnugkCBQTZApCDI0gd8sSLltUHglAACwNWn8R9aAPcUStwfSB0GaTYKsQZCtCWQWuJsgRxaoMrC/WJFlkK8PAABonbgOiKsBFQTGMyA3HwSyCXIEQeYmSJMFxuedMgtUHER+4RxxoBLB9/cDAKCDuCPAkQKRNbAcgiBPE+TIAlUGabLAXQaJcWDz/W0DAGhjWYeOIwVkDdhTzx6OKgjseeqev0LuIMjZBELi52T/M2QZRP7L48qg2DgAAKB1HANLiJx0jiCIHKMtDYL8TbA0WZAyDugDAMDScw+mbTHXCHIHQWITNBkETTVB7iwQIr8K7jLY7rxJgVYAALRI+qGTMgXiakCIm5uJQdDMMYJimiDrbQhpNgwSyyB3HwAA0CL2XYUF1sDSBEGzTdBkFjRfBkYfEAoAgNaxx036URU37F5yXixIrIECg6DSfBNUisgCRxlk7YPEXEjP9/ceAKAlso6D3DOoyRpY4iCoFNIElaazYIfzYQwKiQMAAJaMe5bF3WfoNwgqBTZBmkc+TiyD9HFAIgAAlpU0HVBUDbQiCCpFNUFFy4Icj2jkKINMiUAlAACWQMqRZM+yNBMwTQ3kfkYDt8KaoFJ0FkSWQY5KICMAAGk0P1AcMyvl4EtZA60IgkqxTVDJkgXpyyBNHxSYCAAAJEqcSuk7IE0NLEEQVApvAql1ZZCyD8gFAEDzso6brB2QowZaFwSVFjVBJWMW5CuDJkMBAIBmND+50szHJQuCSuuaoNKYBSnLoJA4AABgOcuRAq2uAen/AYoqGWrHFpTYAAAAFHRFWHRTb2Z0d2FyZQBZYW5kZXguRGlza05f+JEAAAAASUVORK5CYII=;clipPath=inset(6.52% 8% 10% 7% round 5%);strokeWidth=100;perimeterSpacing=100;sketch=1;shadow=1;" parent="TS6xKIsJITg3z22UG14p-49" vertex="1">
                    <mxGeometry width="929" height="699.4823529411765" as="geometry"/>
                </mxCell>
                <mxCell id="TS6xKIsJITg3z22UG14p-48" value="" style="group" parent="TS6xKIsJITg3z22UG14p-49" vertex="1" connectable="0">
                    <mxGeometry x="461" y="347" width="535" height="293" as="geometry"/>
                </mxCell>
                <mxCell id="TS6xKIsJITg3z22UG14p-18" value="" style="rounded=0;whiteSpace=wrap;html=1;fontSize=18;" parent="TS6xKIsJITg3z22UG14p-48" vertex="1">
                    <mxGeometry width="380" height="190" as="geometry"/>
                </mxCell>
                <mxCell id="TS6xKIsJITg3z22UG14p-17" value="" style="group" parent="TS6xKIsJITg3z22UG14p-48" vertex="1" connectable="0">
                    <mxGeometry x="23" y="14" width="160" height="160" as="geometry"/>
                </mxCell>
                <mxCell id="TS6xKIsJITg3z22UG14p-8" value="" style="group" parent="TS6xKIsJITg3z22UG14p-17" vertex="1" connectable="0">
                    <mxGeometry width="160" height="48" as="geometry"/>
                </mxCell>
                <mxCell id="TS6xKIsJITg3z22UG14p-5" value="&lt;font style=&quot;font-size: 22px;&quot;&gt;Mattina&lt;/font&gt;" style="rounded=0;whiteSpace=wrap;html=1;" parent="TS6xKIsJITg3z22UG14p-8" vertex="1">
                    <mxGeometry width="160" height="48" as="geometry"/>
                </mxCell>
                <mxCell id="TS6xKIsJITg3z22UG14p-7" value="" style="sketch=0;html=1;aspect=fixed;strokeColor=none;shadow=0;align=center;verticalAlign=top;fillColor=#F4AF20;shape=mxgraph.gcp2.check;fontSize=30;" parent="TS6xKIsJITg3z22UG14p-8" vertex="1">
                    <mxGeometry x="125.21739130434783" y="8" width="23.07692307692308" height="18.461538461538463" as="geometry"/>
                </mxCell>
                <mxCell id="TS6xKIsJITg3z22UG14p-9" value="" style="group" parent="TS6xKIsJITg3z22UG14p-17" vertex="1" connectable="0">
                    <mxGeometry y="56" width="160" height="48" as="geometry"/>
                </mxCell>
                <mxCell id="TS6xKIsJITg3z22UG14p-10" value="&lt;font style=&quot;font-size: 21px;&quot;&gt;Pomeriggio&lt;/font&gt;" style="rounded=0;whiteSpace=wrap;html=1;" parent="TS6xKIsJITg3z22UG14p-9" vertex="1">
                    <mxGeometry width="160" height="48" as="geometry"/>
                </mxCell>
                <mxCell id="TS6xKIsJITg3z22UG14p-12" value="" style="group" parent="TS6xKIsJITg3z22UG14p-17" vertex="1" connectable="0">
                    <mxGeometry y="112" width="160" height="48" as="geometry"/>
                </mxCell>
                <mxCell id="TS6xKIsJITg3z22UG14p-13" value="&lt;font style=&quot;font-size: 22px;&quot;&gt;Sera&lt;/font&gt;" style="rounded=0;whiteSpace=wrap;html=1;" parent="TS6xKIsJITg3z22UG14p-12" vertex="1">
                    <mxGeometry width="160" height="48" as="geometry"/>
                </mxCell>
                <mxCell id="TS6xKIsJITg3z22UG14p-14" value="" style="sketch=0;html=1;aspect=fixed;strokeColor=none;shadow=0;align=center;verticalAlign=top;fillColor=#F4AF20;shape=mxgraph.gcp2.check;fontSize=30;" parent="TS6xKIsJITg3z22UG14p-12" vertex="1">
                    <mxGeometry x="125.21739130434783" y="8" width="23.07692307692308" height="18.461538461538463" as="geometry"/>
                </mxCell>
                <mxCell id="TS6xKIsJITg3z22UG14p-19" value="Ripeti ogni:" style="text;html=1;strokeColor=none;fillColor=none;align=left;verticalAlign=middle;whiteSpace=wrap;rounded=0;fontSize=18;" parent="TS6xKIsJITg3z22UG14p-48" vertex="1">
                    <mxGeometry x="211" y="14" width="129" height="34" as="geometry"/>
                </mxCell>
                <mxCell id="TS6xKIsJITg3z22UG14p-20" value="___" style="rounded=1;whiteSpace=wrap;html=1;fontSize=18;" parent="TS6xKIsJITg3z22UG14p-48" vertex="1">
                    <mxGeometry x="212" y="71" width="48" height="46" as="geometry"/>
                </mxCell>
                <mxCell id="TS6xKIsJITg3z22UG14p-21" value="1" style="text;html=1;strokeColor=none;fillColor=none;align=center;verticalAlign=middle;whiteSpace=wrap;rounded=0;fontSize=18;" parent="TS6xKIsJITg3z22UG14p-48" vertex="1">
                    <mxGeometry x="206" y="79" width="60" height="30" as="geometry"/>
                </mxCell>
                <mxCell id="TS6xKIsJITg3z22UG14p-22" value="Giorno" style="rounded=1;whiteSpace=wrap;html=1;fontSize=18;" parent="TS6xKIsJITg3z22UG14p-48" vertex="1">
                    <mxGeometry x="266" y="72" width="104" height="46" as="geometry"/>
                </mxCell>
                <mxCell id="TS6xKIsJITg3z22UG14p-23" value="" style="triangle;whiteSpace=wrap;html=1;fontSize=18;rotation=90;" parent="TS6xKIsJITg3z22UG14p-48" vertex="1">
                    <mxGeometry x="350" y="91" width="10" height="8" as="geometry"/>
                </mxCell>
                <mxCell id="TS6xKIsJITg3z22UG14p-44" value="" style="group" parent="TS6xKIsJITg3z22UG14p-48" vertex="1" connectable="0">
                    <mxGeometry x="355" y="98" width="180" height="191" as="geometry"/>
                </mxCell>
                <mxCell id="TS6xKIsJITg3z22UG14p-24" value="" style="rounded=0;whiteSpace=wrap;html=1;fontSize=18;" parent="TS6xKIsJITg3z22UG14p-44" vertex="1">
                    <mxGeometry width="180" height="191" as="geometry"/>
                </mxCell>
                <mxCell id="TS6xKIsJITg3z22UG14p-35" value="" style="group" parent="TS6xKIsJITg3z22UG14p-44" vertex="1" connectable="0">
                    <mxGeometry x="10" y="11" width="160" height="160" as="geometry"/>
                </mxCell>
                <mxCell id="TS6xKIsJITg3z22UG14p-36" value="" style="group" parent="TS6xKIsJITg3z22UG14p-35" vertex="1" connectable="0">
                    <mxGeometry width="160" height="48" as="geometry"/>
                </mxCell>
                <mxCell id="TS6xKIsJITg3z22UG14p-37" value="&lt;font style=&quot;font-size: 22px;&quot;&gt;Giorno&lt;/font&gt;" style="rounded=0;whiteSpace=wrap;html=1;" parent="TS6xKIsJITg3z22UG14p-36" vertex="1">
                    <mxGeometry width="160" height="48" as="geometry"/>
                </mxCell>
                <mxCell id="TS6xKIsJITg3z22UG14p-39" value="" style="group" parent="TS6xKIsJITg3z22UG14p-35" vertex="1" connectable="0">
                    <mxGeometry y="56" width="160" height="48" as="geometry"/>
                </mxCell>
                <mxCell id="TS6xKIsJITg3z22UG14p-40" value="&lt;font style=&quot;font-size: 21px;&quot;&gt;Settimana&lt;/font&gt;" style="rounded=0;whiteSpace=wrap;html=1;" parent="TS6xKIsJITg3z22UG14p-39" vertex="1">
                    <mxGeometry width="160" height="48" as="geometry"/>
                </mxCell>
                <mxCell id="TS6xKIsJITg3z22UG14p-41" value="" style="group" parent="TS6xKIsJITg3z22UG14p-35" vertex="1" connectable="0">
                    <mxGeometry y="112" width="160" height="48" as="geometry"/>
                </mxCell>
                <mxCell id="TS6xKIsJITg3z22UG14p-42" value="&lt;font style=&quot;font-size: 22px;&quot;&gt;Mese&lt;/font&gt;" style="rounded=0;whiteSpace=wrap;html=1;" parent="TS6xKIsJITg3z22UG14p-41" vertex="1">
                    <mxGeometry width="160" height="48" as="geometry"/>
                </mxCell>
                <mxCell id="16" value="" style="sketch=0;html=1;aspect=fixed;strokeColor=none;shadow=0;align=center;verticalAlign=top;fillColor=#F4AF20;shape=mxgraph.gcp2.check;fontSize=30;" vertex="1" parent="TS6xKIsJITg3z22UG14p-48">
                    <mxGeometry x="86.93" y="216" width="12.79" height="10.23" as="geometry"/>
                </mxCell>
                <mxCell id="15" value="&lt;font style=&quot;font-size: 22px&quot;&gt;Sera&lt;/font&gt;" style="rounded=0;whiteSpace=wrap;html=1;" vertex="1" parent="TS6xKIsJITg3z22UG14p-48">
                    <mxGeometry y="206" width="109.99999999999999" height="30" as="geometry"/>
                </mxCell>
                <mxCell id="18" value="" style="sketch=0;html=1;aspect=fixed;strokeColor=none;shadow=0;align=center;verticalAlign=top;fillColor=#F4AF20;shape=mxgraph.gcp2.check;fontSize=30;" vertex="1" parent="TS6xKIsJITg3z22UG14p-48">
                    <mxGeometry x="81.7873913043477" y="211.76999999999998" width="23.07692307692308" height="18.461538461538463" as="geometry"/>
                </mxCell>
                <mxCell id="7" value="Seleziona tutti:" style="text;html=1;strokeColor=none;fillColor=none;align=center;verticalAlign=middle;whiteSpace=wrap;rounded=0;fontSize=18;" parent="TS6xKIsJITg3z22UG14p-49" vertex="1">
                    <mxGeometry x="60" y="520" width="130" height="34" as="geometry"/>
                </mxCell>
                <mxCell id="8" value="" style="group" vertex="1" connectable="0" parent="TS6xKIsJITg3z22UG14p-49">
                    <mxGeometry x="320" y="520" width="130" height="30" as="geometry"/>
                </mxCell>
                <mxCell id="9" value="&lt;font style=&quot;font-size: 22px&quot;&gt;Weekend&lt;/font&gt;" style="rounded=0;whiteSpace=wrap;html=1;" vertex="1" parent="8">
                    <mxGeometry width="130" height="30" as="geometry"/>
                </mxCell>
                <mxCell id="6" value="" style="group" parent="TS6xKIsJITg3z22UG14p-49" vertex="1" connectable="0">
                    <mxGeometry x="200" y="520" width="110" height="30" as="geometry"/>
                </mxCell>
                <mxCell id="3" value="&lt;font style=&quot;font-size: 22px&quot;&gt;Festivi&lt;/font&gt;" style="rounded=0;whiteSpace=wrap;html=1;" parent="6" vertex="1">
                    <mxGeometry width="109.99999999999999" height="30" as="geometry"/>
                </mxCell>
                <mxCell id="11" value="" style="group" vertex="1" connectable="0" parent="TS6xKIsJITg3z22UG14p-49">
                    <mxGeometry x="200" y="560" width="110.07431438127081" height="30" as="geometry"/>
                </mxCell>
                <mxCell id="12" value="&lt;font style=&quot;font-size: 22px&quot;&gt;Mattina&lt;/font&gt;" style="rounded=0;whiteSpace=wrap;html=1;" vertex="1" parent="11">
                    <mxGeometry x="-10" width="120" height="30" as="geometry"/>
                </mxCell>
                <mxCell id="19" value="" style="sketch=0;html=1;aspect=fixed;strokeColor=none;shadow=0;align=center;verticalAlign=top;fillColor=#F4AF20;shape=mxgraph.gcp2.check;fontSize=30;" vertex="1" parent="11">
                    <mxGeometry x="86.99739130434773" y="5.8799999999999955" width="23.07692307692308" height="18.461538461538463" as="geometry"/>
                </mxCell>
                <mxCell id="13" value="Nelle fasce:" style="text;html=1;strokeColor=none;fillColor=none;align=center;verticalAlign=middle;whiteSpace=wrap;rounded=0;fontSize=18;" vertex="1" parent="TS6xKIsJITg3z22UG14p-49">
                    <mxGeometry x="60" y="558" width="130" height="34" as="geometry"/>
                </mxCell>
                <mxCell id="17" value="" style="sketch=0;html=1;aspect=fixed;strokeColor=none;shadow=0;align=center;verticalAlign=top;fillColor=#F4AF20;shape=mxgraph.gcp2.check;fontSize=30;" vertex="1" parent="TS6xKIsJITg3z22UG14p-49">
                    <mxGeometry x="447.21000000000004" y="569.89" width="12.79" height="10.23" as="geometry"/>
                </mxCell>
                <mxCell id="14" value="&lt;font style=&quot;font-size: 22px&quot;&gt;Pomeriggio&lt;/font&gt;" style="rounded=0;whiteSpace=wrap;html=1;" vertex="1" parent="TS6xKIsJITg3z22UG14p-49">
                    <mxGeometry x="310" y="560" width="150" height="30" as="geometry"/>
                </mxCell>
                <mxCell id="TS6xKIsJITg3z22UG14p-51" value="" style="rounded=0;whiteSpace=wrap;html=1;shadow=0;sketch=0;strokeWidth=0;fontSize=18;strokeColor=none;" parent="1" vertex="1">
                    <mxGeometry x="550" y="360" width="440" height="60" as="geometry"/>
                </mxCell>
                <mxCell id="20" value="Esprimi Scocciature - Giornate" style="text;html=1;strokeColor=none;fillColor=none;align=left;verticalAlign=middle;whiteSpace=wrap;rounded=0;fontSize=51;" vertex="1" parent="1">
                    <mxGeometry x="540" y="280" width="1270" height="70" as="geometry"/>
                </mxCell>
                <mxCell id="21" value="MS3" style="text;html=1;strokeColor=none;fillColor=none;align=left;verticalAlign=middle;whiteSpace=wrap;rounded=0;fontSize=34;" vertex="1" parent="1">
                    <mxGeometry x="310" y="280" width="80" height="70" as="geometry"/>
                </mxCell>
            </root>
        </mxGraphModel>
    </diagram>
</mxfile>